<?xml version="1.0" standalone="no"?>
<!DOCTYPE svg PUBLIC "-//W3C//DTD SVG 1.1//EN" "http://www.w3.org/Graphics/SVG/1.1/DTD/svg11.dtd" >
<svg xmlns="http://www.w3.org/2000/svg" xmlns:xlink="http://www.w3.org/1999/xlink" version="1.1">
<metadata>
Created by FontForge 20170104 at Fri Jul  3 00:40:21 2015
 By myTaste
Inner Mongolia University Mongolian Information Study Group
</metadata>
<defs>
<font id="OyunQaganTig" horiz-adv-x="834" >
  <font-face 
    font-family="Oyun Qagan Tig"
    font-weight="400"
    font-stretch="normal"
    units-per-em="2048"
    panose-1="3 2 4 0 0 0 0 0 0 0"
    ascent="1638"
    descent="-410"
    x-height="916"
    cap-height="1356"
    bbox="-800 -442 1976 1770"
    underline-thickness="20"
    underline-position="1490"
    unicode-range="U+0020-FE48"
  />
<missing-glyph horiz-adv-x="1329" 
d="M606 86q-27 0 -48 6t-37 16q-20 23 -20 74q0 42 36 80q30 24 69 24h8q39 0 72 -38q27 -26 27 -66q0 -61 -35 -83q-32 -13 -72 -13zM606 450h-42q-4 36 -5.5 65.5t-1.5 59.5q0 150 79 260q51 51 99.5 98t99.5 92q34 29 34 99q-35 197 -227 207q-158 -14 -190 -118
q0 -12 34 -22q69 -6 78 -72q0 -81 -78 -87q-99 0 -99 117q20 192 262 220q280 -24 306 -306q0 -126 -72 -225q-17 -23 -53.5 -55t-88.5 -75q-14 -11 -25.5 -19.5t-18.5 -14.5q-92 -66 -92 -192q0 -8 0.5 -16t0.5 -16zM294 -7h745v1479h-745v-1479zM1107 -76h-885l1 1625h884
v-1625z" />
    <glyph glyph-name=".notdef" horiz-adv-x="1329" 
d="M606 86q-27 0 -48 6t-37 16q-20 23 -20 74q0 42 36 80q30 24 69 24h8q39 0 72 -38q27 -26 27 -66q0 -61 -35 -83q-32 -13 -72 -13zM606 450h-42q-4 36 -5.5 65.5t-1.5 59.5q0 150 79 260q51 51 99.5 98t99.5 92q34 29 34 99q-35 197 -227 207q-158 -14 -190 -118
q0 -12 34 -22q69 -6 78 -72q0 -81 -78 -87q-99 0 -99 117q20 192 262 220q280 -24 306 -306q0 -126 -72 -225q-17 -23 -53.5 -55t-88.5 -75q-14 -11 -25.5 -19.5t-18.5 -14.5q-92 -66 -92 -192q0 -8 0.5 -16t0.5 -16zM294 -7h745v1479h-745v-1479zM1107 -76h-885l1 1625h884
v-1625z" />
    <glyph glyph-name=".null" horiz-adv-x="0" 
 />
    <glyph glyph-name="nonmarkingreturn" horiz-adv-x="413" 
 />
    <glyph glyph-name="space" unicode=" " horiz-adv-x="413" 
 />
    <glyph glyph-name="NUL" unicode="!" horiz-adv-x="1928" 
d="M911.5 1559q-70.5 -58 -45.5 -273.5t54.5 -491.5t41 -288.5t23.5 -0.5t42.5 291t57 494t-38 271t-135 -2zM894.5 241.5q-36.5 -34.5 -36.5 -81.5q0 -49 36 -83t89 -34q52 0 87 32.5t35 79.5q0 48 -37 84.5t-87 36.5t-86.5 -34.5z" />
    <glyph glyph-name="quotedbl" unicode="&#x22;" horiz-adv-x="836" 
d="M576 803l-76 413q-1 13 -1.5 25t-0.5 25q0 63 28 92t74 29q43 0 71.5 -29t28.5 -78q0 -43 -4.5 -88.5t-14.5 -95.5l-57 -293h-48zM210 803l-55 296q-11 61 -16.5 102.5t-5.5 63.5q0 64 26.5 93t71.5 29t73.5 -29.5t28.5 -78.5q0 -20 -6.5 -64.5t-19.5 -116.5l-54 -295
h-43z" />
    <glyph glyph-name="numbersign" unicode="#" horiz-adv-x="1024" 
d="M115 -28l93 455h-171v82h187l69 343h-256v80h275l91 455h83l-91 -455h337l97 455h83l-95 -455h170v-80h-185l-70 -343h255v-82h-272l-93 -455h-81l91 455h-339l-95 -455h-83zM308 509h339l72 343h-341z" />
    <glyph glyph-name="dollar" unicode="$" horiz-adv-x="1024" 
d="M108 334h44q11 -138 85.5 -210.5t224.5 -86.5v584q-225 139 -300 246q-53 77 -53 185q0 61 23 116t68 98.5t111 72.5t151 39v92h64v-92q42 -2 76 -7t62 -12q28 -8 192 -69v-299h-39q-7 79 -27 136.5t-55.5 96t-87 59.5t-121.5 28v-508q252 -176 323 -260q35 -42 53.5 -93
t18.5 -114q0 -68 -26.5 -130t-77.5 -111.5t-124.5 -82t-166.5 -40.5v-128h-64v128q-48 2 -91 7.5t-84 14.5q-41 8 -85.5 22t-93.5 35v283zM462 845v465q-100 -12 -148.5 -63.5t-48.5 -129.5q0 -37 10 -70.5t33 -66t60.5 -66t93.5 -69.5zM526 37q116 21 176 88.5t60 160.5
q0 66 -40 125q-40 60 -196 167v-541z" />
    <glyph glyph-name="percent" unicode="%" horiz-adv-x="1992" 
d="M304 1351l1443 -988v-89l-1443 988v89zM1018 1305q0 63 29 116t78.5 91.5t116 60t141.5 21.5q89 0 157 -23t114 -62.5t69.5 -91.5t23.5 -109q0 -60 -27 -113t-75.5 -92t-115.5 -61.5t-146 -22.5q-89 0 -157 25t-114.5 65.5t-70 92t-23.5 103.5zM1071 1306q0 -28 17 -51.5
t55 -40.5t99 -26.5t148 -9.5q156 0 228.5 34t72.5 94q0 55 -75 92.5t-231 37.5q-158 0 -236 -34t-78 -96zM304 320q0 63 29 116t78.5 91.5t116 60t141.5 21.5q89 0 157 -23t114 -62.5t69.5 -91.5t23.5 -109q0 -60 -27 -113t-75.5 -92t-115.5 -61.5t-146 -22.5q-89 0 -157 25
t-114.5 65.5t-70 92t-23.5 103.5zM357 321q0 -28 17 -51.5t55 -40.5t99 -26.5t148 -9.5q156 0 228.5 34t72.5 94q0 55 -75 92.5t-231 37.5q-158 0 -236 -34t-78 -96z" />
    <glyph glyph-name="ampersand" unicode="&#x26;" horiz-adv-x="1593" 
d="M1045 873h420v-37q-87 -8 -129 -39q-41 -32 -129 -190q-89 -159 -198 -297q45 -52 84 -88t75 -58t70.5 -31.5t70.5 -9.5q69 0 117 37.5t68 110.5l37 -27q-37 -141 -119 -208t-191 -67q-41 0 -82 10.5t-84.5 34t-89 60.5t-95.5 90q-125 -110 -224 -153q-99 -42 -212 -42
q-83 0 -149 24t-113 64.5t-72 95t-25 114.5q0 121 87 241q86 121 327 250q-24 53 -39.5 94.5t-25 76t-13 65t-3.5 62.5q0 75 27 136t74.5 104.5t111 67t136.5 23.5q58 0 107.5 -19t85.5 -52t56 -77.5t20 -95.5q0 -107 -73 -186q-36 -40 -99.5 -83.5t-156.5 -91.5
q64 -114 130 -217t135 -197q176 211 176 354q0 19 -6 38.5t-17.5 35t-29 26.5t-40.5 14v37zM663 847q247 118 247 301q0 35 -12 65.5t-32.5 53t-49 35t-61.5 12.5q-44 0 -77 -17.5t-55 -44t-33 -58t-11 -59.5q0 -26 3.5 -51.5t13 -57.5t25.5 -75t42 -104zM818 222
q-66 91 -111.5 156t-71.5 107t-53.5 93t-58.5 113q-241 -139 -241 -332q0 -53 18 -101.5t51 -85.5t80 -59.5t106 -22.5q32 0 61 5t61 19t70 40t89 68z" />
    <glyph glyph-name="quotesingle" unicode="'" horiz-adv-x="369" 
d="M158 803l-54 296q-11 62 -17 103t-6 63q0 64 26 93t71 29t74.5 -29.5t29.5 -77.5q-1 -19 -6.5 -64t-19.5 -118l-54 -295h-44z" />
    <glyph glyph-name="parenleft" unicode="(" horiz-adv-x="682" 
d="M636 -91v-37q-152 77 -252 178q-144 145 -222 342q-78 196 -78 409q0 310 153 565q153 256 399 366v-42q-122 -67 -202 -186q-79 -118 -118 -299q-39 -182 -39 -378q0 -214 33 -389q26 -139 63 -221q37 -84 99 -161t164 -147z" />
    <glyph glyph-name="parenright" unicode=")" horiz-adv-x="682" 
d="M46 1680v42q153 -76 253 -177q143 -146 221 -343t78 -409q0 -310 -153 -565q-154 -257 -399 -366v37q123 69 202 187q81 119 118 298q19 91 29 185.5t10 193.5q0 213 -33 389q-26 139 -63 221q-38 83 -99.5 160t-163.5 147z" />
    <glyph glyph-name="asterisk" unicode="*" horiz-adv-x="1024" 
d="M494 1044q-5 71 -28 137q-34 96 -34 135q0 52 24.5 79t60.5 27q31 0 54 -26.5t23 -77.5q0 -20 -8 -53.5t-18.5 -72t-20 -77.5t-12.5 -71q28 17 52.5 38.5t46.5 46.5q34 40 58 63.5t42.5 35.5t34 15t33.5 3q33 0 55.5 -22.5t22.5 -53.5q0 -18 -5.5 -34t-25.5 -31
t-59.5 -29.5t-107.5 -29.5q-77 -17 -128 -39q54 -28 127 -41q62 -11 100.5 -25.5t59.5 -30.5t28.5 -34t7.5 -37q0 -30 -22.5 -52t-52.5 -22q-15 0 -31 4t-35 16t-43.5 34.5t-55.5 60.5q-20 25 -45.5 47.5t-56.5 44.5q1 -55 23 -124q36 -119 36 -161q0 -20 -6.5 -37.5
t-17.5 -30t-24.5 -20t-26.5 -7.5q-15 0 -30.5 5t-28.5 16t-21 29.5t-8 45.5q0 21 7.5 52.5t16.5 62.5t17.5 57t10.5 36q7 28 11 76q-29 -20 -55 -41.5t-48 -45.5q-32 -36 -55.5 -59.5t-42 -37t-34 -18.5t-32.5 -5t-32 6.5t-26 17t-17.5 23.5t-6.5 27q0 25 20 52.5t62 45.5
q14 6 44.5 13.5t78.5 18.5q61 12 121 38q-54 27 -129 42q-123 25 -152 47q-45 33 -45 80q0 13 6 26t16.5 23.5t24 16.5t28.5 6q17 0 34 -4.5t36 -16.5t41.5 -32.5t50.5 -52.5q57 -65 112 -98z" />
    <glyph glyph-name="plus" unicode="+" horiz-adv-x="1696" 
d="M795 269v499h-498v82h498v497h80v-497h500v-82h-500v-499h-80z" />
    <glyph glyph-name="hyphen" unicode="-" horiz-adv-x="1094" 
d="M622 1253v-887h-141v887h141z" />
    <glyph glyph-name="slash" unicode="/" horiz-adv-x="569" 
d="M574 1422l-491 -1450h-80l491 1450h80z" />
    <glyph glyph-name="zero" unicode="0" horiz-adv-x="1024" 
d="M74 670q0 234 70 399q26 62 63 119t83.5 100.5t103 69.5t122.5 26q155 0 280 -159q155 -197 155 -534q0 -80 -7 -153t-23.5 -140t-43.5 -128.5t-68 -118.5q-26 -36 -61.5 -68t-75.5 -56t-83 -37.5t-83 -13.5q-86 0 -162.5 50t-135.5 140q-62 94 -98 222.5t-36 281.5z
M270 645q0 -120 13 -226t40 -188q29 -89 75 -140.5t111 -51.5q27 0 56 11.5t56 37t50 65.5t38 97q23 87 34.5 207t11.5 278q0 232 -48 387q-31 99 -76 147.5t-116 48.5q-81 0 -139 -84.5t-80 -237.5q-13 -90 -19.5 -177t-6.5 -174z" />
    <glyph glyph-name="one" unicode="1" horiz-adv-x="1024" 
d="M240 1223l330 161h33v-1145q0 -59 2 -92.5t7 -51.5t15 -26t25 -15q31 -16 122 -17v-37h-510v37q49 1 78.5 5t46.5 11t25 17t13 22q11 27 11 147v732q0 150 -10 190q-8 32 -26 47t-44 15q-38 0 -103 -31z" />
    <glyph glyph-name="two" unicode="2" horiz-adv-x="1024" 
d="M939 261l-95 -261h-800v37q177 162 301 292.5t196 233.5q144 204 144 373q0 64 -21.5 118.5t-58 93.5t-85.5 61t-103 22q-50 0 -95.5 -14.5t-84 -43.5t-68.5 -72t-49 -100h-37q13 93 46 164t83 120t115 74t143 25q82 0 153 -29t122.5 -78t81 -113.5t29.5 -135.5
q0 -103 -48 -206q-73 -161 -240 -343q-125 -137 -202.5 -218.5t-108.5 -109.5h354q67 0 113 3t78 14.5t55 33t45 59.5h37z" />
    <glyph glyph-name="three" unicode="3" horiz-adv-x="1024" 
d="M104 1098q58 137 146.5 211.5t220.5 74.5q70 0 128 -22.5t100 -60.5t65 -88t23 -104q0 -149 -186 -306q126 -49 189.5 -139.5t63.5 -214.5q0 -103 -38.5 -190t-108.5 -150t-169 -98t-219 -35q-70 0 -115.5 9.5t-72.5 25t-37.5 34.5t-10.5 38q0 29 23.5 51t56.5 22h22
t19.5 -4t31 -13t55.5 -28t58.5 -28.5t39 -14t30.5 -5t34 -0.5q51 0 97 21.5t80.5 58.5t55 85t20.5 101q0 33 -7.5 68t-20 67.5t-29 59.5t-35.5 44q-21 19 -52 38t-67 34t-75 24t-77 9h-32v30q78 10 158 57q81 48 116.5 113.5t35.5 144.5q0 51 -17.5 93.5t-48 73t-71.5 47
t-88 16.5q-156 0 -259 -166z" />
    <glyph glyph-name="four" unicode="4" horiz-adv-x="1024" 
d="M953 500v-142h-182v-358h-165v358h-574v128l629 898h110v-884h182zM606 500v673l-476 -673h476z" />
    <glyph glyph-name="five" unicode="5" horiz-adv-x="1024" 
d="M889 1356l-78 -170h-408l-89 -182q265 -39 420 -197q133 -136 133 -320q0 -105 -44 -198q-43 -91 -109 -155t-147 -103q-114 -55 -236 -55q-62 0 -106.5 11.5t-72.5 30.5t-41 43t-13 48q0 28 23 49.5t58 21.5q13 0 23.5 -1.5t22 -6.5t27 -14.5t39.5 -26.5q74 -52 152 -52
q58 0 111 23.5t93.5 65t65 97t24.5 118.5q0 123 -79 229q-80 107 -218 165q-108 44 -297 52l260 527h486z" />
    <glyph glyph-name="six" unicode="6" horiz-adv-x="1024" 
d="M918 1384v-37q-64 -8 -114.5 -19t-95 -30.5t-85.5 -49.5t-86 -74q-41 -41 -74 -85t-60.5 -95t-49.5 -109.5t-40 -127.5q144 99 289 99q69 0 131 -29.5t109.5 -83t75 -127t27.5 -160.5q0 -91 -32 -177t-89 -153.5t-136 -108.5t-174 -41q-68 0 -126 23t-105.5 63
t-83.5 93.5t-61 115.5t-37.5 128.5t-12.5 132.5q0 183 72.5 346t208.5 291q114 106 232.5 160.5t258.5 54.5h58zM296 684q-18 -135 -18 -218q0 -42 7 -90.5t21.5 -97t36 -93t51 -78.5t67 -54.5t82.5 -20.5q43 0 83.5 21t71.5 61.5t50 99.5t19 134q0 83 -17 159.5t-50 134.5
t-82 92.5t-112 34.5q-21 0 -40 -3t-42 -12.5t-53.5 -26t-74.5 -43.5z" />
    <glyph glyph-name="seven" unicode="7" horiz-adv-x="1024" 
d="M206 1356h727v-38l-452 -1346h-112l405 1221h-373q-59 0 -102 -8.5t-77 -28.5t-61.5 -52.5t-55.5 -79.5l-29 11z" />
    <glyph glyph-name="eight" unicode="8" horiz-adv-x="1024" 
d="M393 683q-162 133 -208 212t-46 166q0 65 27 123.5t75.5 103t117.5 70.5t153 26q81 0 148 -24.5t115 -65t74.5 -93.5t26.5 -109q0 -76 -54 -155q-54 -80 -225 -186q88 -69 146 -122t87 -92q76 -101 76 -215q0 -71 -28.5 -133.5t-80.5 -110t-125 -75t-161 -27.5
q-85 0 -156 27t-122.5 72.5t-80 106t-28.5 127.5q0 89 60 178q31 45 82.5 93.5t126.5 102.5zM550 790q120 108 152 170q32 64 32 142q0 106 -58.5 165t-161.5 59q-51 0 -93 -16t-72.5 -43t-47.5 -63t-17 -75q0 -52 26.5 -103.5t75.5 -99.5zM440 645q-72 -60 -113 -133
q-26 -45 -38 -94.5t-12 -103.5q0 -64 18.5 -116.5t51.5 -89.5t79 -57.5t101 -20.5q54 0 98 16.5t75 45t48 66.5t17 81q0 71 -38 129q-69 105 -287 277z" />
    <glyph glyph-name="nine" unicode="9" horiz-adv-x="1024" 
d="M108 -28v37q76 3 139.5 20t118.5 49.5t104 81t96 114.5q106 147 146 321q-158 -101 -284 -101q-71 0 -134.5 29t-110.5 82t-74.5 127.5t-27.5 165.5t30.5 178.5t86 155.5t133.5 110t173 42q96 0 175.5 -46.5t136.5 -124.5t88.5 -179t31.5 -210q0 -92 -19.5 -180.5
t-56.5 -170.5t-90.5 -155.5t-120.5 -136.5q-52 -47 -107.5 -85t-115.5 -66t-125.5 -43t-135.5 -15h-57zM728 669q18 130 18 208q0 43 -7.5 92.5t-22 99t-36.5 94.5t-51 80t-66 55.5t-81 20.5t-84 -20t-71 -59.5t-49.5 -99.5t-18.5 -139q0 -89 17 -165t49.5 -131.5
t78.5 -87.5t104 -32q22 0 50.5 6t58.5 16.5t59 26t52 35.5z" />
    <glyph glyph-name="colon" unicode=":" horiz-adv-x="1236" 
d="M1086 817q0 -23 -9 -43t-24 -35t-35 -24t-43 -9t-43 9t-35 24t-24 35t-9 43t9 43t24 35t35 24t43 9t43 -9t35 -24t24 -35t9 -43zM337 819q0 -23 -9 -43.5t-24.5 -35.5t-36 -24t-42.5 -9q-23 0 -43 9t-35 24t-24 35.5t-9 43.5t9 43t24 35t35 24t43 9t43.5 -9t35.5 -24
t24 -35t9 -43z" />
    <glyph glyph-name="less" unicode="&#x3c;" horiz-adv-x="1155" 
d="M37 796l1076 466v-87l-926 -402l926 -406v-90l-1076 470v49z" />
    <glyph glyph-name="equal" unicode="=" horiz-adv-x="1511" 
d="M962 1350v-1079h-82v1079h82zM636 1350v-1079h-82v1079h82z" />
    <glyph glyph-name="greater" unicode="&#x3e;" horiz-adv-x="1155" 
d="M1113 753l-1076 -466v86l927 402l-927 406v91l1076 -470v-49z" />
    <glyph glyph-name="at" unicode="@" horiz-adv-x="1886" 
d="M1408 958l-117 -399q-33 -112 -52.5 -183t-26.5 -101q-14 -62 -14 -96q0 -32 21.5 -54t53.5 -22q36 0 81.5 18t93 55.5t93.5 96.5t83 140q73 162 73 342q0 170 -83 316t-233 222q-75 38 -158 58t-174 20q-231 0 -429 -123q-198 -121 -314 -352q-115 -229 -115 -478
q0 -230 101 -418q100 -187 286 -284q184 -97 396 -97q263 0 475 141q214 142 329 412h58q-90 -275 -327 -444q-238 -170 -540 -170q-237 0 -442 113t-317 319q-113 206 -113 454q0 265 124 492q125 230 347 357q112 64 230.5 96.5t244.5 32.5q206 0 373 -86
q168 -86 254 -250q87 -164 87 -349q0 -184 -82 -363q-81 -179 -207 -261q-125 -82 -263 -82q-76 0 -114.5 35.5t-38.5 101.5q0 55 18 147q-150 -180 -237 -232q-89 -53 -157 -53q-35 0 -68 16.5t-58 47t-40 73.5t-15 96q0 146 94 325q95 180 251 293q116 83 206 83
q67 0 111.5 -34.5t60.5 -103.5l33 110zM1057 917q-46 0 -94 -31.5t-93 -85.5t-85.5 -125t-72.5 -150q-59 -145 -59 -232q0 -32 9.5 -58t25.5 -44.5t37 -29t43 -10.5q58 0 121.5 43.5t134.5 135.5q70 91 102 184q56 160 56 259q0 33 -10 59.5t-27 45.5t-39.5 29t-48.5 10z
" />
    <glyph glyph-name="glyph32" horiz-adv-x="1706" 
d="M1515 127l-1443 988v89l1443 -988v-89zM1515 1155q0 -135 -112 -209.5t-257 -74.5q-174 0 -269 84t-95 202q0 79 43.5 145t129.5 105.5t191 39.5t193.5 -40t132 -109.5t43.5 -142.5zM1459 1158q0 51 -60 90.5t-252 39.5q-139 0 -212 -22q-55 -17 -85 -53q-18 -21 -18 -52
q0 -48 52 -82q77 -50 257 -50q190 0 267 49q51 32 51 80zM801 173q0 -71 -45 -141.5t-131 -109t-189 -38.5q-177 0 -270.5 85t-93.5 201q0 73 45 141.5t128.5 108t190.5 39.5q105 0 192 -39.5t130 -108t43 -138.5zM748 172q0 48 -54 83q-70 45 -265 45q-179 0 -250 -46
q-51 -34 -51 -82q0 -46 55 -82q73 -48 251 -48q188 0 263 48q51 33 51 82z" />
    <glyph glyph-name="A" unicode="A" horiz-adv-x="1479" 
d="M937 454h-525l-92 -214q-34 -78 -34 -118q0 -16 5.5 -29.5t22.5 -25t48 -19t81 -11.5v-37h-427v37q84 15 110 39t53.5 72.5t59.5 122.5l477 1116h35l472 -1128q29 -70 53.5 -112.5t50.5 -66t56.5 -32.5t72.5 -11v-37h-535v37q40 2 67 9t42.5 18t22 25t6.5 31
q1 22 -9.5 56.5t-30.5 82.5zM909 528l-230 548l-236 -548h466z" />
    <glyph glyph-name="B" unicode="B" horiz-adv-x="1366" 
d="M946 692q83 -18 141.5 -49t95.5 -73t54 -92.5t17 -106.5q0 -50 -16.5 -99.5t-47.5 -93t-75.5 -79t-100.5 -57.5q-111 -42 -340 -42h-640v37h51q84 0 122 54q23 35 23 149v876q0 125 -29 159q-39 44 -116 44h-51v37h586q164 0 263 -24q75 -18 132.5 -51t96.5 -77t59 -97.5
t20 -112.5q0 -102 -62 -182.5t-183 -119.5zM422 746q76 -14 189 -14q147 0 219 31q37 16 65.5 41t47.5 56t29 67t10 75q0 58 -24.5 110.5t-72.5 91.5t-119 62t-164 23q-102 0 -180 -22v-521zM422 98q115 -27 229 -27q91 0 160.5 22t116.5 60.5t70.5 90t23.5 110.5
q0 65 -25.5 121.5t-78 98t-132 65.5t-187.5 24q-63 0 -106.5 -2t-70.5 -7v-556z" />
    <glyph glyph-name="C" unicode="C" horiz-adv-x="1366" 
d="M1233 1387l31 -461h-31q-31 103 -75.5 177t-101.5 121t-126 69t-150 22q-136 0 -241 -66.5t-167 -204.5q-34 -76 -52 -172.5t-18 -216.5q0 -183 59 -319q30 -69 75.5 -121t103.5 -87t126.5 -53t142.5 -18q84 0 145 17t111 52t96.5 88t102.5 124l31 -20q-51 -90 -110 -156
t-128 -109t-149.5 -63.5t-173.5 -20.5q-338 0 -522 250q-138 186 -138 438q0 121 33 234.5t102 209.5q48 68 109.5 121.5t133 90t150.5 55.5t162 19q147 0 290 -72q44 -23 60 -22q32 0 53.5 26.5t30.5 67.5h35z" />
    <glyph glyph-name="D" unicode="D" horiz-adv-x="1479" 
d="M35 0v37h51q85 0 122 55q22 32 22 148v876q0 128 -28 159q-39 44 -116 44h-51v37h552q304 0 462 -69q159 -69 255 -230q97 -160 97 -372q0 -150 -48.5 -276t-144 -216.5t-238 -141.5t-329.5 -51h-606zM422 98q125 -28 213 -28q115 0 213.5 42.5t170.5 121t113 190.5
t41 251q0 140 -40.5 252t-113 190.5t-173 120.5t-219.5 42q-45 0 -96 -7.5t-109 -21.5v-1153z" />
    <glyph glyph-name="E" unicode="E" horiz-adv-x="1251" 
d="M428 1282v-536h298q65 0 105.5 11.5t63.5 36t32 61.5t12 88h37v-472h-37q-7 50 -14 81.5t-14 45.5q-9 18 -23 31.5t-36 23.5t-53 15t-73 5h-298v-447q0 -89 8 -110q4 -9 10 -17t17.5 -13.5t30 -8.5t46.5 -3h230q59 0 98.5 3.5t69 12t52 24t47.5 39.5q31 30 63 77t64 110
h40l-117 -340h-1045v37h48q19 0 40 4t39.5 13t33.5 22.5t21 31.5q12 31 12 131v881q0 128 -26 159q-36 40 -120 40h-48v37h1045v-297h-24q-11 54 -22 89t-25 58t-32 36.5t-43 24.5q-41 15 -141 15h-372z" />
    <glyph glyph-name="F" unicode="F" horiz-adv-x="1139" 
d="M419 1282v-533h247q43 0 73.5 8t51.5 29t33 57t19 92h37v-459h-37q-1 51 -10 87t-29 59t-53.5 33.5t-84.5 10.5h-247v-426q0 -48 2 -78t7.5 -49t16.5 -30.5t29 -21.5q43 -24 92 -24h49v-37h-582v37h48q85 0 122 49q24 31 24 154v876q0 48 -2 78t-7.5 49.5t-16 30.5
t-28.5 21q-44 24 -92 24h-48v37h1009v-298h-22q-20 73 -44.5 117t-60 68t-83.5 31.5t-114 7.5h-299z" />
    <glyph glyph-name="G" unicode="G" horiz-adv-x="1479" 
d="M1257 1387l35 -428h-35q-52 159 -137 241q-122 117 -311 117q-259 0 -394 -205q-113 -173 -113 -412q0 -194 75 -354q33 -71 79 -128t103 -97t123.5 -62t140.5 -22q75 0 144.5 19t135.5 56v392q0 52 -4 83.5t-11.5 50.5t-20 29t-28.5 18q-32 17 -114 17v38h525v-38h-25
q-34 0 -58 -7.5t-39.5 -28.5t-22.5 -60t-7 -102v-415q-60 -32 -116 -54.5t-113.5 -37t-118 -21.5t-128.5 -7q-393 0 -597 252q-153 189 -153 436q0 69 14 138.5t40 135.5t64 126.5t85 111.5q100 112 228.5 165t286.5 53q47 0 82 -3.5t68 -11t69.5 -20t86.5 -30.5
q55 -21 75 -21q19 0 32.5 17.5t16.5 68.5h37z" />
    <glyph glyph-name="H" unicode="H" horiz-adv-x="1479" 
d="M421 727h630v388q0 48 -2 78t-7.5 49.5t-16.5 31t-29 21.5q-44 24 -91 24h-48v37h581l-1 -37h-48q-19 0 -40 -4t-40 -13t-33.5 -22.5t-21.5 -32.5q-11 -33 -11 -132v-875q0 -48 2 -78t7.5 -49.5t16 -30.5t28.5 -21q43 -24 92 -24h48v-37h-580v37h48q82 0 121 49
q25 31 25 154v413h-630v-413q0 -48 2 -78t7.5 -49t16.5 -30.5t29 -21.5q43 -24 91 -24h49v-37h-581v37h48q85 0 122 49q24 31 24 154v875q0 48 -2 78t-7.5 49.5t-16 31t-28.5 21.5q-44 24 -92 24h-48v37h581v-37h-49q-20 0 -40.5 -4t-39 -13t-33 -22.5t-21.5 -32.5
q-12 -32 -12 -132v-388z" />
    <glyph glyph-name="I" unicode="I" horiz-adv-x="682" 
d="M632 37v-37h-581v37h48q85 0 122 49q24 31 24 154v876q0 48 -2 78t-7.5 49.5t-16 30.5t-28.5 21q-44 24 -92 24h-48v37h581v-37h-49q-84 0 -121 -49q-25 -31 -25 -154v-876q0 -48 2 -78t7.5 -49t16.5 -30.5t29 -21.5q43 -24 91 -24h49z" />
    <glyph glyph-name="J" unicode="J" horiz-adv-x="797" 
d="M204 1319v37h581v-37h-49q-84 0 -121 -49q-24 -32 -24 -154v-663q0 -155 -34 -248q-17 -47 -46 -89.5t-68.5 -75t-90 -52t-108.5 -19.5q-47 0 -84.5 13t-63.5 34t-40 48.5t-14 57.5q0 28 9 48t23.5 33t33 18.5t36.5 5.5q15 0 28.5 -3t28 -16.5t30 -40t35.5 -73.5
q22 -54 59 -54q13 0 26.5 7.5t24 25.5t17 46.5t6.5 70.5v926q0 48 -2 78t-7.5 49t-16.5 30.5t-29 21.5q-44 24 -91 24h-49z" />
    <glyph glyph-name="K" unicode="K" horiz-adv-x="1479" 
d="M612 752l500 -497q123 -123 210 -168q88 -44 174 -50v-37h-645v37q58 0 83.5 19.5t25.5 43.5q0 12 -1 21.5t-7.5 20.5t-21 28t-42.5 44l-468 463v-437q0 -48 2 -78t7.5 -49t16.5 -30.5t29 -21.5q43 -24 91 -24h46v-37h-578v37h48q85 0 122 49q24 31 24 154v876
q0 46 -1.5 76t-7.5 49.5t-16.5 31.5t-28.5 22q-44 24 -92 24h-48v37h578v-37h-46q-19 0 -39.5 -4t-39 -12.5t-33.5 -22t-22 -32.5q-12 -32 -12 -132v-415q39 32 89 78t102.5 97t104 102t93.5 94.5t70.5 75.5t36.5 43q27 40 27 70q0 23 -20.5 40.5t-71.5 17.5h-31v37h498v-37
q-44 -2 -80 -12q-18 -6 -40 -16t-48.5 -27t-58 -41.5t-69.5 -59.5z" />
    <glyph glyph-name="L" unicode="L" horiz-adv-x="1251" 
d="M1174 375l33 -7l-116 -368h-1050v37h51q85 0 123 56q21 31 21 148v875q0 128 -28 159q-39 44 -116 44h-51v37h614v-37q-55 0 -91.5 -5t-60 -15t-37 -23.5t-22.5 -29.5q-16 -31 -16 -153v-852q0 -35 2.5 -60t8.5 -41.5t16 -27t26 -16.5q24 -10 156 -10h99q155 0 219 23
q32 11 60 30t54.5 50.5t52 76.5t52.5 109z" />
    <glyph glyph-name="M" unicode="M" horiz-adv-x="1821" 
d="M838 0l-524 1141v-906q0 -125 27 -156q37 -42 117 -42h48v-37h-472v37h48q86 0 122 52q22 31 22 146v886q0 88 -20 130q-7 15 -19 27.5t-32.5 21.5t-49.5 14t-71 5v37h384l492 -1061l484 1061h384v-37h-47q-87 0 -123 -52q-22 -31 -22 -146v-886q0 -125 28 -156
q37 -42 117 -42h47v-37h-576v37h48q86 0 122 52q22 31 22 146v906l-523 -1141h-33z" />
    <glyph glyph-name="N" unicode="N" horiz-adv-x="1479" 
d="M-27 1356h368l829 -1017v782q0 125 -28 156q-38 42 -117 42h-47v37h472v-37h-48q-86 0 -122 -52q-22 -31 -22 -146v-1143h-36l-894 1092v-835q0 -125 27 -156q37 -42 117 -42h48v-37h-472v37h47q87 0 123 52q22 31 22 146v943q-30 35 -50 56t-38 34.5t-39 22t-52 19.5
q-29 9 -88 9v37z" />
    <glyph glyph-name="O" unicode="O" horiz-adv-x="1479" 
d="M749 1387q263 0 457 -201q194 -200 194 -500q0 -309 -195 -513t-472 -204q-281 0 -471 199t-190 515q0 323 220 527q191 177 457 177zM730 1314q-103 0 -183 -44t-134.5 -125.5t-83 -197.5t-28.5 -260q0 -143 28 -262t82.5 -204.5t134.5 -133t185 -47.5q94 0 174.5 36
t139.5 111.5t92.5 192.5t33.5 279q0 155 -27.5 276.5t-83 205.5t-138 128.5t-192.5 44.5z" />
    <glyph glyph-name="P" unicode="P" horiz-adv-x="1139" 
d="M420 635v-395q0 -128 28 -159q38 -44 115 -44h52v-37h-581v37h51q42 0 73.5 14t49.5 42q20 32 20 147v876q0 127 -27 159q-39 44 -116 44h-51v37h497q181 0 287 -38q52 -19 97 -51t79 -75.5t53.5 -96.5t19.5 -114q0 -83 -28 -151.5t-81.5 -118t-131.5 -77t-178 -27.5
t-228 28zM420 692q54 -10 94.5 -15t69.5 -5q52 0 98.5 21.5t81 60t55 91.5t20.5 116q0 74 -22 132.5t-61 99t-91.5 61.5t-113.5 21q-26 0 -58.5 -4.5t-72.5 -14.5v-564z" />
    <glyph glyph-name="Q" unicode="Q" horiz-adv-x="1479" 
d="M902 -15q103 -178 220 -259q119 -83 270 -95v-32q-136 4 -295 56q-155 49 -298 140q-138 88 -242 190q-144 58 -228 123q-124 97 -190.5 238t-66.5 335q0 303 197 505q196 201 477 201q267 0 460 -202q97 -102 146 -227.5t49 -280.5q0 -250 -139 -437
q-138 -188 -360 -255zM734 1310q-103 0 -183.5 -42t-136 -122.5t-84.5 -197.5t-29 -267q0 -142 28 -260t82.5 -203.5t135.5 -133t187 -47.5q103 0 184 41.5t137.5 120.5t86.5 193.5t30 259.5q0 162 -31.5 285t-89.5 206t-138.5 125t-178.5 42z" />
    <glyph glyph-name="R" unicode="R" horiz-adv-x="1366" 
d="M1384 0h-362l-459 634q-26 -1 -46.5 -1.5t-36.5 -0.5q-13 0 -28 0.5t-31 1.5v-394q0 -128 28 -159q38 -44 114 -44h53v-37h-581v37h51q85 0 123 56q21 31 21 147v876q0 128 -28 159q-39 44 -116 44h-51v37h494q214 0 318 -32q51 -15 95.5 -45t78 -71t53 -92t19.5 -109
q0 -63 -20 -117.5t-61.5 -99.5t-104.5 -78t-148 -52l280 -389q97 -135 165 -178q70 -44 180 -56v-37zM421 697q19 0 33 -0.5t23 -0.5q97 0 170.5 22.5t122.5 62.5t73.5 94.5t24.5 118.5q0 63 -21 115.5t-59.5 90.5t-92 59t-117.5 21q-29 0 -68 -4.5t-89 -14.5v-564z" />
    <glyph glyph-name="S" unicode="S" horiz-adv-x="1139" 
d="M939 1387v-469h-37q-18 135 -65 215q-23 40 -57.5 72t-75 54.5t-86 35t-91.5 12.5q-51 0 -95 -17.5t-76.5 -46.5t-50.5 -66.5t-18 -77.5q0 -56 26 -97.5t71.5 -76.5t107 -68t133.5 -71q81 -43 154 -84t128.5 -90.5t88.5 -113t33 -152.5q0 -76 -31.5 -144.5t-88 -120
t-135 -82t-172.5 -30.5q-35 0 -60 1t-48 4.5t-47.5 11t-58.5 20.5q-24 9 -49 16.5t-46 12.5t-35.5 8t-18.5 3q-25 0 -39.5 -15t-21.5 -62h-37v465h37q13 -73 30.5 -127.5t39.5 -91.5q22 -36 57 -67t78.5 -53.5t94 -35t103.5 -12.5q63 0 113 18t85 48.5t53.5 71t18.5 84.5
q0 65 -27 109.5t-72.5 79.5t-106 67t-127.5 72q-76 45 -146.5 85.5t-124.5 89t-86.5 110.5t-32.5 148q0 72 30 137t83 114t125.5 77.5t158.5 28.5q106 0 229 -53q54 -25 79 -25q26 0 42.5 15.5t26.5 62.5h37z" />
    <glyph glyph-name="T" unicode="T" horiz-adv-x="1251" 
d="M1185 1356v-318h-23q-8 64 -26.5 108.5t-48.5 72t-73 40t-100 12.5h-191v-1036q0 -125 27 -156q37 -42 117 -42h47v-37h-575v37h48q86 0 122 52q22 31 22 146v1036h-163q-62 0 -108 -9t-78 -34t-52 -71t-30 -119h-38v318h1123z" />
    <glyph glyph-name="U" unicode="U" horiz-adv-x="1479" 
d="M977 1319v37h480v-37h-51q-80 0 -123 -67q-21 -32 -21 -144v-550q0 -203 -41 -317q-26 -73 -74 -124.5t-111 -84.5t-138.5 -48.5t-157.5 -15.5q-221 0 -337 77q-73 48 -112.5 101.5t-58 118t-21.5 143t-3 178.5v530q0 63 -8.5 103t-26.5 62t-45.5 30t-65.5 8h-51v37h586
v-37h-52q-48 0 -77 -13.5t-44 -39.5t-19.5 -64t-4.5 -86v-591q0 -50 3 -99t12 -94.5t24.5 -86t40.5 -74.5q39 -54 104.5 -85.5t167.5 -31.5q66 0 126.5 15.5t111 43t87.5 65t56 82.5q39 91 39 307v549q0 128 -28 159q-39 44 -116 44h-51z" />
    <glyph glyph-name="V" unicode="V" horiz-adv-x="1479" 
d="M1454 1356v-37q-43 -8 -73.5 -23t-53.5 -39t-40.5 -57.5t-35.5 -76.5l-473 -1154h-37l-508 1169q-40 92 -55 110q-25 31 -61 48.5t-99 22.5v37h554v-37q-48 -5 -77.5 -13t-45.5 -19.5t-21.5 -26t-5.5 -32.5q0 -51 46 -156l345 -795l320 785q47 117 47 161
q0 31 -32.5 58.5t-111.5 37.5v37h418z" />
    <glyph glyph-name="W" unicode="W" horiz-adv-x="1933" 
d="M1917 1356v-37q-27 0 -48 -4.5t-38.5 -15t-32.5 -27.5t-30 -43q-19 -34 -63 -167l-378 -1093h-40l-309 867l-307 -867h-36l-403 1126q-46 128 -57 149q-20 38 -54 56.5t-94 18.5v37h502v-37h-24q-54 0 -81.5 -24t-27.5 -58q0 -17 10.5 -57.5t33.5 -103.5l267 -761
l225 647l-72 205q-16 37 -32.5 65t-38 47.5t-50 29.5t-68.5 10v37h528v-37h-36q-57 0 -82.5 -23.5t-25.5 -65.5q0 -51 45 -178l260 -737l258 747q44 126 44 172q0 47 -42 66t-108 19v37h405z" />
    <glyph glyph-name="X" unicode="X" horiz-adv-x="1479" 
d="M836 751l291 -434q61 -91 105.5 -147.5t73.5 -80.5q58 -47 149 -52v-37h-582v37q69 2 101.5 21t32.5 56q0 13 0.5 20.5t-5 19.5t-19 33t-40.5 61l-230 348l-284 -364q-24 -30 -36.5 -48t-18.5 -30t-7 -20.5t-1 -19.5q0 -16 6 -29.5t21 -23.5t40 -16.5t63 -7.5v-37h-481
v37q63 5 111.5 30t94.5 61q57 45 128 135l320 404l-267 391q-110 159 -185 208q-77 50 -175 53v37h627v-37q-40 -2 -67 -9t-43 -17.5t-22.5 -23.5t-6.5 -27q0 -38 48 -108l208 -311l241 305q22 28 34.5 45t18.5 29t7 21t1 20q0 23 -15 41t-35 25q-11 4 -35 6.5t-60 3.5v37
h481v-37q-34 -2 -61 -8.5t-49.5 -16.5t-42.5 -24t-39 -31q-43 -38 -127 -144z" />
    <glyph glyph-name="Y" unicode="Y" horiz-adv-x="1479" 
d="M976 1356h473v-37h-26q-12 0 -32.5 -6t-43.5 -17t-47 -28t-44 -38q-21 -22 -45.5 -57t-55.5 -83l-327 -515v-340q0 -125 28 -156q37 -42 120 -42h44v-37h-576v37h48q86 0 122 52q22 31 22 146v321l-372 568q-33 51 -55.5 81.5t-34.5 43.5q-6 6 -20 17.5t-35 23.5
t-46.5 20.5t-53.5 8.5v37h580v-37h-30q-22 0 -44.5 -5t-40.5 -16t-29.5 -27.5t-11.5 -39.5q0 -36 61 -130l283 -437l266 418q60 94 60 140q-2 21 -9 39t-22 31t-41 20t-65 7v37z" />
    <glyph glyph-name="Z" unicode="Z" horiz-adv-x="1251" 
d="M1178 1356l-891 -1274h556q128 0 196 56q69 56 122 227l33 -6l-64 -359h-1104v37l870 1238h-434q-54 0 -91.5 -6t-64.5 -17.5t-44.5 -28.5t-30.5 -40q-25 -42 -46 -166h-38l28 339h1003z" />
    <glyph glyph-name="bracketleft" unicode="[" horiz-adv-x="682" 
d="M608 -406h-440v1793h440v-79h-290v-1636h290v-78z" />
    <glyph glyph-name="backslash" unicode="\" horiz-adv-x="569" 
d="M83 1422l490 -1450h-80l-490 1450h80z" />
    <glyph glyph-name="bracketright" unicode="]" horiz-adv-x="682" 
d="M75 1387h440v-1794h-440v79h290v1636h-290v79z" />
    <glyph glyph-name="asciicircum" unicode="^" horiz-adv-x="961" 
d="M498 1384l425 -717h-92l-350 586l-350 -586h-94l431 717h30z" />
    <glyph glyph-name="underscore" unicode="_" horiz-adv-x="1024" 
d="M1042 -442h-1059v84h1059v-84z" />
    <glyph glyph-name="grave" unicode="`" horiz-adv-x="682" 
d="M118 1390h223l106 -345h-35z" />
    <glyph glyph-name="a" unicode="a" horiz-adv-x="909" 
d="M583 132q-141 -110 -177 -126q-53 -25 -115 -25q-47 0 -87 17t-69 48t-45.5 74.5t-16.5 96.5q0 39 10.5 72t31.5 62.5t53.5 56.5t76.5 53q103 61 338 146v36q0 69 -11.5 115t-33 73.5t-53.5 39t-72 11.5q-32 0 -57.5 -9.5t-43.5 -25t-27.5 -36t-9.5 -41.5l2 -58
q0 -46 -23.5 -71t-61.5 -25q-37 0 -60.5 26t-23.5 71q0 42 22.5 83t65 74t105 53t142.5 20q106 0 180 -31t107 -107q18 -44 18 -176v-311q0 -66 1.5 -106t3.5 -55q5 -29 16.5 -39t26.5 -10q10 0 19 3t21 12t28 24.5t41 40.5v-56q-113 -150 -214 -150q-48 0 -78 34t-30 116z
M583 197v349q-76 -30 -124.5 -51t-70.5 -34q-79 -45 -113 -92.5t-34 -104.5q0 -36 11.5 -66.5t31 -53t45.5 -35t54 -12.5q76 0 200 100z" />
    <glyph glyph-name="b" unicode="b" horiz-adv-x="1024" 
d="M315 758q134 185 287 185q69 0 132.5 -31t112 -89.5t77.5 -141.5t29 -188q0 -245 -162 -393q-140 -128 -310 -128q-158 0 -331 116v949q0 154 -8 192q-7 36 -23 49t-40 13q-29 0 -70 -16l-14 35l275 112h45v-664zM315 694v-548q103 -101 217 -101q45 0 89 25.5t79.5 75
t57.5 122.5t22 168q0 87 -21.5 155t-57.5 114.5t-82.5 71t-95.5 24.5q-24 0 -47 -4t-47 -15.5t-52 -32.5t-62 -55z" />
    <glyph glyph-name="c" unicode="c" horiz-adv-x="909" 
d="M842 348q-19 -91 -57 -161t-89 -118t-112 -72.5t-126 -24.5q-77 0 -147 34t-123.5 97t-85.5 152.5t-32 201.5q0 108 35 197.5t94.5 153.5t139 99.5t168.5 35.5q67 0 123.5 -20t97.5 -52t64.5 -71t23.5 -77t-24 -61.5t-69 -23.5q-23 0 -42.5 5t-34 18t-23.5 36t-12 59
q-5 59 -39.5 89.5t-97.5 30.5q-59 0 -104 -26.5t-76 -72t-46.5 -106t-15.5 -128.5q0 -80 20.5 -154.5t59 -132.5t93.5 -93t125 -35q42 0 80 10.5t73 36.5t67.5 71.5t62.5 115.5z" />
    <glyph glyph-name="d" unicode="d" horiz-adv-x="1024" 
d="M711 103q-67 -70 -130.5 -100.5t-138.5 -30.5t-142.5 33.5t-119 93t-82 141.5t-30.5 180q0 197 124 360q125 164 319 164q120 0 200 -77v300q0 18 1.5 39.5t-3.5 40.5t-20 31.5t-49 12.5q-27 0 -69 -16l-13 35l273 112h45v-1059q0 -163 7 -197q8 -35 24.5 -49t38.5 -14
q26 0 72 17l11 -35l-272 -113h-46v131zM711 173v472q-5 57 -25.5 101t-50 74.5t-65 46t-71.5 15.5q-53 0 -98 -27.5t-78.5 -78t-52.5 -121t-19 -156.5q0 -101 24.5 -179t64.5 -131t91 -80t104 -27q91 0 176 91z" />
    <glyph glyph-name="e" unicode="e" horiz-adv-x="909" 
d="M218 571q0 -102 27 -183t73 -137.5t106.5 -86t127.5 -29.5q90 0 156.5 49.5t111.5 169.5l31 -20q-11 -67 -42 -132t-79.5 -116t-113 -82.5t-140.5 -31.5q-82 0 -154.5 33.5t-127 95t-86.5 149t-32 196.5q0 119 32.5 211.5t89.5 156.5t134.5 97t166.5 33q76 0 140.5 -26.5
t111.5 -75.5t73.5 -117.5t26.5 -153.5h-633zM218 629h424q-4 88 -21 124q-25 56 -74.5 88t-103.5 32q-41 0 -79 -16.5t-69 -48t-51.5 -76.5t-25.5 -103z" />
    <glyph glyph-name="f" unicode="f" horiz-adv-x="682" 
d="M422 844v-602q0 -128 28 -162q38 -44 99 -44h83v-36h-547v36h41q40 0 72.5 19.5t45.5 54.5q13 33 13 132v602h-178v72h178v60q0 136 44 232q22 47 56.5 86t78.5 67t95.5 43.5t107.5 15.5q39 0 83 -13t81.5 -35.5t62 -53.5t24.5 -67q0 -15 -7 -29.5t-18.5 -26.5
t-26.5 -19.5t-30 -7.5q-12 0 -23.5 3t-24.5 12.5t-28.5 26.5t-34.5 45t-35.5 46t-33 28.5t-33 14.5t-35.5 4q-46 0 -78 -24.5t-46 -76.5q-14 -53 -14 -265v-66h236v-72h-236z" />
    <glyph glyph-name="g" unicode="g" horiz-adv-x="1024" 
d="M309 334q-85 42 -129.5 114.5t-44.5 162.5q0 68 27 128.5t76 105.5t115.5 71.5t146.5 26.5q132 0 227 -64h194q22 0 33.5 -0.5t17 -2t6.5 -3.5t3 -5q6 -9 6 -32q0 -15 -0.5 -24.5t-6 -14.5t-19 -6.5t-40.5 -1.5h-119q56 -73 56 -184q0 -63 -25.5 -119.5t-72.5 -98.5
t-114 -67t-149 -25q-67 0 -139 20q-45 -38 -60 -66.5t-15 -48.5q0 -15 6 -26t28.5 -18.5t66.5 -12t120 -6.5q103 -3 169.5 -6t97.5 -8q46 -6 84 -24t64.5 -45t41 -62t14.5 -76q0 -113 -106 -212q-157 -146 -407 -146q-69 0 -140 15t-129 40.5t-95 60.5t-37 75q0 15 4.5 30.5
t14 33t25 38.5t37.5 49q7 9 102 108q-52 31 -73.5 55.5t-21.5 55.5q0 18 5 37.5t22 44.5t48.5 57t84.5 76zM483 895q-36 0 -68 -14.5t-55.5 -44t-37 -75t-13.5 -106.5q0 -68 13.5 -125t39.5 -98.5t63 -64.5t84 -23q38 0 70 14t55 43t36 73.5t13 105.5q0 67 -13.5 124.5
t-39 100t-62.5 66.5t-85 24zM299 0q-95 -103 -95 -176q0 -33 27.5 -60t74.5 -46t110.5 -29.5t134.5 -10.5q90 0 156.5 18t109.5 46.5t64 64t21 70.5q0 26 -11 44t-39.5 29.5t-78.5 18t-128 8.5q-113 3 -199 9t-147 14z" />
    <glyph glyph-name="h" unicode="h" horiz-adv-x="1024" 
d="M333 1422v-670q32 31 63.5 65t67.5 62t78.5 46t96.5 18q73 0 119 -31.5t72 -84t35.5 -119.5t9.5 -138v-363q0 -46 1.5 -77.5t14 -51t40 -29.5t80.5 -13v-36h-450v36h21q45 0 70 8t38 27.5t16 52.5t3 83v363q0 43 -1.5 87.5t-14.5 81t-43.5 60t-87.5 23.5q-25 0 -50 -5.5
t-52.5 -20t-58.5 -40t-68 -65.5v-484q0 -49 2 -76.5t7.5 -42.5t15 -22t24.5 -15q14 -8 39 -11.5t60 -3.5v-36h-454v36q38 0 64.5 4.5t43.5 21.5t24.5 51.5t7.5 93.5v829q0 155 -8 193q-7 36 -22.5 49t-41.5 13q-23 0 -68 -16l-14 35l274 112h46z" />
    <glyph glyph-name="i" unicode="i" horiz-adv-x="569" 
d="M297 1422q21 0 39.5 -8t32 -21.5t21.5 -32t8 -39.5t-8 -39.5t-21.5 -32.5t-32 -22t-39.5 -8t-39.5 8t-32.5 22t-22 32.5t-8 39.5t8 39.5t21.5 32t32.5 21.5t40 8zM380 943v-736q0 -44 3 -71.5t9 -44.5t15.5 -25.5t21.5 -15.5q26 -14 90 -14v-36h-445v36q34 0 55.5 3
t35 10t21 17.5t14.5 25.5q14 31 14 115v353q0 87 -3 137t-10.5 75t-22 31.5t-36.5 6.5q-28 0 -68 -15l-14 36l276 112h44z" />
    <glyph glyph-name="j" unicode="j" horiz-adv-x="569" 
d="M296 1423q21 0 40 -8t33 -22t22 -33t8 -40t-8 -39.5t-22 -32.5t-33 -22t-40 -8t-39.5 8t-32.5 22t-22 32.5t-8 39.5t8 40t22 33t32.5 22t39.5 8zM382 943v-922q0 -119 -26.5 -206t-74.5 -144t-114 -85t-145 -28q-47 0 -80.5 9.5t-55.5 24t-32.5 32.5t-10.5 35
q0 18 6.5 33.5t18 27t26 18t31.5 6.5q12 0 21.5 -0.5t21.5 -6t29.5 -18.5t45.5 -38q49 -44 82 -44q23 0 46.5 18t34.5 63q5 22 8 68.5t3 119.5v652q0 89 -3 139.5t-11 75.5t-22 31t-36 6q-28 0 -68 -15l-14 36l276 112h43z" />
    <glyph glyph-name="k" unicode="k" horiz-adv-x="1024" 
d="M335 1422v-909l233 210q32 29 51 47t28.5 29.5t12 18.5t2.5 15q0 20 -16.5 34.5t-54.5 16.5v32h398v-32q-42 -1 -74.5 -6.5t-62 -17.5t-58 -32.5t-61.5 -50.5l-235 -217l235 -297q97 -123 132 -156q22 -22 38.5 -35.5t34 -21.5t40 -11t58.5 -3v-36h-445v36
q38 1 51.5 11.5t13.5 29.5q0 24 -40 74l-281 356v-301q0 -46 3 -74t9 -44.5t15 -24.5t21 -14q21 -11 100 -13v-36h-466v36q47 0 76.5 6t46.5 23.5t23 50t6 85.5v834q0 80 -1.5 128.5t-5.5 65.5q-8 36 -23.5 49.5t-41.5 13.5q-20 0 -63 -17l-17 35l272 112h46z" />
    <glyph glyph-name="l" unicode="l" horiz-adv-x="569" 
d="M379 1422v-1215q0 -44 3 -71.5t9 -44t15.5 -25.5t23.5 -16q24 -14 97 -14v-36h-449v36q45 0 71.5 7t41 26t18.5 52t4 86v832q0 78 -1.5 125.5t-5.5 64.5q-8 36 -23 49t-39 13q-27 0 -66 -16l-17 35l273 112h45z" />
    <glyph glyph-name="m" unicode="m" horiz-adv-x="1593" 
d="M336 748q100 100 118 115q45 38 97 59t103 21q87 0 148.5 -49.5t82.5 -145.5q103 119 174 157t146 38q50 0 94 -17t76.5 -56.5t51.5 -105.5t19 -163v-394q0 -45 2.5 -77.5t15.5 -53.5t41 -30.5t79 -9.5v-36h-452v36h19q50 0 81 16t44 58q4 15 4 97v394q0 66 -10 108.5
t-29.5 68t-47.5 35.5t-65 10q-27 0 -52.5 -6t-53.5 -21t-60.5 -39.5t-71.5 -61.5l2 -488q0 -49 2 -76.5t7.5 -42t15.5 -21.5t25 -16q14 -8 39 -11.5t60 -3.5v-36h-463v36q54 0 84.5 7.5t44.5 27t17 52.5t3 84v394q0 64 -11.5 107t-32.5 69t-49.5 37.5t-62.5 11.5
q-33 0 -68 -12.5t-66.5 -31t-57.5 -41t-43 -43.5v-491q0 -47 3 -74.5t9 -44t15.5 -24.5t21.5 -15q25 -13 100 -13v-36h-453v36q46 0 73.5 7t42 25.5t19 52t4.5 86.5v350q0 89 -3 139.5t-11 76t-22 31.5t-36 6q-28 0 -67 -15l-15 36l276 112h43v-195z" />
    <glyph glyph-name="n" unicode="n" horiz-adv-x="1024" 
d="M331 749q161 194 307 194q51 0 94 -17t75 -57t50 -106t18 -165v-391q0 -59 6.5 -93t22.5 -51.5t43 -22t68 -4.5v-36h-453v36h19q45 0 70.5 8t38.5 27.5t16.5 52.5t3.5 83v375q0 125 -32.5 181.5t-109.5 56.5q-119 0 -237 -130v-483q0 -91 11 -115q7 -15 15.5 -26
t23 -17.5t38 -9.5t61.5 -3v-36h-453v36h20q36 0 59 8t36.5 28t18.5 52.5t5 82.5v340q0 163 -8 201q-7 36 -22.5 49t-41.5 13q-28 0 -67 -15l-15 36l276 112h43v-194z" />
    <glyph glyph-name="o" unicode="o" horiz-adv-x="1024" 
d="M512 943q97 0 178 -38t139.5 -102t91 -149t32.5 -179q0 -99 -33.5 -189.5t-93.5 -160.5t-143 -111.5t-182 -41.5q-97 0 -176.5 40t-136.5 106.5t-88 152.5t-31 178q0 93 32 182t90.5 158.5t140 111.5t180.5 42zM481 878q-44 0 -84.5 -18.5t-72 -60t-50.5 -107t-19 -159.5
q0 -97 20.5 -186t58 -156.5t91 -107.5t119.5 -40q48 0 88.5 18.5t70.5 60t47 109.5t17 167t-19 186t-55.5 152.5t-90 103.5t-121.5 38z" />
    <glyph glyph-name="p" unicode="p" horiz-adv-x="1024" 
d="M-2 825l282 114h38v-214q36 60 71.5 102t71.5 67.5t73.5 37t76.5 11.5q78 0 141.5 -36t108 -97.5t69 -143.5t24.5 -175q0 -104 -29.5 -198.5t-84 -165.5t-131.5 -113t-173 -42q-33 0 -61 3t-53.5 12t-50.5 24.5t-53 41.5v-279q0 -49 2.5 -77.5t8.5 -44t16 -23.5t24 -15
q28 -15 104 -15v-37h-480v37h25q40 0 74 11t49 46q11 25 11 124v866q0 53 -3.5 84.5t-12.5 48.5t-25 22.5t-40 5.5q-22 0 -61 -14zM318 666v-342q0 -112 9 -146q7 -29 24.5 -55.5t44.5 -46.5t61.5 -32t75.5 -12q58 0 103.5 27.5t76.5 76t47 115.5t16 146q0 86 -17.5 159.5
t-49.5 127t-77 84t-100 30.5q-25 0 -48 -8t-48 -24.5t-53.5 -41.5t-64.5 -58z" />
    <glyph glyph-name="q" unicode="q" horiz-adv-x="1024" 
d="M875 943v-1178q0 -45 3 -72t9 -42.5t15 -23t22 -14.5q26 -14 100 -14v-37h-462v37h19q34 0 58.5 4.5t40.5 21t23 50t7 90.5v394q-91 -107 -159 -148q-68 -39 -141 -39q-66 0 -127.5 31.5t-109 89.5t-76.5 140t-29 184q0 116 37.5 213t101.5 166.5t150 108t182 38.5
q115 0 191 -64q29 14 57 30t54 34h34zM710 222v430q0 48 -11.5 88.5t-36 70t-63 46t-91.5 16.5q-55 0 -104.5 -23.5t-86.5 -71t-59 -119.5t-22 -169q0 -93 22 -164t60 -118t88.5 -71t107.5 -24q60 0 105.5 25.5t90.5 83.5z" />
    <glyph glyph-name="r" unicode="r" horiz-adv-x="682" 
d="M332 943v-206q116 206 236 206q27 0 50 -9t40.5 -24.5t27 -35.5t9.5 -42q0 -39 -26 -66t-62 -27q-17 0 -38 11t-41.5 23.5t-37.5 23.5t-26 11q-13 0 -29 -11.5t-33 -32t-35 -49t-35 -62.5v-439q0 -41 5 -74t21.5 -56t48.5 -35.5t85 -12.5v-36h-469v36q44 0 72 6t44 24
t22 51.5t6 88.5v355q0 162 -7 190q-13 59 -67 59q-31 0 -70 -15l-10 36l277 112h42z" />
    <glyph glyph-name="s" unicode="s" horiz-adv-x="797" 
d="M656 943v-312h-33q-19 74 -43 122.5t-54.5 77.5t-68 41t-83.5 12q-35 0 -63.5 -10.5t-49 -27t-32 -38t-11.5 -43.5q0 -28 8 -52t33.5 -49.5t73 -54.5t127.5 -68q74 -36 124.5 -71t82 -70t45 -72.5t13.5 -77.5q0 -63 -26.5 -114.5t-69.5 -87.5t-98 -56t-112 -20
q-42 0 -90 7t-102 23q-17 5 -30 7.5t-24 2.5q-22 0 -36 -26h-33v327h33q14 -70 42 -123t65.5 -88t83 -53t93.5 -18q34 0 62.5 11t49.5 29.5t32.5 43.5t11.5 54q0 34 -10 61.5t-37 53.5t-74 54.5t-121 65.5q-74 36 -119.5 67t-71.5 62.5t-35 66t-9 78.5q0 56 20.5 104.5
t57.5 84t88 56t112 20.5q19 0 49 -6t60.5 -13t55.5 -13t34 -6q16 0 25 7t21 31h33z" />
    <glyph glyph-name="t" unicode="t" horiz-adv-x="569" 
d="M330 1217v-301h214v-70h-214v-594q0 -45 7 -74.5t19 -46.5t28.5 -23.5t36.5 -6.5q33 0 64 20.5t48 60.5h39q-18 -49 -43.5 -86t-55.5 -61.5t-64 -37t-68 -12.5q-23 0 -46.5 6.5t-44 19t-37.5 30.5t-27 42q-21 48 -21 147v616h-145v33q55 22 112.5 74.5t102.5 124.5
q11 19 27.5 53.5t36.5 85.5h31z" />
    <glyph glyph-name="u" unicode="u" horiz-adv-x="1024" 
d="M867 916v-555q0 -161 7 -195q8 -35 24.5 -49t38.5 -14q30 0 70 17l14 -35l-274 -113h-45v194q-119 -128 -180 -161q-62 -33 -131 -33q-77 0 -133 43.5t-79 115.5q-22 69 -22 198v409q0 45 -7.5 73t-24.5 43t-44.5 20t-66.5 5h-12v37h321v-613q0 -66 12.5 -107t33.5 -63.5
t48.5 -30t57.5 -7.5q21 0 45.5 6t52 21t59.5 40t70 63v519q0 39 -6 64.5t-22.5 41t-45 22t-73.5 7.5v37h312z" />
    <glyph glyph-name="v" unicode="v" horiz-adv-x="1024" 
d="M17 916h431v-37h-28q-39 0 -59.5 -19t-20.5 -51q0 -35 21 -83l213 -506l214 525q23 57 23 85q0 29 -24.5 39t-80.5 10v37h299v-37q-32 -3 -52.5 -11t-34.5 -23t-25 -36.5t-23 -50.5l-325 -786h-41l-327 773q-15 36 -28.5 59.5t-31 38.5t-41 23t-59.5 13v37z" />
    <glyph glyph-name="w" unicode="w" horiz-adv-x="1479" 
d="M13 916h384v-37q-53 -4 -69.5 -19t-16.5 -43q0 -30 17 -75l196 -527l197 429l-52 135q-10 25 -20.5 43.5t-26.5 30.5t-39.5 18t-58.5 8v37h436v-37q-61 -3 -91.5 -19t-30.5 -58q0 -22 8 -41l208 -526l193 507q20 54 20 86q0 19 -19.5 34t-76.5 17v37h289v-37
q-88 -14 -128 -118l-306 -789h-41l-229 585l-267 -585h-37l-294 770q-14 37 -27.5 60.5t-29.5 38t-37 23t-51 15.5v37z" />
    <glyph glyph-name="x" unicode="x" horiz-adv-x="1024" 
d="M27 916h431v-37q-42 0 -58 -14t-16 -37q0 -10 4 -20.5t12.5 -24.5t21.5 -33t30 -46l65 -104l75 104q72 99 72 125q0 21 -17 35.5t-55 14.5v37h310v-37q-29 -2 -52.5 -10.5t-48 -28t-52.5 -52.5t-66 -84l-125 -167l228 -328q43 -62 70.5 -96.5t49 -51t42.5 -20.5t51 -5
v-36h-432v36q38 0 63.5 15t25.5 42q0 22 -64 116l-134 196l-147 -196q-68 -90 -68 -108q0 -24 22.5 -43.5t67.5 -21.5v-36h-299v36q21 3 38.5 10t38 25.5t47 51t67.5 86.5l192 255l-174 252q-38 55 -65 87.5t-50 49t-46.5 21.5t-54.5 5v37z" />
    <glyph glyph-name="y" unicode="y" horiz-adv-x="1024" 
d="M12 916h427v-37h-21q-45 0 -67.5 -19.5t-22.5 -48.5q0 -39 33 -108l223 -462l205 506q17 42 17 81q0 12 -3 21t-12.5 16t-28 10.5t-48.5 3.5v37h298v-37q-26 -3 -43 -7.5t-31.5 -18t-28 -40t-32.5 -72.5l-373 -914q-27 -66 -64 -116.5t-78 -84t-84.5 -51t-83.5 -17.5
q-30 0 -54.5 9.5t-42.5 25t-28 35.5t-10 42q0 42 27.5 67.5t75.5 25.5q11 0 32.5 -6t44 -12.5t40.5 -12.5t23 -6q15 0 31.5 7t34 24t35.5 46.5t36 73.5l65 159l-329 691q-5 11 -16.5 29.5t-24.5 37.5t-26 35t-22 22q-21 16 -74 28v37z" />
    <glyph glyph-name="z" unicode="z" horiz-adv-x="909" 
d="M860 281v-281h-819v36l608 810h-300q-50 0 -79.5 -3t-47.5 -9.5t-28.5 -18t-20.5 -29.5q-26 -48 -31 -124h-40v254h774v-37l-614 -812h334q54 0 88 4t56 13.5t34.5 24.5t24.5 37q16 31 27 135h34z" />
    <glyph glyph-name="asciitilde" unicode="~" horiz-adv-x="1108" 
d="M417 1287v45q66 -2 117.5 -22t87 -53t54 -76.5t18.5 -93.5q0 -23 -3.5 -48t-11.5 -51t-34.5 -94.5t-71.5 -179.5q-64 -157 -64 -219q0 -70 43 -118t140 -68v-44q-68 3 -120 23t-87 52t-53 73t-18 86q0 42 14 90q15 52 40.5 120t62.5 153t54.5 144.5t17.5 94.5
q0 75 -47.5 126t-138.5 60z" />
    <glyph glyph-name="braceright" unicode="}" horiz-adv-x="976" 
d="M768 814v-32q-216 -56 -224 -208q0 -64 24 -144v-40q24 -64 24 -120q-40 -312 -376 -384v40q208 40 232 240q0 48 -16 120q-8 32 -8 40q-16 48 -16 144q16 224 280 328v8q-264 80 -280 328q0 48 8 136q0 16 8 24q0 8 8 40q16 72 16 120q-32 200 -232 232v40
q336 -72 376 -384q0 -48 -16 -128q-8 -32 -8 -48q-24 -72 -24 -144q8 -160 224 -208z" />
    <glyph glyph-name="bar" unicode="|" horiz-adv-x="410" 
d="M244 1742v-1864h-83v1864h83z" />
    <glyph glyph-name="braceleft" unicode="{" horiz-adv-x="983" 
d="M841 -97v-35q-83 11 -152 47t-118.5 88.5t-77.5 117t-28 132.5q0 33 7 78t16 90t16 85t7 63q0 35 -16 70t-45.5 64t-71.5 49.5t-95 27.5v41q53 7 95.5 27t72 49t45 64t15.5 71q0 24 -7 63.5t-16 84t-16 89.5t-7 79q0 68 28 132.5t77.5 116.5t118.5 88t152 47v-35
q-59 -14 -101.5 -37.5t-70 -54t-41 -66t-13.5 -73.5q0 -26 7 -68t15.5 -87.5t15.5 -89.5t7 -75q0 -50 -18.5 -100t-55.5 -95.5t-92.5 -83.5t-128.5 -64q72 -26 127 -65.5t92.5 -86t56.5 -97t19 -99.5q0 -31 -7 -75t-15.5 -89.5t-15.5 -87.5t-7 -68q0 -38 13.5 -73.5t41 -66
t70 -54t101.5 -38.5z" />
    <glyph glyph-name="uni2048" unicode="&#x2048;" horiz-adv-x="1779" 
d="M146 1303.5q0 -56.5 47.5 -86t263.5 -16.5t483 33.5t283.5 38.5t-0.5 32.5t-283 40.5t-485 45.5t-264 -6t-45 -82zM129.5 490.5q-28.5 -95.5 0.5 -216.5t130 -173.5t199.5 -28t136.5 92.5t19.5 110t-60.5 51.5t-77 -23.5t-18 -109q-136 -27 -201.5 78.5t-6.5 209
t182 95.5t221.5 -114t147 -125t147 -6t201.5 22.5t116.5 23t-0.5 27.5t-126.5 20t-196 9t-130 41.5t-100.5 102t-142 108.5t-178 37t-163 -72.5t-101.5 -160zM1484.5 1203.5q34.5 -36.5 81.5 -36.5q49 0 83 36t34 89q0 52 -32.5 87t-79.5 35q-48 0 -84.5 -37t-36.5 -87
t34.5 -86.5zM1487.5 310.5q34.5 -36.5 81.5 -36.5q49 0 83 36t34 89q0 52 -32.5 87t-79.5 35q-48 0 -84.5 -37t-36.5 -87t34.5 -86.5z" />
    <glyph glyph-name="uni2049" unicode="&#x2049;" horiz-adv-x="1812" 
d="M109.5 1202q11.5 -218 182 -274.5t306.5 87.5q19 45 9 89t-49 60.5t-82 -5t-34 -112.5q-123 -32 -190 74.5t1.5 213.5t190 90.5t188.5 -113.5t123.5 -126t146 -34t198.5 8t123.5 14t28.5 9t10 20t-14 16t-106.5 12t-218 22.5t-201 148t-234 167t-272.5 -57.5t-106.5 -309
zM181 248.5q58 -70.5 273.5 -45.5t491.5 54.5t288.5 41t0.5 23.5t-291 42.5t-494 57t-271 -38t2 -135zM1496.5 1095.5q34.5 -36.5 81.5 -36.5q49 0 83 36t34 89q0 52 -32.5 87t-79.5 35q-48 0 -84.5 -37t-36.5 -87t34.5 -86.5zM1498.5 231.5q34.5 -36.5 81.5 -36.5
q49 0 83 36t34 89q0 52 -32.5 87t-79.5 35q-48 0 -84.5 -37t-36.5 -87t34.5 -86.5z" />
    <glyph glyph-name="uni200C" unicode="&#x200c;" horiz-adv-x="2" 
 />
    <glyph glyph-name="uni200D" unicode="&#x200d;" horiz-adv-x="7" 
 />
    <glyph glyph-name="uni202F" unicode="&#x202f;" horiz-adv-x="305" 
 />
    <glyph glyph-name="glyph100" horiz-adv-x="637" 
d="M112 868q-33 -298 254 -296q212 60 182 272q-55 197 -254 179q-140 -33 -182 -155zM454 817q10 -118 -96 -142q-99 -21 -142 67q-45 139 88 182q124 10 150 -107z" />
    <glyph glyph-name="question" unicode="?" horiz-adv-x="1904" 
d="M948 477h-41q8 128 31 208q12 42 38 99t64 131q29 57 49 100t29 73q18 61 18 123q0 63 -18.5 114.5t-50 87.5t-74 55.5t-90.5 19.5q-44 0 -78.5 -11.5t-58.5 -30t-37 -41.5t-13 -47q0 -17 9.5 -41.5t20.5 -49.5t20.5 -47.5t9.5 -34.5q0 -36 -23 -60.5t-56 -24.5
q-21 0 -41 10.5t-35.5 31t-25 49.5t-9.5 66q0 55 25 107t71.5 92t113.5 64t150 24q88 0 157.5 -25t118 -67.5t74 -100t25.5 -122.5q0 -74 -33 -150q-17 -38 -47 -83.5t-76 -97.5q-144 -162 -178 -233q-31 -67 -39 -188zM934 353q48 0 80 -32t32 -80q0 -23 -9 -43t-24 -35
t-35.5 -24t-43.5 -9t-43 9t-35 24t-24 35t-9 43q0 24 9 44.5t24 35.5t35 23.5t43 8.5z" />
    <glyph glyph-name="uniFE15" unicode="&#xfe15;" horiz-adv-x="1928" 
d="M238 745.5q58 -70.5 273.5 -45.5t491.5 54.5t288.5 41t0.5 23.5t-291 42.5t-494 57t-271 -38t2 -135zM1555.5 728.5q34.5 -36.5 81.5 -36.5q49 0 83 36t34 89q0 52 -32.5 87t-79.5 35q-48 0 -84.5 -37t-36.5 -87t34.5 -86.5z" />
    <glyph glyph-name="semicolon" unicode=";" horiz-adv-x="1516" 
d="M784 1470q23 0 43 -8.5t35 -23.5t24 -35t9 -43t-9 -43t-24 -35t-35 -24t-43 -9t-43 9t-35 24t-24 35t-9 43t9 43t24 35t35 23.5t43 8.5zM644 184v44q51 17 91 44.5t68 61.5t42.5 73t14.5 78q0 15 -7 28t-16 13q-3 0 -12 -4.5t-20.5 -10t-25.5 -10t-28 -4.5q-49 0 -78 29
t-29 80q0 25 10 46.5t27.5 37.5t41 25.5t50.5 9.5q32 0 62.5 -15t54 -42.5t38 -66.5t14.5 -86q0 -51 -17.5 -100t-54 -91.5t-92.5 -78.5t-134 -61z" />
    <glyph glyph-name="comma" unicode="," horiz-adv-x="990" 
d="M323 550v44q51 17 91 44.5t68 61.5t42.5 73t14.5 78q0 15 -7 28t-16 13q-3 0 -12 -4.5t-20.5 -10t-25.5 -10t-28 -4.5q-49 0 -78 29t-29 80q0 25 10 46.5t27.5 37.5t41 25.5t50.5 9.5q32 0 62.5 -15t54 -42.5t38 -66.5t14.5 -86q0 -51 -17.5 -100t-54 -91.5t-92.5 -78.5
t-134 -61z" />
    <glyph glyph-name="period" unicode="." horiz-adv-x="618" 
d="M316 927q23 0 43 -8.5t35 -23.5t24 -35.5t9 -43.5t-9 -43t-24 -35t-35 -24t-43 -9t-43 9t-35 24t-24 35t-9 43q0 24 9 44t24 35t35 23.5t43 8.5z" />
    <glyph glyph-name="periodcentered" unicode="&#xb7;" horiz-adv-x="899" 
d="M453 987q34 0 64.5 -13t53 -35.5t36 -53.5t13.5 -65q0 -35 -13.5 -65.5t-36 -53t-53 -36t-64.5 -13.5q-35 0 -65.5 13.5t-53 36t-36 53t-13.5 65.5q0 36 13.5 66t36 52.5t53 35.5t65.5 13z" />
    <glyph glyph-name="glyph107" horiz-adv-x="1390" 
d="M1211 813q0 -29 -11.5 -54t-30 -44t-44 -30t-54.5 -11t-54 11t-44 30t-30 44t-11 54t11 54.5t30 44t44 30t54 11.5t54.5 -11.5t44 -30t30 -44t11.5 -54.5zM477 814q0 -29 -11 -55t-31 -45.5t-46 -30.5t-54 -11q-29 0 -54.5 11t-44.5 30.5t-30.5 45.5t-11.5 55t11.5 54.5
t30.5 44.5t44.5 30.5t54.5 11.5t55 -11.5t45.5 -30.5t30.5 -44.5t11 -54.5z" />
    <glyph glyph-name="uniFE16" unicode="&#xfe16;" horiz-adv-x="1904" 
d="M1313 831v-41q-128 8 -208 31q-42 12 -99 38t-131 64q-57 29 -100 49t-73 29q-61 18 -123 18q-63 0 -114.5 -18.5t-87.5 -50t-55.5 -74t-19.5 -90.5q0 -44 11.5 -78.5t30 -58.5t41.5 -37t47 -13q17 0 41.5 9.5t49.5 20.5t47.5 20.5t34.5 9.5q36 0 60.5 -23t24.5 -56
q0 -21 -10.5 -41t-31 -35.5t-49.5 -25t-66 -9.5q-55 0 -107 25t-92 71.5t-64 113.5t-24 150q0 88 25 157.5t67.5 118t100 74t122.5 25.5q74 0 150 -33q38 -17 83.5 -47t97.5 -76q162 -144 233 -178q67 -31 188 -39zM1437 817q0 48 32 80t80 32q23 0 43 -9t35 -24t24 -35.5
t9 -43.5t-9 -43t-24 -35t-35 -24t-43 -9q-24 0 -44.5 9t-35.5 24t-23.5 35t-8.5 43z" />
    <glyph glyph-name="glyph109" horiz-adv-x="968" 
 />
    <glyph glyph-name="glyph110" horiz-adv-x="968" 
 />
    <glyph glyph-name="glyph111" horiz-adv-x="968" 
 />
    <glyph glyph-name="glyph112" horiz-adv-x="968" 
 />
    <glyph glyph-name="glyph113" horiz-adv-x="968" 
 />
    <glyph glyph-name="glyph114" horiz-adv-x="968" 
 />
    <glyph glyph-name="uni1810" unicode="&#x1810;" horiz-adv-x="675" 
d="M551 1057q0 130 -28 215q-10 31 -23 60t-30.5 51.5t-39 35.5t-48.5 13q-35 0 -63.5 -17t-51.5 -44t-41 -61t-31 -68q-18 -45 -31 -95.5t-22 -103.5t-13.5 -106t-4.5 -101q-2 -97 14.5 -171.5t45.5 -122.5q26 -43 58.5 -65.5t60.5 -22.5q37 0 65.5 18.5t50.5 47t38.5 64
t28.5 69.5q16 45 28.5 95t20.5 102.5t12 105t4 101.5zM635 1049q0 -54 -4.5 -111.5t-14.5 -113.5t-25.5 -110.5t-36.5 -102.5q-19 -43 -44.5 -80.5t-58.5 -65t-73.5 -43.5t-88.5 -16q-118 0 -178 130q-32 65 -51.5 154t-19.5 204q0 116 24 211.5t59 168.5q48 97 117 151.5
t153 54.5q72 0 122 -46.5t79 -119.5q41 -103 41 -265z" />
    <glyph glyph-name="glyph116" horiz-adv-x="968" 
 />
    <glyph glyph-name="glyph117" horiz-adv-x="968" 
 />
    <glyph glyph-name="glyph118" horiz-adv-x="968" 
 />
    <glyph glyph-name="glyph119" horiz-adv-x="968" 
 />
    <glyph glyph-name="glyph120" horiz-adv-x="968" 
 />
    <glyph glyph-name="glyph121" horiz-adv-x="968" 
 />
    <glyph glyph-name="glyph122" horiz-adv-x="968" 
 />
    <glyph glyph-name="glyph123" horiz-adv-x="968" 
 />
    <glyph glyph-name="glyph124" horiz-adv-x="968" 
 />
    <glyph glyph-name="glyph125" horiz-adv-x="968" 
 />
    <glyph glyph-name="glyph126" horiz-adv-x="968" 
 />
    <glyph glyph-name="glyph127" horiz-adv-x="968" 
 />
    <glyph glyph-name="glyph128" horiz-adv-x="968" 
 />
    <glyph glyph-name="glyph129" horiz-adv-x="968" 
 />
    <glyph glyph-name="glyph130" horiz-adv-x="968" 
 />
    <glyph glyph-name="uni18AD" unicode="&#x18ad;" horiz-adv-x="968" 
 />
    <glyph glyph-name="glyph132" horiz-adv-x="968" 
 />
    <glyph glyph-name="glyph133" horiz-adv-x="968" 
 />
    <glyph glyph-name="glyph134" horiz-adv-x="968" 
 />
    <glyph glyph-name="glyph135" horiz-adv-x="968" 
 />
    <glyph glyph-name="uni1800" unicode="&#x1800;" horiz-adv-x="685" 
d="M645 1016q0 -59 -19.5 -120.5t-54 -124t-80.5 -125.5t-99 -126q-57 -67 -97 -131t-66 -117.5t-38.5 -93.5t-12.5 -59q-1 -28 -12 -44t-22 -16q-23 0 -33 14t-10 47t15 78t42 97.5t64.5 111t83.5 118.5q48 63 86 118.5t64.5 113t40 121.5t13.5 144q0 84 -44.5 133
t-127.5 49q-41 0 -77.5 -11t-63.5 -32t-43 -52t-16 -71q0 -22 9 -46.5t24.5 -46t35.5 -39t43 -25.5q11 -5 23 -18t12 -27q0 -13 -6.5 -21t-16 -12.5t-21.5 -6.5t-23 -2q-40 0 -73 24t-56 60t-36 79t-13 82q0 64 23 117.5t63 92.5t95 60.5t118 21.5q70 0 126.5 -20.5
t96.5 -60t61.5 -98.5t21.5 -136z" />
    <glyph glyph-name="uni1800.isol" horiz-adv-x="685" 
d="M645 1016q0 -59 -19.5 -120.5t-54 -124t-80.5 -125.5t-99 -126q-57 -67 -97 -131t-66 -117.5t-38.5 -93.5t-12.5 -59q-1 -28 -12 -44t-22 -16q-23 0 -33 14t-10 47t15 78t42 97.5t64.5 111t83.5 118.5q48 63 86 118.5t64.5 113t40 121.5t13.5 144q0 84 -44.5 133
t-127.5 49q-41 0 -77.5 -11t-63.5 -32t-43 -52t-16 -71q0 -22 9 -46.5t24.5 -46t35.5 -39t43 -25.5q11 -5 23 -18t12 -27q0 -13 -6.5 -21t-16 -12.5t-21.5 -6.5t-23 -2q-40 0 -73 24t-56 60t-36 79t-13 82q0 64 23 117.5t63 92.5t95 60.5t118 21.5q70 0 126.5 -20.5
t96.5 -60t61.5 -98.5t21.5 -136z" />
    <glyph glyph-name="uni1800_FVS1.isol" horiz-adv-x="940" 
d="M645 1016q0 -59 -19.5 -120.5t-54 -124t-80.5 -125.5t-99 -126q-57 -67 -97 -131t-66 -117.5t-38.5 -93.5t-12.5 -59q-1 -28 -12 -44t-22 -16q-23 0 -33 14t-10 47t15 78t42 97.5t64.5 111t83.5 118.5q48 63 86 118.5t64.5 113t40 121.5t13.5 144q0 84 -44.5 133
t-127.5 49q-41 0 -77.5 -11t-63.5 -32t-43 -52t-16 -71q0 -22 9 -46.5t24.5 -46t35.5 -39t43 -25.5q11 -5 23 -18t12 -27q0 -13 -6.5 -21t-16 -12.5t-21.5 -6.5t-23 -2q-40 0 -73 24t-56 60t-36 79t-13 82q0 64 23 117.5t63 92.5t95 60.5t118 21.5q70 0 126.5 -20.5
t96.5 -60t61.5 -98.5t21.5 -136zM900 1048q0 -60 -14.5 -111t-41.5 -92.5t-65 -74t-84 -56.5q-11 -6 -27.5 -13.5t-24.5 -7.5q-11 0 -11 7q0 3 5.5 9.5t12.5 13.5t13.5 13t8.5 9q49 65 77.5 140t28.5 163q0 72 -34 142.5t-103 136.5q-3 3 -10.5 9t-15.5 13t-14 13.5t-6 8.5
q0 3 2.5 7t7.5 4q10 0 24.5 -5.5t31.5 -13.5q118 -54 178.5 -129t60.5 -186z" />
    <glyph glyph-name="uni1800_FVS2.isol" horiz-adv-x="1366" 
d="M1328 794q0 -74 -23 -129.5t-64 -93.5t-98.5 -57t-126.5 -19q-60 0 -114.5 19t-110 47.5t-114.5 61t-126 60.5q-49 20 -94.5 33.5t-98 22t-117.5 14t-152 9.5q-29 0 -41.5 7.5t-17.5 33.5q0 35 59 35q80 0 144 -3.5t122.5 -12.5t118 -25.5t130.5 -42.5q42 -15 93 -37
t105 -41.5t107.5 -33.5t99.5 -14q100 0 146 45.5t46 129.5q0 47 -13.5 83.5t-36 61.5t-52 38t-61.5 13q-43 0 -83.5 -23t-67.5 -77q-19 -46 -54 -46q-11 0 -19.5 6.5t-14 16t-8 19.5t-2.5 18q0 42 24.5 76.5t61 58.5t78 37.5t76.5 13.5q75 0 131 -25.5t93.5 -68t56 -97.5
t18.5 -114z" />
    <glyph glyph-name="uni1800_FVS3.isol" horiz-adv-x="940" 
d="M645 1372q0 -92 -45 -187.5t-117 -192.5q77 -33 119.5 -105.5t42.5 -181.5q0 -59 -19.5 -120.5t-54 -124t-80.5 -125.5t-99 -126q-57 -67 -97 -131t-66 -117.5t-38.5 -93.5t-12.5 -59q-1 -28 -12 -44t-22 -16q-23 0 -33 14t-10 47t15 78t42 97.5t64.5 111t83.5 118.5
q48 63 86 118.5t64.5 113t40 121.5t13.5 144q0 84 -44.5 133t-127.5 49q-41 0 -77.5 -11t-63.5 -32t-43 -52t-16 -71q0 -22 9 -46.5t24.5 -46t35.5 -39t43 -25.5q11 -5 23 -18t12 -27q0 -13 -6.5 -21t-16 -12.5t-21.5 -6.5t-23 -2q-40 0 -73 24t-56 60t-36 79t-13 82
q0 64 23 117.5t63 92.5t95 60.5t118 21.5q17 0 32.5 -1.5t31.5 -3.5q26 40 46 80.5t33.5 84t20.5 92.5t7 106q0 84 -44.5 133t-127.5 49q-41 0 -77.5 -11t-63.5 -32t-43 -52t-16 -71q0 -22 9 -46.5t24.5 -46t35.5 -39t43 -25.5q11 -5 23 -18t12 -27q0 -13 -6.5 -21
t-16 -12.5t-21.5 -6.5t-23 -2q-40 0 -73 24t-56 60t-36 79t-13 82q0 64 23 117.5t63 92.5t95 60.5t118 21.5q70 0 126.5 -20.5t96.5 -60t61.5 -98.5t21.5 -136zM900 658q0 -110 -61 -184.5t-178 -127.5q-17 -8 -31.5 -13.5t-24.5 -5.5q-5 0 -7.5 4t-2.5 7q0 2 6 8.5t14 13.5
t15.5 13t10.5 9q67 64 101 134t36 142q-2 102 -36 177.5t-101 140.5q-3 3 -10.5 9t-15.5 13t-14 13.5t-6 8.5q0 4 1 6q-1 2 -1 6q0 2 6 8.5t14 13.5t15.5 13t10.5 9q67 64 101 134t36 142q-2 102 -36 177.5t-101 140.5q-3 3 -10.5 9t-15.5 13t-14 13.5t-6 8.5q0 3 2.5 7
t7.5 4q10 0 25 -5t31 -14q21 -12 46.5 -25t52 -32t52 -44.5t45 -61t31.5 -82.5t12 -109q0 -110 -61 -184.5t-178 -127.5q-9 -4 -16.5 -7.5t-15.5 -6.5q14 -4 32 -14q21 -12 46.5 -25t52 -32t52 -44.5t45 -61t31.5 -82.5t12 -109z" />
    <glyph glyph-name="uni1800_uni200D.isol" horiz-adv-x="925" 
d="M614 926q0 -69 -39.5 -141.5t-96.5 -145.5q60 -30 98 -84.5t38 -131.5q0 -48 -20 -97t-53 -98.5t-74.5 -99.5t-83.5 -100q-45 -54 -77 -102t-51.5 -87.5t-29 -69t-9.5 -44.5q-1 -23 -12.5 -34t-20.5 -11q-18 0 -34.5 10t-16.5 36t12 62t33.5 78t51.5 89t67 95
q39 50 72 90t57 80t37.5 86.5t13.5 110.5q0 39 -16 65t-41 42t-56.5 22.5t-62.5 6.5q-33 0 -64 -8.5t-55 -24t-38.5 -36t-14.5 -44.5q0 -18 7.5 -36t19.5 -34t28.5 -28.5t34.5 -18.5q9 -4 18.5 -16t9.5 -28q0 -11 -6.5 -17.5t-16.5 -10t-21 -5t-20 -1.5q-32 0 -58.5 19
t-45 48t-28.5 63.5t-10 65.5q0 44 21 86t58 75t88.5 53t111.5 20q20 0 39 -1.5t39 -6.5q36 55 57.5 114t21.5 139q0 39 -16 65t-41 42t-56.5 22.5t-62.5 6.5q-33 0 -64 -8.5t-55 -24t-38.5 -36t-14.5 -44.5q0 -18 7.5 -36t19.5 -34t28.5 -28.5t34.5 -18.5q9 -4 18.5 -16
t9.5 -28q0 -11 -6.5 -17.5t-16.5 -10t-21 -5t-20 -1.5q-32 0 -58.5 19t-45 48t-28.5 63.5t-10 65.5q0 44 21 86t58 75t88.5 53t111.5 20q40 0 74 -7q21 30 38 59.5t29.5 62t19 69.5t6.5 81q0 39 -16 65t-41 42t-56.5 22.5t-62.5 6.5q-33 0 -64 -8.5t-55 -24t-38.5 -36
t-14.5 -44.5q0 -18 7.5 -36t19.5 -34t28.5 -28.5t34.5 -18.5q9 -4 18.5 -16t9.5 -28q0 -11 -6.5 -17.5t-16.5 -10t-21 -5t-20 -1.5q-32 0 -58.5 19t-45 48t-28.5 63.5t-10 65.5q0 44 21 86t58 75t88.5 53t111.5 20q56 0 109 -16t94.5 -48t66.5 -79.5t25 -108.5
q0 -37 -12 -74.5t-32.5 -76t-48 -77t-58.5 -77.5q62 -30 101.5 -85t39.5 -133zM883 882q0 -88 -54 -148t-147 -102q-4 -2 -7.5 -3.5t-7.5 -3.5q4 -2 7.5 -3.5t7.5 -3.5q25 -14 59.5 -35.5t66 -54.5t53.5 -80t22 -113q0 -88 -54 -148t-147 -102q-14 -6 -25.5 -10.5
t-19.5 -4.5q-5 0 -6.5 3.5t-1.5 5.5t3.5 7t8 10.5t9 10.5t6.5 7q107 103 109 221q-1 82 -28 142t-81 112q-5 5 -15.5 17.5t-11.5 17.5q1 7 11.5 20t15.5 17q107 103 109 221q-1 82 -28 142t-81 112q-3 3 -10 11t-12 15q-5 2 -5 9q0 3 1 5t3 3q5 8 12 16t11 11
q107 103 109 221q-1 82 -28 142t-81 112q-2 2 -6.5 7.5l-9 11t-8 10.5t-3.5 7t1.5 5t6.5 3q8 0 20 -3.5t25 -11.5q25 -14 59.5 -35.5t66 -54.5t53.5 -80t22 -113q0 -88 -54 -148t-147 -102q-5 -2 -13 -6q8 -4 13 -6q25 -14 59.5 -35.5t66 -54.5t53.5 -80t22 -113z" />
    <glyph glyph-name="uni1801" unicode="&#x1801;" horiz-adv-x="2048" 
d="M1976 785q0 -54 -34.5 -90.5t-96.5 -36.5t-98.5 36t-38.5 91q-2 54 31.5 89.5t96.5 34.5q66 -1 103 -35.5t37 -88.5zM1419 785q0 -54 -34.5 -90.5t-96.5 -36.5t-98.5 36t-38.5 91q-2 54 31.5 89.5t96.5 34.5q66 -1 103 -35.5t37 -88.5zM865 785q0 -54 -34.5 -90.5
t-96.5 -36.5t-98.5 36t-38.5 91q-2 54 31.5 89.5t96.5 34.5q66 -1 103 -35.5t37 -88.5zM308 785q0 -54 -34.5 -90.5t-96.5 -36.5t-98.5 36t-38.5 91q-2 54 31.5 89.5t96.5 34.5q66 -1 103 -35.5t37 -88.5z" />
    <glyph glyph-name="glyph143" horiz-adv-x="2048" 
d="M1976 785q0 -54 -34.5 -90.5t-96.5 -36.5t-98.5 36t-38.5 91q-2 54 31.5 89.5t96.5 34.5q66 -1 103 -35.5t37 -88.5zM1419 785q0 -54 -34.5 -90.5t-96.5 -36.5t-98.5 36t-38.5 91q-2 54 31.5 89.5t96.5 34.5q66 -1 103 -35.5t37 -88.5zM865 785q0 -54 -34.5 -90.5
t-96.5 -36.5t-98.5 36t-38.5 91q-2 54 31.5 89.5t96.5 34.5q66 -1 103 -35.5t37 -88.5zM308 785q0 -54 -34.5 -90.5t-96.5 -36.5t-98.5 36t-38.5 91q-2 54 31.5 89.5t96.5 34.5q66 -1 103 -35.5t37 -88.5z" />
    <glyph glyph-name="glyph144" horiz-adv-x="2048" 
d="M341 914q23 0 43 -8.5t35 -23.5t24 -35.5t9 -43.5t-9 -43t-24 -35t-35 -24t-43 -9t-43 9t-35 24t-24 35t-9 43q0 24 9 44t24 35t35 23.5t43 8.5zM1024 914q23 0 43 -9t35 -24t24 -35t9 -43t-9 -43t-24 -35t-35 -24t-43 -9t-43 9t-35 24t-24 35t-9 43q0 24 9 44t24 35
t35 23.5t43 8.5zM1707 914q23 0 43 -9t35 -24t24 -35t9 -43t-9 -43t-24 -35t-35 -24t-43 -9t-43 9t-35 24t-24 35t-9 43q0 48 31.5 79.5t79.5 31.5z" />
    <glyph glyph-name="uni1802" unicode="&#x1802;" horiz-adv-x="785" 
d="M523 822v-28l-113 -232l-113 232v28l113 249z" />
    <glyph glyph-name="uni1803" unicode="&#x1803;" horiz-adv-x="1289" 
d="M1029 822v-28l-113 -232l-113 232v28l113 249zM523 822v-28l-113 -232l-113 232v28l113 249z" />
    <glyph glyph-name="uni1804" unicode="&#x1804;" horiz-adv-x="785" 
d="M515 1071q0 -50 -28 -79.5t-82 -30.5q-56 -1 -89 29t-33 81q0 52 32.5 83.5t89.5 31.5q54 0 82 -31.5t28 -83.5zM515 561q0 -50 -28 -79.5t-82 -30.5q-56 -1 -89 29t-33 81q0 52 32.5 83.5t89.5 31.5q54 0 82 -31.5t28 -83.5z" />
    <glyph glyph-name="uni1805" unicode="&#x1805;" horiz-adv-x="926" 
d="M828 822v-28l-113 -232l-113 232v28l113 249zM327 822v-28l-113 -232l-113 232v28l113 249zM575 1176v-28l-113 -232l-113 232v28l113 249zM575 451v-28l-113 -232l-113 232v28l113 249z" />
    <glyph glyph-name="uni1806" unicode="&#x1806;" horiz-adv-x="553" 
d="M603 909v-182h-623v182h623z" />
    <glyph glyph-name="uni1807" unicode="&#x1807;" horiz-adv-x="571" 
d="M630 909v-182h-213q-2 -24 -6 -67t-9 -89.5t-12 -88.5t-14 -66l-35 -11q-30 75 -48.5 157t-26.5 165h-276v182h640z" />
    <glyph glyph-name="uni1808" unicode="&#x1808;" horiz-adv-x="875" 
d="M605 822q0 -41 -24 -81t-60 -76.5t-77.5 -67t-76.5 -50.5q-26 -15 -47 -15q-14 0 -21.5 12t-7.5 29q0 15 10 32q31 36 54 65.5t38 55t22.5 49t7.5 46.5q0 33 -26 85t-77 115q-21 18 -21 37q0 30 29 30q17 0 42 -17q235 -133 235 -249z" />
    <glyph glyph-name="uni1809" unicode="&#x1809;" horiz-adv-x="1333" 
d="M595 822q0 -41 -24 -81t-60 -76.5t-77.5 -67t-76.5 -50.5q-26 -15 -47 -15q-14 0 -21.5 12t-7.5 29q0 15 10 32q31 36 54 65.5t38 55t22.5 49t7.5 46.5q0 33 -26 85t-77 115q-21 18 -21 37q0 30 29 30q17 0 42 -17q235 -133 235 -249zM1051 822q0 -41 -24 -81t-60 -76.5
t-77.5 -67t-76.5 -50.5q-26 -15 -47 -15q-14 0 -21.5 12t-7.5 29q0 15 10 32q31 36 54 65.5t38 55t22.5 49t7.5 46.5q0 33 -26 85t-77 115q-21 18 -21 37q0 30 29 30q17 0 42 -17q235 -133 235 -249z" />
    <glyph glyph-name="uni180A" unicode="&#x180a;" horiz-adv-x="268" 
d="M297 909v-182h-307v182h307z" />
    <glyph glyph-name="FVS1" unicode="&#x180b;" horiz-adv-x="1646" 
d="M1050 60v-60h-198v60h198zM756 60v-60h-206v60h206zM463 60v-60h-208v60h208zM1353 60v-60h-208v60h208zM1621 243h-51v207h51v-207zM55 1134h-51v215h51v-215zM1621 1134h-51v215h51v-215zM55 243h-51v215h51v-215zM1621 528h-51v217h51v-217zM55 528h-51v217h51v-217z
M1621 821h-51v218h51v-218zM55 821h-51v218h51v-218zM1050 1557h-198v60h198v-60zM463 1557h-208v60h208v-60zM756 1557h-206v60h206v-60zM1353 1557h-208v60h208v-60zM178 0h-174v165h51v-105h123v-60zM1621 0h-190v60h139v105h51v-165zM4 1435v182h174v-60h-123v-122h-51z
M1431 1557v60h190v-182h-51v122h-139zM1016 901h-53q0 174 -79 174q-14 0 -22 -3v71h656v-80h-502v-162zM410 667h69v-321h320v-69h-640v433h69v-364h182v321zM159 1325l640 -191v-104l-640 -200v78l563 173l-563 157v87zM1042 632q-110 -33 -121 -155q10 -155 121 -165
q27 5 48.5 26t38.5 61q5 9 10.5 29t11 42t11 42.5t9.5 31.5q32 80 72.5 118t91.5 38q183 0 183 -232q0 -137 -113 -209q-57 -16 -103 -16v69q148 11 154 165q0 146 -121 155q-79 -9 -101 -137q-5 -14 -14 -38t-17 -49q-9 -24 -17.5 -44t-14.5 -27q-33 -94 -129 -94
q-174 15 -180 225q15 208 180 226v-62z" />
    <glyph glyph-name="FVS2" unicode="&#x180c;" horiz-adv-x="1641" 
d="M1050 60v-60h-198v60h198zM463 60v-60h-208v60h208zM1353 60v-60h-208v60h208zM756 60v-60h-206v60h206zM1621 243h-51v207h51v-207zM55 1134h-51v215h51v-215zM1621 1134h-51v215h51v-215zM1621 528h-51v217h51v-217zM1621 821h-51v218h51v-218zM55 528h-51v217h51v-217
zM55 821h-51v218h51v-218zM55 243h-51v215h51v-215zM1050 1557h-198v60h198v-60zM756 1557h-206v60h206v-60zM463 1557h-208v60h208v-60zM1353 1557h-208v60h208v-60zM178 0h-174v165h51v-105h123v-60zM1621 0h-190v60h139v105h51v-165zM4 1435v182h174v-60h-123v-122h-51z
M1431 1557v60h190v-182h-51v122h-139zM410 667h69v-321h320v-69h-640v433h69v-364h182v321zM1234 1168q35 -51 59 -88t42 -58q85 -69 112 -77v335h71v-406q-67 0 -120 18l-45 44q-20 11 -32 19.5t-19 14.5q-22 32 -47.5 66.5t-57.5 70.5q-68 124 -142 124h-13
q-102 -14 -112 -141q0 -164 154 -164v-60q-5 -1 -12 -1.5t-17 -0.5q-82 0 -142 72q-44 64 -44 145q9 208 173 218q100 0 192 -131zM159 1325l640 -191v-104l-640 -200v78l563 173l-563 157v87zM1042 623q-110 -24 -121 -146q10 -155 121 -165q27 5 48.5 26t38.5 61
q18 25 33 103q5 13 9 23.5t8 18.5q56 150 166 156q181 0 181 -232q0 -137 -110 -209q-60 -16 -114 -16v69q155 11 164 165q0 146 -121 155q-69 -9 -111 -137q-11 -17 -27 -78q-8 -27 -14.5 -46.5t-13.5 -33.5q-47 -94 -137 -94q-174 8 -180 225q0 211 180 226v-71z" />
    <glyph glyph-name="FVS3" unicode="&#x180d;" horiz-adv-x="1650" 
d="M1050 60v-60h-198v60h198zM463 60v-60h-208v60h208zM1353 60v-60h-208v60h208zM756 60v-60h-206v60h206zM1621 243h-51v207h51v-207zM55 1134h-51v215h51v-215zM1621 1134h-51v215h51v-215zM1621 528h-51v217h51v-217zM1621 821h-51v218h51v-218zM55 528h-51v217h51v-217
zM55 821h-51v218h51v-218zM55 243h-51v215h51v-215zM1050 1557h-198v60h198v-60zM756 1557h-206v60h206v-60zM463 1557h-208v60h208v-60zM1353 1557h-208v60h208v-60zM178 0h-174v165h51v-105h123v-60zM1621 0h-190v60h139v105h51v-165zM4 1435v182h174v-60h-123v-122h-51z
M1431 1557v60h190v-182h-51v122h-139zM410 667h69v-321h320v-69h-640v433h69v-364h182v321zM159 1325l640 -191v-104l-640 -200v78l563 173l-563 157v87zM1129 1004q-25 197 -113 209q-60 0 -77 -123q-2 -11 -3 -22t-1 -22q0 -85 55 -110l-32 -78q-45 23 -67 74.5t-22 131.5
v26q9 189 147 199q113 -9 137 -172q42 198 188 198h12q157 -7 165 -225q0 -182 -138 -241l-19 87q78 39 78 132v22q-8 141 -78 148q-126 0 -182 -234h-50zM1042 623q-110 -24 -121 -146q10 -155 121 -165q27 5 48.5 26t38.5 61q5 11 10.5 31t13.5 47q10 41 18 67
q32 80 72.5 118t91.5 38q183 0 183 -232q0 -137 -113 -209q-57 -16 -103 -16v69q148 11 154 165q0 146 -121 155q-79 -9 -101 -137q-5 -9 -9.5 -22.5t-9.5 -30.5q-14 -39 -25 -64t-19 -41q-33 -94 -129 -94q-174 8 -180 225q0 211 180 226v-71z" />
    <glyph glyph-name="MVS" unicode="&#x180e;" horiz-adv-x="1664" 
d="M161 957v138h656v-72h-600l600 -188v-109l-625 -180h625v-73h-656v140l603 171zM1066 1281v-67q-110 -26 -116 -147q6 -147 126 -150q46 0 77 76q23 58 31 83t18 60q54 153 159 154q180 -6 183 -238q0 -123 -70.5 -164.5t-148.5 -39.5v68q156 0 156 151q-4 151 -114 151
q-73 0 -111 -132q-11 -31 -20 -58t-34 -89q-45 -91 -136 -91q-167 9 -173 213q9 220 173 220zM1459 492l-562 160v79l638 -189v-100l-638 -199v81zM1577 1441v127h-132v56h184v-183h-52zM1577 173h52v-181h-184v55h132v126zM69 1568v-127h-53v183h167v-56h-114zM69 47h114
v-55h-167v181h53v-126zM14 755h55v-217h-55v217zM14 1051h55v-219h-55v219zM14 466h55v-216h-55v216zM14 1356h55v-215h-55v215zM1577 1356h52v-217h-52v217zM1577 1046h52v-217h-52v217zM1577 751h52v-214h-52v214zM857 1624h205v-56h-205v56zM266 1624h206v-56h-206v56z
M266 -8v55h206v-55h-206zM857 -8v55h205v-55h-205zM1155 -8v55h205v-55h-205zM560 -8v55h204v-55h-204zM560 1624h204v-56h-204v56zM1155 1624h205v-56h-205v56zM1577 461h52v-211h-52v211z" />
    <glyph glyph-name="uni180F" unicode="&#x180f;" horiz-adv-x="2" 
 />
    <glyph glyph-name="glyph159" horiz-adv-x="675" 
d="M551 1057q0 130 -28 215q-10 31 -23 60t-30.5 51.5t-39 35.5t-48.5 13q-35 0 -63.5 -17t-51.5 -44t-41 -61t-31 -68q-18 -45 -31 -95.5t-22 -103.5t-13.5 -106t-4.5 -101q-2 -97 14.5 -171.5t45.5 -122.5q26 -43 58.5 -65.5t60.5 -22.5q37 0 65.5 18.5t50.5 47t38.5 64
t28.5 69.5q16 45 28.5 95t20.5 102.5t12 105t4 101.5zM635 1049q0 -54 -4.5 -111.5t-14.5 -113.5t-25.5 -110.5t-36.5 -102.5q-19 -43 -44.5 -80.5t-58.5 -65t-73.5 -43.5t-88.5 -16q-118 0 -178 130q-32 65 -51.5 154t-19.5 204q0 116 24 211.5t59 168.5q48 97 117 151.5
t153 54.5q72 0 122 -46.5t79 -119.5q41 -103 41 -265z" />
    <glyph glyph-name="uni1811" unicode="&#x1811;" horiz-adv-x="583" 
d="M543 1035q-4 -77 -9.5 -145.5t-14.5 -133.5t-23 -128.5t-34 -129.5q-21 -71 -52 -140.5t-67 -124.5t-76 -89t-80 -34q-33 0 -66 19t-59 47t-42.5 60.5t-16.5 59.5q0 14 7.5 25.5t17 19.5t19 12t13.5 4q15 0 17.5 -10t7.5 -29q20 -68 46.5 -98.5t64.5 -30.5q34 0 63.5 27
t55 73.5t47 109.5t40.5 135q12 49 24 113.5t21 137t14.5 148.5t5.5 148q-1 24 -2.5 59.5t-5.5 74.5t-11.5 78t-20.5 69.5t-33.5 50t-49.5 19.5q-27 0 -51 -16t-44.5 -42t-38.5 -59t-33 -67q-33 -76 -50.5 -180.5t-17.5 -231.5q0 -73 8.5 -122t19 -84t19.5 -62t9 -56
q0 -21 -15 -31t-37 -10q-20 0 -33.5 15t-22.5 49t-13 89.5t-4 136.5q0 172 25.5 305.5t63.5 218.5q41 92 99.5 143.5t124.5 51.5q43 0 73.5 -23t51.5 -60t34 -84.5t20 -97t9 -96.5t2 -84z" />
    <glyph glyph-name="uni1812" unicode="&#x1812;" horiz-adv-x="784" 
d="M744 1253q0 -44 -9.5 -82t-26 -75t-39 -74.5t-47.5 -79.5q-20 -33 -43 -72t-42 -76.5t-31.5 -71t-12.5 -54.5q0 -32 9 -41t21 -9q25 0 39.5 -7t31.5 -7q23 0 58 36t74 118q8 17 14 26t20 9q10 0 14.5 -7t4.5 -16q0 -20 -18 -56.5t-44 -84.5q-18 -32 -32 -57.5t-29 -43
t-33 -27t-43 -9.5q-26 0 -51.5 7t-45.5 7q-19 0 -34 -5t-27 -11.5t-21 -11.5t-15 -5q-10 0 -23 6.5t-13 19.5q0 3 1 7t3 11q43 90 78 162.5t63 131t50 104.5t38 82q46 103 61.5 166.5t15.5 85.5q0 83 -30.5 133t-84.5 50q-34 0 -79 -28t-92.5 -77.5t-93 -116.5t-82 -146
t-58.5 -165.5t-22 -174.5q0 -59 7.5 -94.5t17 -57.5t17 -34.5t7.5 -24.5q0 -49 -49 -49q-23 0 -38 15t-24 40t-12.5 57.5t-3.5 67.5q0 115 26 222t68.5 200t97.5 169.5t112.5 130.5t113.5 84t101 30q48 0 83 -19t57.5 -51t33.5 -73t11 -84z" />
    <glyph glyph-name="uni1813" unicode="&#x1813;" horiz-adv-x="731" 
d="M692 1333q0 -47 -16 -96.5t-38.5 -96.5t-46.5 -88t-41 -69q-16 -27 -35 -59.5t-34.5 -61.5t-26 -50t-10.5 -27q0 -19 15.5 -29t33.5 -10q19 0 32.5 5t25.5 14.5t23.5 23.5t26.5 33q4 5 10.5 12t10.5 7q11 0 15 -4t4 -16q0 -19 -13.5 -46t-34.5 -52t-47 -43t-50 -18
q-18 0 -41.5 2.5t-42.5 2.5q-14 0 -24 -2t-17.5 -5t-14 -5t-13.5 -2q-20 0 -20 4v12q0 6 12.5 28.5t32 56t44 73.5t48.5 81.5t45 80.5t34 69q14 31 27 65.5t23.5 68.5t16.5 66.5t6 59.5q0 15 -1.5 34.5t-7.5 37t-17 30t-30 12.5q-47 0 -93 -88t-104 -255q-3 -8 -12 -39
t-22.5 -64.5t-31 -60t-36.5 -26.5q-4 0 -8 6t-4 13q0 10 10.5 33.5t24.5 51.5t27.5 55.5t20.5 45.5q27 73 41.5 137t14.5 101q0 86 -83 86q-45 -9 -77.5 -39.5t-54.5 -74.5t-35 -97t-20 -108t-9 -107t-2 -94q0 -57 7.5 -90t16 -52.5t16 -30.5t7.5 -24q0 -17 -14 -32.5
t-35 -15.5q-22 0 -34.5 17t-18.5 42.5t-7 54.5t-1 53q0 46 3.5 112.5t14 138.5t29.5 143.5t48.5 128.5t72 92t100.5 35q28 0 47.5 -11t33.5 -23.5t24 -23.5t18 -11q12 0 27.5 11t35 23.5t43 23.5t49.5 11q25 0 45 -15t33.5 -37t20.5 -47.5t7 -47.5z" />
    <glyph glyph-name="uni1814" unicode="&#x1814;" horiz-adv-x="565" 
d="M525 1158q0 -151 -16.5 -285t-51.5 -268q-15 -61 -38 -121.5t-53.5 -108.5t-69.5 -77.5t-86 -29.5q-38 0 -69.5 31.5t-54 85.5t-34.5 125t-12 149q0 167 51 301q26 67 65.5 129.5t96.5 121.5q6 8 14 11.5t14 3.5q9 0 14 -7t5 -16t-16 -29t-39.5 -51.5t-51 -75
t-50.5 -99.5q-26 -64 -40.5 -142.5t-14.5 -158.5q0 -60 8 -118.5t24 -104t40 -73.5t56 -28q25 0 51.5 21t50.5 60.5t45.5 95.5t38.5 127q39 168 39 418q0 106 -13.5 188t-44.5 142q-17 34 -17 56q0 10 6 19t15 16t19.5 10.5t19.5 3.5q20 0 38 -25t31.5 -68.5t21.5 -102.5
t8 -126z" />
    <glyph glyph-name="uni1815" unicode="&#x1815;" horiz-adv-x="620" 
d="M580 728q0 -18 -13.5 -27.5t-32.5 -9.5q-12 0 -22 27t-19.5 70.5t-18 98.5t-16.5 111q-7 51 -13.5 98.5t-13.5 84t-14.5 59t-16.5 22.5q-8 0 -12.5 -13t-8.5 -42t-8 -75.5t-10 -113.5q-8 -90 -14.5 -157.5t-21.5 -112.5t-43 -67.5t-79 -22.5q-41 0 -70 24t-48.5 71.5
t-30 119t-14.5 166.5q3 28 11.5 41.5t30.5 13.5q13 0 25.5 -8t12.5 -21q0 -20 -3 -36.5l-6 -33t-6 -35.5t-3 -45q0 -105 28.5 -157t73.5 -52q35 0 56 21.5t34 62.5t19 99t11 132q2 36 5 73t7 70.5t9.5 61.5t13.5 46q9 21 14.5 48t5.5 62q0 26 -1 36.5t-2 17.5q0 44 27 44
q13 0 21.5 -16.5t13.5 -38.5t7 -43t2 -31q0 -32 5.5 -71t13.5 -82.5t19.5 -91t23.5 -95.5q14 -56 34 -117.5t34 -131.5q2 -12 2.5 -19.5t0.5 -14.5z" />
    <glyph glyph-name="uni1816" unicode="&#x1816;" horiz-adv-x="705" 
d="M665 728q0 -98 -22.5 -179t-61.5 -139.5t-92 -91t-113 -32.5q-79 0 -141 41.5t-105.5 116.5t-66.5 180.5t-23 233.5q0 144 39 259t99 196t132 124t137 43q25 0 41 -4.5t25.5 -11t13.5 -14.5t4 -15q0 -16 -3 -26t-11 -17t-23.5 -10.5t-40.5 -6.5q-79 -8 -146 -49.5
t-115.5 -109t-76 -159t-27.5 -199.5t19.5 -203.5t56 -166.5t89.5 -112.5t120 -41.5q103 0 155.5 89t52.5 262q0 113 -33.5 168.5t-92.5 55.5q-27 0 -46 -20.5t-32 -46t-20.5 -48.5t-9.5 -28q-5 -11 -11.5 -17t-11.5 -6q-17 0 -17 29q10 54 15.5 112t5.5 115q0 49 -6.5 90
t-6.5 89q0 22 7.5 32.5t30.5 10.5q32 0 32 -35q0 -36 -8.5 -80t-8.5 -106q0 -22 7 -42.5t23 -20.5q7 0 24 7.5t44 7.5q43 0 79.5 -15t63 -43.5t41.5 -70t15 -95.5z" />
    <glyph glyph-name="uni1817" unicode="&#x1817;" horiz-adv-x="645" 
d="M605 877q0 -142 -11 -243t-32 -165t-52.5 -94t-71.5 -30q-72 0 -102 68t-30 202q0 34 3 76t6.5 85.5t6.5 85.5t3 77q0 119 -28.5 176t-86.5 57q-61 0 -91.5 -83t-30.5 -241q0 -85 25 -183.5t73 -214.5q6 -11 8.5 -21t2.5 -18q0 -6 -3 -15t-9.5 -17.5t-16.5 -14.5t-25 -6
q-19 0 -34 27.5t-26.5 71.5t-19.5 99t-13 109t-7.5 103t-2.5 80q0 185 41 278.5t134 93.5q42 0 72 -18t49 -51t28 -80.5t9 -106.5q0 -31 -3 -69t-6.5 -77.5t-6.5 -78.5t-3 -72q0 -112 18.5 -175t57.5 -63q30 0 52.5 33.5t37 93.5t22 142.5t7.5 180.5q0 106 -17 199.5
t-51.5 163.5t-86 110.5t-120.5 40.5q-25 0 -44.5 -7t-37 -15.5t-33.5 -15.5t-34 -7q-22 0 -34 10t-12 40q0 19 15.5 34t41.5 25.5t59.5 16.5t69.5 6q60 0 108.5 -25t86.5 -68t65.5 -101.5t45 -125.5t26 -139.5t8.5 -143.5z" />
    <glyph glyph-name="uni1818" unicode="&#x1818;" horiz-adv-x="651" 
d="M615 905q0 -8 -11 -27t-26.5 -46t-34 -59.5t-33.5 -68.5q-17 -39 -27.5 -69t-17.5 -56.5t-12 -53t-10 -57.5q-6 -29 -18 -45.5t-22 -16.5q-20 0 -41 4t-43 8.5t-44.5 8t-44.5 3.5q-23 0 -44 -4t-40.5 -8.5t-38 -8t-36.5 -3.5q-13 0 -22 9.5t-9 26.5q0 14 8.5 45.5
t22 74.5t31.5 94.5t37 104.5t37.5 106t33.5 98t30.5 93.5t30.5 96.5t29.5 93t26.5 83.5t21.5 67.5t15.5 45q8 20 26.5 28t35.5 8q7 0 16 -1t17 -4.5t14 -11.5t6 -22q0 -6 -20 -41t-51.5 -97.5t-72 -151t-80.5 -199.5q-7 -20 -20 -54.5t-27.5 -75.5t-30 -84t-27.5 -80
t-20 -63.5t-8 -33.5q0 -22 4.5 -36.5t22.5 -15.5q6 0 16 0.5t21 1.5t21.5 2t18.5 1q26 0 51 -6.5t51 -6.5q19 0 37 21t35 53.5t33.5 72.5t33.5 79q18 41 33.5 78.5t28.5 66t24.5 45t21.5 16.5q11 0 25.5 -8.5t14.5 -19.5z" />
    <glyph glyph-name="uni1819" unicode="&#x1819;" horiz-adv-x="525" 
d="M485 1195q0 -42 -7.5 -84.5t-19.5 -84t-26 -80.5t-27 -73q-24 -64 -39.5 -100.5t-15.5 -54.5q0 -15 -0.5 -23.5t13.5 -13.5t30.5 -10t30.5 -10q8 -3 16 -10t8 -20q0 -12 -13 -22.5t-32 -10.5q-9 0 -16 3.5t-17.5 7t-28 7t-46.5 3.5q-24 0 -24 23q0 11 7 31t19 50.5
t28 73.5t33 100q19 61 35 131.5t16 166.5q0 112 -22 174.5t-70 62.5t-83.5 -29t-61 -77t-42 -109.5t-26.5 -126t-14.5 -128t-5.5 -114.5q0 -119 14 -219t39.5 -173.5t62 -114.5t81.5 -41q18 0 32 9t24.5 22.5t18.5 29.5l15 30q5 10 10.5 25t12.5 28.5t16.5 23t22.5 9.5
q8 0 15 -5.5t12 -13.5t7.5 -17.5t2.5 -17.5q0 -27 -17.5 -57t-45 -55.5t-61 -42t-65.5 -16.5q-57 0 -101.5 40t-75.5 116.5t-47.5 187.5t-16.5 252q4 310 75 471t210 161q40 0 70.5 -22t50 -60t29.5 -90t10 -113z" />
    <glyph glyph-name="glyph169" horiz-adv-x="2" 
 />
    <glyph glyph-name="glyph170" horiz-adv-x="2" 
 />
    <glyph glyph-name="glyph171" horiz-adv-x="2" 
 />
    <glyph glyph-name="glyph172" horiz-adv-x="2" 
 />
    <glyph glyph-name="glyph173" horiz-adv-x="2" 
 />
    <glyph glyph-name="glyph174" horiz-adv-x="7" 
 />
    <glyph glyph-name="uni1820" unicode="&#x1820;" horiz-adv-x="1206" 
d="M1171 1358q-69 -106 -133 -211.5t-109 -216.5q-59 -143 -96.5 -296t-50.5 -322q-56 29 -104.5 79.5t-85 109t-59.5 118.5t-27 108h-124q-3 -75 -13.5 -153t-23.5 -157l-36 -10q-20 43 -34 95t-24 102t-14.5 91.5t-4.5 63.5v150q0 40 -9.5 64.5t-32.5 24.5
q-16 0 -28.5 -2.5t-24 -7.5t-23.5 -12t-27 -17q-25 -17 -38.5 -29.5t-20.5 -12.5q-11 10 -19.5 22.5t-8.5 21.5q11 11 25 28t28 33q67 77 114 111t83 34q45 0 70 -44.5t25 -116.5v-97h229v-110q0 -38 13.5 -85.5t33.5 -92.5t42 -82t39 -53q-6 22 -1.5 76t18 124t34 148
t47.5 148q33 85 63 162t53 142t37 117.5t14 89.5q0 16 -4.5 43t-9.5 54t-9.5 49.5t-4.5 30.5q0 26 6.5 38t26.5 12q6 0 17 -12.5t21 -31.5q24 -46 42.5 -84t36.5 -74t37.5 -74.5t44.5 -85.5z" />
    <glyph glyph-name="uni1820.isol" horiz-adv-x="1206" 
d="M1171 1358q-69 -106 -133 -211.5t-109 -216.5q-59 -143 -96.5 -296t-50.5 -322q-56 29 -104.5 79.5t-85 109t-59.5 118.5t-27 108h-124q-3 -75 -13.5 -153t-23.5 -157l-36 -10q-20 43 -34 95t-24 102t-14.5 91.5t-4.5 63.5v150q0 40 -9.5 64.5t-32.5 24.5
q-16 0 -28.5 -2.5t-24 -7.5t-23.5 -12t-27 -17q-25 -17 -38.5 -29.5t-20.5 -12.5q-11 10 -19.5 22.5t-8.5 21.5q11 11 25 28t28 33q67 77 114 111t83 34q45 0 70 -44.5t25 -116.5v-97h229v-110q0 -38 13.5 -85.5t33.5 -92.5t42 -82t39 -53q-6 22 -1.5 76t18 124t34 148
t47.5 148q33 85 63 162t53 142t37 117.5t14 89.5q0 16 -4.5 43t-9.5 54t-9.5 49.5t-4.5 30.5q0 26 6.5 38t26.5 12q6 0 17 -12.5t21 -31.5q24 -46 42.5 -84t36.5 -74t37.5 -74.5t44.5 -85.5z" />
    <glyph glyph-name="uni1820_FVS1.isol" horiz-adv-x="895" 
d="M885 544v-330q0 -69 -12.5 -119.5t-36.5 -88t-60 -64.5t-83 -48q-27 -12 -43 -21.5t-27 -20t-19 -25t-20 -36.5h-18l53 227q11 3 21.5 6t23 7.5t27 11.5t34.5 19q12 7 27 18t28.5 28t23 43t9.5 63v330q0 89 -34 136t-94 47h-303q-3 -75 -13.5 -153t-23.5 -157l-36 -10
q-20 43 -34 95t-24 102t-14.5 91.5t-4.5 63.5v150q0 40 -9.5 64.5t-32.5 24.5q-16 0 -28.5 -2.5t-24 -7.5t-23.5 -12t-27 -17q-25 -17 -38.5 -29.5t-20.5 -12.5q-11 10 -19.5 22.5t-8.5 21.5q11 11 25 28t28 33q67 77 114 111t83 34q45 0 70 -44.5t25 -116.5v-97h340
q99 0 149.5 -90.5t50.5 -274.5z" />
    <glyph glyph-name="uni1820.init" horiz-adv-x="790" 
d="M800 909v-182h-139q-2 -24 -5.5 -67t-8.5 -89.5t-12 -88.5t-14 -66l-35 -11q-30 75 -48.5 157t-26.5 165h-129q-3 -75 -13.5 -153t-24.5 -159l-35 -10q-20 45 -34 97t-24 102t-14.5 91.5t-4.5 63.5v150q0 40 -9.5 64.5t-32.5 24.5q-16 0 -28.5 -2.5t-24 -7.5t-23.5 -12
t-27 -17q-25 -17 -38.5 -29.5t-20.5 -12.5q-11 10 -19.5 22.5t-8.5 21.5q11 11 25 28t28 33q67 77 114 111t83 34q45 0 70 -44.5t25 -116.5v-97h455z" />
    <glyph glyph-name="uni1820.medi" horiz-adv-x="279" 
d="M289 909v-182h-139q-2 -24 -6 -67t-9 -89.5t-12 -88.5t-14 -66l-35 -11q-30 75 -48.5 157t-26.5 165v182h290z" />
    <glyph glyph-name="uni1820.medi_FVS1.calt" horiz-adv-x="558" 
d="M568 909v-182h-139q-2 -24 -6 -67t-9 -89.5t-11.5 -88.5t-13.5 -66l-35 -11q-30 75 -48.5 157t-26.5 165h-129q-2 -24 -6 -67t-9 -89.5t-12 -88.5t-13 -66l-35 -11q-30 75 -48.5 157t-27.5 165v0v182h569z" />
    <glyph glyph-name="uni1820.medi_FVS2.calt" horiz-adv-x="511" 
d="M521 909v-182h-139q-3 -75 -13.5 -153t-23.5 -157l-36 -10q-20 43 -34 95t-24 102t-14.5 91.5t-4.5 63.5v150q0 40 -9.5 64.5t-32.5 24.5q-16 0 -28.5 -2.5t-24 -7.5t-23.5 -12t-27 -17q-25 -17 -38.5 -29.5t-20.5 -12.5q-11 10 -19.5 22.5t-8.5 21.5q11 11 25 28t28 33
q67 77 114 111t83 34q45 0 70 -44.5t25 -116.5v-97h176z" />
    <glyph glyph-name="uni1820.fina" horiz-adv-x="680" 
d="M670 1358q-69 -106 -133 -211.5t-109 -216.5q-59 -143 -96.5 -296t-50.5 -322q-56 29 -104.5 79.5t-85 109t-59.5 118.5t-30 108h-3v182h74v-110q0 -38 13.5 -85.5t33.5 -92.5t42 -82t39 -53q-6 22 -1.5 76t18 124t34 148t47.5 148q33 85 63 162t53 142t37 117.5t14 89.5
q0 16 -4.5 43t-9.5 54t-9.5 49.5t-4.5 30.5q0 26 6.5 38t26.5 12q6 0 17 -12.5t21 -31.5q24 -46 42.5 -84t36.5 -74t37.5 -74.5t44.5 -85.5z" />
    <glyph glyph-name="uni202F_uni1820.fina" horiz-adv-x="354" 
d="M344 544v-330q0 -69 -12.5 -119.5t-36.5 -88t-60 -64.5t-83 -48q-27 -12 -43 -21.5t-27 -20t-19 -25t-20 -36.5h-18l53 227q11 3 21.5 6t23 7.5t27 11.5t34.5 19q12 7 27 18t28.5 28t23 43t9.5 63v330q0 89 -34 136t-94 47h-145v182h145q99 0 149.5 -90.5t50.5 -274.5z
" />
    <glyph glyph-name="glyph184" horiz-adv-x="554" 
d="M515 544v-330q0 -69 -12.5 -119.5t-36.5 -88t-60 -64.5t-83 -48q-27 -12 -43 -21.5t-27 -20t-19 -25t-20 -36.5h-18l53 227q11 3 21.5 6t23 7.5t27 11.5t34.5 19q12 7 27 18t28.5 28t23 43t9.5 63v330q0 89 -34 136t-94 47h-145v182h145q99 0 149.5 -90.5t50.5 -274.5z
" />
    <glyph glyph-name="uni1821" unicode="&#x1821;" horiz-adv-x="895" 
d="M885 544v-330q0 -69 -12.5 -119.5t-36.5 -88t-60 -64.5t-83 -48q-27 -12 -43 -21.5t-27 -20t-19 -25t-20 -36.5h-18l53 227q11 3 21.5 6t23 7.5t27 11.5t34.5 19q12 7 27 18t28.5 28t23 43t9.5 63v330q0 89 -34 136t-94 47h-303q-3 -75 -13.5 -153t-23.5 -157l-36 -10
q-20 43 -34 95t-24 102t-14.5 91.5t-4.5 63.5v150q0 40 -9.5 64.5t-32.5 24.5q-16 0 -28.5 -2.5t-24 -7.5t-23.5 -12t-27 -17q-25 -17 -38.5 -29.5t-20.5 -12.5q-11 10 -19.5 22.5t-8.5 21.5q11 11 25 28t28 33q67 77 114 111t83 34q45 0 70 -44.5t25 -116.5v-97h340
q99 0 149.5 -90.5t50.5 -274.5z" />
    <glyph glyph-name="uni1821.isol" horiz-adv-x="895" 
d="M885 544v-330q0 -69 -12.5 -119.5t-36.5 -88t-60 -64.5t-83 -48q-27 -12 -43 -21.5t-27 -20t-19 -25t-20 -36.5h-18l53 227q11 3 21.5 6t23 7.5t27 11.5t34.5 19q12 7 27 18t28.5 28t23 43t9.5 63v330q0 89 -34 136t-94 47h-303q-3 -75 -13.5 -153t-23.5 -157l-36 -10
q-20 43 -34 95t-24 102t-14.5 91.5t-4.5 63.5v150q0 40 -9.5 64.5t-32.5 24.5q-16 0 -28.5 -2.5t-24 -7.5t-23.5 -12t-27 -17q-25 -17 -38.5 -29.5t-20.5 -12.5q-11 10 -19.5 22.5t-8.5 21.5q11 11 25 28t28 33q67 77 114 111t83 34q45 0 70 -44.5t25 -116.5v-97h340
q99 0 149.5 -90.5t50.5 -274.5z" />
    <glyph glyph-name="uni1821.init" horiz-adv-x="600" 
d="M614 909v-182h-232q-3 -75 -13.5 -153t-23.5 -157l-36 -10q-20 43 -34 95t-24 102t-14.5 91.5t-4.5 63.5v150q0 40 -9.5 64.5t-32.5 24.5q-16 0 -28.5 -2.5t-24 -7.5t-23.5 -12t-27 -17q-25 -17 -38.5 -29.5t-20.5 -12.5q-11 10 -19.5 22.5t-8.5 21.5q11 11 25 28t28 33
q67 77 114 111t83 34q45 0 70 -44.5t25 -116.5v-97h269z" />
    <glyph glyph-name="uni1821.init_FVS1.calt" horiz-adv-x="790" 
d="M800 909v-182h-139q-2 -24 -5.5 -67t-8.5 -89.5t-12 -88.5t-14 -66l-35 -11q-30 75 -48.5 157t-26.5 165h-129q-3 -75 -13.5 -153t-24.5 -159l-35 -10q-20 45 -34 97t-24 102t-14.5 91.5t-4.5 63.5v150q0 40 -9.5 64.5t-32.5 24.5q-16 0 -28.5 -2.5t-24 -7.5t-23.5 -12
t-27 -17q-25 -17 -38.5 -29.5t-20.5 -12.5q-11 10 -19.5 22.5t-8.5 21.5q11 11 25 28t28 33q67 77 114 111t83 34q45 0 70 -44.5t25 -116.5v-97h455z" />
    <glyph glyph-name="uni1821.medi" horiz-adv-x="279" 
d="M289 909v-182h-139q-2 -24 -6 -67t-9 -89.5t-12 -88.5t-14 -66l-35 -11q-30 75 -48.5 157t-26.5 165v182h290z" />
    <glyph glyph-name="uni1821.fina" horiz-adv-x="680" 
d="M670 1358q-69 -106 -133 -211.5t-109 -216.5q-59 -143 -96.5 -296t-50.5 -322q-56 29 -104.5 79.5t-85 109t-59.5 118.5t-30 108h-3v182h74v-110q0 -38 13.5 -85.5t33.5 -92.5t42 -82t39 -53q-6 22 -1.5 76t18 124t34 148t47.5 148q33 85 63 162t53 142t37 117.5t14 89.5
q0 16 -4.5 43t-9.5 54t-9.5 49.5t-4.5 30.5q0 26 6.5 38t26.5 12q6 0 17 -12.5t21 -31.5q24 -46 42.5 -84t36.5 -74t37.5 -74.5t44.5 -85.5z" />
    <glyph glyph-name="uni202F_uni1821.fina" horiz-adv-x="354" 
d="M344 544v-330q0 -69 -12.5 -119.5t-36.5 -88t-60 -64.5t-83 -48q-27 -12 -43 -21.5t-27 -20t-19 -25t-20 -36.5h-18l53 227q11 3 21.5 6t23 7.5t27 11.5t34.5 19q12 7 27 18t28.5 28t23 43t9.5 63v330q0 89 -34 136t-94 47h-145v182h145q99 0 149.5 -90.5t50.5 -274.5z
" />
    <glyph glyph-name="glyph192" horiz-adv-x="554" 
d="M515 544v-330q0 -69 -12.5 -119.5t-36.5 -88t-60 -64.5t-83 -48q-27 -12 -43 -21.5t-27 -20t-19 -25t-20 -36.5h-18l53 227q11 3 21.5 6t23 7.5t27 11.5t34.5 19q12 7 27 18t28.5 28t23 43t9.5 63v330q0 89 -34 136t-94 47h-145v182h145q99 0 149.5 -90.5t50.5 -274.5z
" />
    <glyph glyph-name="uni1822" unicode="&#x1822;" horiz-adv-x="943" 
d="M930 864q0 -30 -3.5 -43.5t-16.5 -13.5q-11 0 -17 12.5t-10 28.5q-9 41 -19.5 88.5t-26.5 88.5t-41 68t-63 27q-44 0 -77 -23.5t-55.5 -64t-34 -95t-11.5 -115.5q0 -30 12.5 -63.5t32 -67t43.5 -66t47.5 -59t44 -48t31.5 -33.5l-47 -158h-18q-34 39 -68 91.5t-61 107
t-44 107.5t-17 94h-129q-3 -75 -13.5 -152t-23.5 -156l-36 -10q-20 43 -34 95t-24 101t-14.5 90.5t-4.5 63.5v150q0 40 -9.5 64.5t-32.5 24.5q-16 0 -28.5 -2.5t-24 -7.5t-23.5 -12t-27 -17q-25 -17 -38.5 -29.5t-20.5 -12.5q-11 10 -19.5 22.5t-8.5 21.5q11 11 25 28t28 33
q67 77 114 111t83 34q45 0 70 -44.5t25 -116.5v-97h166q14 177 70 274t153 97q58 0 96 -37t60 -96.5t31 -133.5t9 -149z" />
    <glyph glyph-name="uni1822.isol" horiz-adv-x="943" 
d="M930 864q0 -30 -3.5 -43.5t-16.5 -13.5q-11 0 -17 12.5t-10 28.5q-9 41 -19.5 88.5t-26.5 88.5t-41 68t-63 27q-44 0 -77 -23.5t-55.5 -64t-34 -95t-11.5 -115.5q0 -30 12.5 -63.5t32 -67t43.5 -66t47.5 -59t44 -48t31.5 -33.5l-47 -158h-18q-34 39 -68 91.5t-61 107
t-44 107.5t-17 94h-129q-3 -75 -13.5 -152t-23.5 -156l-36 -10q-20 43 -34 95t-24 101t-14.5 90.5t-4.5 63.5v150q0 40 -9.5 64.5t-32.5 24.5q-16 0 -28.5 -2.5t-24 -7.5t-23.5 -12t-27 -17q-25 -17 -38.5 -29.5t-20.5 -12.5q-11 10 -19.5 22.5t-8.5 21.5q11 11 25 28t28 33
q67 77 114 111t83 34q45 0 70 -44.5t25 -116.5v-97h166q14 177 70 274t153 97q58 0 96 -37t60 -96.5t31 -133.5t9 -149z" />
    <glyph glyph-name="uni1822.init" horiz-adv-x="916" 
d="M925 909v-182h-346l208 -276v-24l-44 -208h-23l-209 508h-129q-3 -75 -13.5 -154t-23.5 -158l-36 -10q-20 43 -34 96t-24 103t-14.5 91.5t-4.5 63.5v150q0 40 -9.5 64.5t-32.5 24.5q-16 0 -28.5 -2.5t-24 -7.5t-23.5 -12t-27 -17q-25 -17 -38.5 -29.5t-20.5 -12.5
q-11 10 -19.5 22.5t-8.5 21.5q11 11 25 28t28 33q67 77 114 111t83 34q45 0 70 -44.5t25 -116.5v-97h580z" />
    <glyph glyph-name="uni1822.medi" horiz-adv-x="404" 
d="M414 909v-182h-346l207 -276v-24l-44 -208h-23l-209 508v182h415z" />
    <glyph glyph-name="uni1822.medi_FVS1.calt" horiz-adv-x="684" 
d="M694 909v-182h-347l208 -276v-24l-44 -208h-23l-209 508h-129q-2 -24 -6 -67t-9 -89.5t-12 -88.5t-14 -66l-35 -11q-30 75 -48.5 157t-26.5 165v182h695z" />
    <glyph glyph-name="glyph198" horiz-adv-x="642" 
d="M669 909v-182h-297l208 -276v-24l-44 -208h-23l-209 508h-237l208 -276v-24l-44 -208h-23l-209 508v182h670z" />
    <glyph glyph-name="uni1822.fina" horiz-adv-x="438" 
d="M428 864q0 -30 -3.5 -43.5t-16.5 -13.5q-11 0 -17 12.5t-10 28.5q-9 41 -19.5 88.5t-26.5 88.5t-41 68t-63 27q-44 0 -77 -23.5t-55.5 -64t-34 -95t-11.5 -115.5q0 -30 12.5 -63.5t32 -67t43.5 -66t47.5 -60t44 -49t31.5 -33.5l-47 -158h-18q-34 39 -68 91.5t-61 108
t-44 108.5t-17 94h-10v182h10q14 177 70 274t153 97q58 0 96 -37t60 -96.5t31 -133.5t9 -149z" />
    <glyph glyph-name="uni1823" unicode="&#x1823;" horiz-adv-x="859" 
d="M869 909v-319q0 -121 -42 -187.5t-133 -66.5t-137 66.5t-46 187.5v137h-129q-3 -75 -13.5 -153t-23.5 -157l-36 -10q-20 43 -34 95t-24 102t-14.5 91.5t-4.5 63.5v150q0 40 -9.5 64.5t-32.5 24.5q-16 0 -28.5 -2.5t-24 -7.5t-23.5 -12t-27 -17q-25 -17 -38.5 -29.5
t-20.5 -12.5q-11 10 -19.5 22.5t-8.5 21.5q11 11 25 28t28 33q67 77 114 111t83 34q45 0 70 -44.5t25 -116.5v-97h524zM815 727h-250v-137q0 -57 35 -85.5t96 -28.5q55 0 87 28.5t32 85.5v137z" />
    <glyph glyph-name="uni1823.isol" horiz-adv-x="859" 
d="M869 909v-319q0 -121 -42 -187.5t-133 -66.5t-137 66.5t-46 187.5v137h-129q-3 -75 -13.5 -153t-23.5 -157l-36 -10q-20 43 -34 95t-24 102t-14.5 91.5t-4.5 63.5v150q0 40 -9.5 64.5t-32.5 24.5q-16 0 -28.5 -2.5t-24 -7.5t-23.5 -12t-27 -17q-25 -17 -38.5 -29.5
t-20.5 -12.5q-11 10 -19.5 22.5t-8.5 21.5q11 11 25 28t28 33q67 77 114 111t83 34q45 0 70 -44.5t25 -116.5v-97h524zM815 727h-250v-137q0 -57 35 -85.5t96 -28.5q55 0 87 28.5t32 85.5v137z" />
    <glyph glyph-name="uni1823.init" horiz-adv-x="998" 
d="M1008 909v-182h-139v-137q0 -121 -42 -187.5t-133 -66.5t-137 66.5t-46 187.5v137h-129q-3 -75 -13.5 -153t-23.5 -157l-36 -10q-20 43 -34 95t-24 102t-14.5 91.5t-4.5 63.5v150q0 40 -9.5 64.5t-32.5 24.5q-16 0 -28.5 -2.5t-24 -7.5t-23.5 -12t-27 -17
q-25 -17 -38.5 -29.5t-20.5 -12.5q-11 10 -19.5 22.5t-8.5 21.5q11 11 25 28t28 33q67 77 114 111t83 34q45 0 70 -44.5t25 -116.5v-97h663zM815 727h-250v-137q0 -57 35 -85.5t96 -28.5q55 0 87 28.5t32 85.5v137z" />
    <glyph glyph-name="uni1823.medi" horiz-adv-x="486" 
d="M496 909v-182h-139v-137q0 -121 -42 -187.5t-133 -66.5t-137 66.5t-46 187.5v137v182h497zM303 727h-250v-137q0 -57 35 -85.5t96 -28.5q55 0 87 28.5t32 85.5v137z" />
    <glyph glyph-name="uni1823.medi_FVS1.calt" horiz-adv-x="766" 
d="M776 909v-182h-139v-137q0 -121 -42 -187.5t-133 -66.5t-137 66.5t-46 187.5v137h-129q-2 -24 -6 -67t-9 -89.5t-12 -88.5t-14 -66l-35 -11q-30 75 -48.5 157t-26.5 165v182h777zM583 727h-250v-137q0 -57 35 -85.5t96 -28.5q55 0 87 28.5t32 85.5v137z" />
    <glyph glyph-name="uni1823.fina" horiz-adv-x="542" 
d="M324 727h-261q0 -54 2 -100t14 -79.5t38.5 -52.5t75.5 -19t75.5 18.5t39 51.5t14.5 79t2 102zM531 881q0 -36 -8 -55t-14 -19q-14 0 -20.5 15.5t-14.5 61.5q-11 71 -31 123t-46 86t-57 50.5t-65 16.5q-163 0 -208 -251h236q85 0 85 -87v-186q0 -57 -9.5 -111t-32 -96
t-60 -67.5t-93.5 -25.5q-43 0 -73.5 19t-52 51t-35 73t-21 84t-10 86t-2.5 78v182q14 200 82.5 305.5t193.5 105.5q62 0 110 -33t80.5 -91.5t49 -139t16.5 -175.5z" />
    <glyph glyph-name="uni1823.fina_FVS1.calt" horiz-adv-x="367" 
d="M357 909v-319q0 -121 -42 -187.5t-133 -66.5t-137 66.5t-46 187.5v319h358zM303 727h-250v-137q0 -57 35 -85.5t96 -28.5q55 0 87 28.5t32 85.5v137z" />
    <glyph glyph-name="uni1824" unicode="&#x1824;" horiz-adv-x="998" 
d="M1008 909v-182h-139v-137q0 -121 -42 -187.5t-133 -66.5t-137 66.5t-46 187.5v137h-129q-3 -75 -13.5 -153t-23.5 -157l-36 -10q-20 43 -34 95t-24 102t-14.5 91.5t-4.5 63.5v150q0 40 -9.5 64.5t-32.5 24.5q-16 0 -28.5 -2.5t-24 -7.5t-23.5 -12t-27 -17
q-25 -17 -38.5 -29.5t-20.5 -12.5q-11 10 -19.5 22.5t-8.5 21.5q11 11 25 28t28 33q67 77 114 111t83 34q45 0 70 -44.5t25 -116.5v-97h663zM815 727h-250v-137q0 -57 35 -85.5t96 -28.5q55 0 87 28.5t32 85.5v137z" />
    <glyph glyph-name="uni1824.isol" horiz-adv-x="859" 
d="M869 909v-319q0 -121 -42 -187.5t-133 -66.5t-137 66.5t-46 187.5v137h-129q-3 -75 -13.5 -153t-23.5 -157l-36 -10q-20 43 -34 95t-24 102t-14.5 91.5t-4.5 63.5v150q0 40 -9.5 64.5t-32.5 24.5q-16 0 -28.5 -2.5t-24 -7.5t-23.5 -12t-27 -17q-25 -17 -38.5 -29.5
t-20.5 -12.5q-11 10 -19.5 22.5t-8.5 21.5q11 11 25 28t28 33q67 77 114 111t83 34q45 0 70 -44.5t25 -116.5v-97h524zM815 727h-250v-137q0 -57 35 -85.5t96 -28.5q55 0 87 28.5t32 85.5v137z" />
    <glyph glyph-name="uni1824.init" horiz-adv-x="998" 
d="M1008 909v-182h-139v-137q0 -121 -42 -187.5t-133 -66.5t-137 66.5t-46 187.5v137h-129q-3 -75 -13.5 -153t-23.5 -157l-36 -10q-20 43 -34 95t-24 102t-14.5 91.5t-4.5 63.5v150q0 40 -9.5 64.5t-32.5 24.5q-16 0 -28.5 -2.5t-24 -7.5t-23.5 -12t-27 -17
q-25 -17 -38.5 -29.5t-20.5 -12.5q-11 10 -19.5 22.5t-8.5 21.5q11 11 25 28t28 33q67 77 114 111t83 34q45 0 70 -44.5t25 -116.5v-97h663zM815 727h-250v-137q0 -57 35 -85.5t96 -28.5q55 0 87 28.5t32 85.5v137z" />
    <glyph glyph-name="uni1824.medi" horiz-adv-x="486" 
d="M496 909v-182h-139v-137q0 -121 -42 -187.5t-133 -66.5t-137 66.5t-46 187.5v137v182h497zM303 727h-250v-137q0 -57 35 -85.5t96 -28.5q55 0 87 28.5t32 85.5v137z" />
    <glyph glyph-name="uni1824.medi_FVS1.calt" horiz-adv-x="766" 
d="M776 909v-182h-139v-137q0 -121 -42 -187.5t-133 -66.5t-137 66.5t-46 187.5v137h-129q-2 -24 -6 -67t-9 -89.5t-12 -88.5t-14 -66l-35 -11q-30 75 -48.5 157t-26.5 165v182h777zM583 727h-250v-137q0 -57 35 -85.5t96 -28.5q55 0 87 28.5t32 85.5v137z" />
    <glyph glyph-name="uni1824.fina" horiz-adv-x="542" 
d="M324 727h-261q0 -54 2 -100t14 -79.5t38.5 -52.5t75.5 -19t75.5 18.5t39 51.5t14.5 79t2 102zM531 881q0 -36 -8 -55t-14 -19q-14 0 -20.5 15.5t-14.5 61.5q-11 71 -31 123t-46 86t-57 50.5t-65 16.5q-163 0 -208 -251h236q85 0 85 -87v-186q0 -57 -9.5 -111t-32 -96
t-60 -67.5t-93.5 -25.5q-43 0 -73.5 19t-52 51t-35 73t-21 84t-10 86t-2.5 78v182q14 200 82.5 305.5t193.5 105.5q62 0 110 -33t80.5 -91.5t49 -139t16.5 -175.5z" />
    <glyph glyph-name="uni1825" unicode="&#x1825;" horiz-adv-x="1234" 
d="M1224 697v-94q0 -57 -19.5 -92t-48.5 -35v19q0 108 -39.5 168.5t-118.5 63.5h-129v-137q0 -121 -42 -187.5t-133 -66.5t-137 66.5t-46 187.5v137h-129q-3 -75 -13.5 -154t-23.5 -158l-36 -10q-20 43 -34 95t-24 103t-14.5 92.5t-4.5 63.5v150q0 40 -9.5 64.5t-32.5 24.5
q-16 0 -28.5 -2.5t-24 -7.5t-23.5 -12t-27 -17q-25 -17 -38.5 -29.5t-20.5 -12.5q-11 10 -19.5 22.5t-8.5 21.5q11 11 25 28t28 33q67 77 114 111t83 34q45 0 70 -44.5t25 -116.5v-97h722q75 -7 116 -62t41 -150zM815 727h-250v-137q0 -57 35 -85.5t96 -28.5q55 0 87 28.5
t32 85.5v137z" />
    <glyph glyph-name="uni1825.isol" horiz-adv-x="1234" 
d="M1224 697v-94q0 -57 -19.5 -92t-48.5 -35v19q0 108 -39.5 168.5t-118.5 63.5h-129v-137q0 -121 -42 -187.5t-133 -66.5t-137 66.5t-46 187.5v137h-129q-3 -75 -13.5 -154t-23.5 -158l-36 -10q-20 43 -34 95t-24 103t-14.5 92.5t-4.5 63.5v150q0 40 -9.5 64.5t-32.5 24.5
q-16 0 -28.5 -2.5t-24 -7.5t-23.5 -12t-27 -17q-25 -17 -38.5 -29.5t-20.5 -12.5q-11 10 -19.5 22.5t-8.5 21.5q11 11 25 28t28 33q67 77 114 111t83 34q45 0 70 -44.5t25 -116.5v-97h722q75 -7 116 -62t41 -150zM815 727h-250v-137q0 -57 35 -85.5t96 -28.5q55 0 87 28.5
t32 85.5v137z" />
    <glyph glyph-name="uni1825.init" horiz-adv-x="1403" 
d="M1413 909v-182h-347l208 -296v-24l-44 -188h-23l-209 508h-129v-137q0 -121 -42 -187.5t-133 -66.5t-137 66.5t-46 187.5v137h-129q-3 -67 -13.5 -150t-23.5 -162l-36 -10q-20 43 -34 95t-24 107t-14.5 92.5t-4.5 59.5v150q0 40 -9.5 64.5t-32.5 24.5q-16 0 -28.5 -2.5
t-24 -7.5t-23.5 -12t-27 -17q-25 -17 -38.5 -29.5t-20.5 -12.5q-11 10 -19.5 22.5t-8.5 21.5q11 11 25 28t28 33q67 77 114 111t83 34q45 0 70 -44.5t25 -116.5v-97h1068zM815 727h-250v-137q0 -57 35 -85.5t96 -28.5q55 0 87 28.5t32 85.5v137z" />
    <glyph glyph-name="glyph216" horiz-adv-x="891" 
d="M901 909v-182h-347l208 -276v-24l-44 -208h-23l-209 508h-129v-137q0 -121 -42 -187.5t-133 -66.5t-137 66.5t-46 187.5v319h902zM303 727h-250v-137q0 -57 35 -85.5t96 -28.5q55 0 87 28.5t32 85.5v137z" />
    <glyph glyph-name="uni1825.medi" horiz-adv-x="486" 
d="M496 909v-182h-139v-137q0 -121 -42 -187.5t-133 -66.5t-137 66.5t-46 187.5v137v182h497zM303 727h-250v-137q0 -57 35 -85.5t96 -28.5q55 0 87 28.5t32 85.5v137z" />
    <glyph glyph-name="uni1825.medi_FVS2.calt" horiz-adv-x="1170" 
d="M1180 909v-182h-347l208 -276v-24l-44 -208h-23l-209 508h-129v-137q0 -121 -42 -187.5t-133 -66.5t-137 66.5t-46 187.5v137h-128q-2 -24 -6 -67t-9 -89.5t-12 -88.5t-14 -66l-35 -11q-30 75 -48.5 157t-26.5 165v182h1181zM582 727h-250v-137q0 -57 35 -85.5t96 -28.5
q55 0 87 28.5t32 85.5v137z" />
    <glyph glyph-name="uni1825.fina" horiz-adv-x="542" 
d="M324 727h-261q0 -54 2 -100t14 -79.5t38.5 -52.5t75.5 -19t75.5 18.5t39 51.5t14.5 79t2 102zM531 881q0 -36 -8 -55t-14 -19q-14 0 -20.5 15.5t-14.5 61.5q-11 71 -31 123t-46 86t-57 50.5t-65 16.5q-163 0 -208 -251h236q85 0 85 -87v-186q0 -57 -9.5 -111t-32 -96
t-60 -67.5t-93.5 -25.5q-43 0 -73.5 19t-52 51t-35 73t-21 84t-10 86t-2.5 78v182q14 200 82.5 305.5t193.5 105.5q62 0 110 -33t80.5 -91.5t49 -139t16.5 -175.5z" />
    <glyph glyph-name="uni1825_FVS1.fina" horiz-adv-x="722" 
d="M712 697v-94q0 -57 -19.5 -92t-48.5 -35v19q0 108 -39.5 168.5t-118.5 63.5h-129v-137q0 -121 -42 -187.5t-133 -66.5t-137 66.5t-46 187.5v319h556q75 -7 116 -62t41 -150zM303 727h-250v-137q0 -57 35 -85.5t96 -28.5q55 0 87 28.5t32 85.5v137z" />
    <glyph glyph-name="uni1826" unicode="&#x1826;" horiz-adv-x="1403" 
d="M1413 909v-182h-347l208 -296v-24l-44 -188h-23l-209 508h-129v-137q0 -121 -42 -187.5t-133 -66.5t-137 66.5t-46 187.5v137h-129q-3 -67 -13.5 -150t-23.5 -162l-36 -10q-20 43 -34 95t-24 107t-14.5 92.5t-4.5 59.5v150q0 40 -9.5 64.5t-32.5 24.5q-16 0 -28.5 -2.5
t-24 -7.5t-23.5 -12t-27 -17q-25 -17 -38.5 -29.5t-20.5 -12.5q-11 10 -19.5 22.5t-8.5 21.5q11 11 25 28t28 33q67 77 114 111t83 34q45 0 70 -44.5t25 -116.5v-97h1068zM815 727h-250v-137q0 -57 35 -85.5t96 -28.5q55 0 87 28.5t32 85.5v137z" />
    <glyph glyph-name="uni1826.isol" horiz-adv-x="1234" 
d="M1224 697v-94q0 -57 -19.5 -92t-48.5 -35v19q0 108 -39.5 168.5t-118.5 63.5h-129v-137q0 -121 -42 -187.5t-133 -66.5t-137 66.5t-46 187.5v137h-129q-3 -75 -13.5 -154t-23.5 -158l-36 -10q-20 43 -34 95t-24 103t-14.5 92.5t-4.5 63.5v150q0 40 -9.5 64.5t-32.5 24.5
q-16 0 -28.5 -2.5t-24 -7.5t-23.5 -12t-27 -17q-25 -17 -38.5 -29.5t-20.5 -12.5q-11 10 -19.5 22.5t-8.5 21.5q11 11 25 28t28 33q67 77 114 111t83 34q45 0 70 -44.5t25 -116.5v-97h722q75 -7 116 -62t41 -150zM815 727h-250v-137q0 -57 35 -85.5t96 -28.5q55 0 87 28.5
t32 85.5v137z" />
    <glyph glyph-name="uni1826_FVS1.isol" horiz-adv-x="1080" 
d="M1040 881q0 -36 -8 -55t-14 -19q-14 0 -20.5 15.5t-14.5 61.5q-11 71 -31 123t-46 86t-57 50.5t-65 16.5q-163 0 -208 -251h236q85 0 85 -87v-186q0 -57 -9.5 -111t-32 -96t-60 -67.5t-93.5 -25.5q-43 0 -73.5 19t-52 51t-35 73t-21 84t-10 86t-2.5 78h-126
q-3 -75 -13.5 -153t-23.5 -157l-36 -10q-20 43 -34 95t-24 102t-14.5 91.5t-4.5 63.5v150q0 40 -9.5 64.5t-32.5 24.5q-16 0 -28.5 -2.5t-24 -7.5t-23.5 -12t-27 -17q-25 -17 -38.5 -29.5t-20.5 -12.5q-11 10 -19.5 22.5t-8.5 21.5q11 11 25 28t28 33q67 77 114 111t83 34
q45 0 70 -44.5t25 -116.5v-97h163q14 200 82.5 305.5t193.5 105.5q62 0 110 -33t80.5 -91.5t49 -139t16.5 -175.5zM833 727h-261q0 -54 2 -100t14 -79.5t38.5 -52.5t75.5 -19t75.5 18.5t39 51.5t14.5 79t2 102z" />
    <glyph glyph-name="uni1826.init" horiz-adv-x="1403" 
d="M1413 909v-182h-347l208 -296v-24l-44 -188h-23l-209 508h-129v-137q0 -121 -42 -187.5t-133 -66.5t-137 66.5t-46 187.5v137h-129q-3 -67 -13.5 -150t-23.5 -162l-36 -10q-20 43 -34 95t-24 107t-14.5 92.5t-4.5 59.5v150q0 40 -9.5 64.5t-32.5 24.5q-16 0 -28.5 -2.5
t-24 -7.5t-23.5 -12t-27 -17q-25 -17 -38.5 -29.5t-20.5 -12.5q-11 10 -19.5 22.5t-8.5 21.5q11 11 25 28t28 33q67 77 114 111t83 34q45 0 70 -44.5t25 -116.5v-97h1068zM815 727h-250v-137q0 -57 35 -85.5t96 -28.5q55 0 87 28.5t32 85.5v137z" />
    <glyph glyph-name="glyph225" horiz-adv-x="891" 
d="M901 909v-182h-347l208 -276v-24l-44 -208h-23l-209 508h-129v-137q0 -121 -42 -187.5t-133 -66.5t-137 66.5t-46 187.5v319h902zM303 727h-250v-137q0 -57 35 -85.5t96 -28.5q55 0 87 28.5t32 85.5v137z" />
    <glyph glyph-name="uni1826.medi" horiz-adv-x="486" 
d="M496 909v-182h-139v-137q0 -121 -42 -187.5t-133 -66.5t-137 66.5t-46 187.5v137v182h497zM303 727h-250v-137q0 -57 35 -85.5t96 -28.5q55 0 87 28.5t32 85.5v137z" />
    <glyph glyph-name="uni1826.medi_FVS2.calt" horiz-adv-x="1170" 
d="M1180 909v-182h-347l208 -276v-24l-44 -208h-23l-209 508h-129v-137q0 -121 -42 -187.5t-133 -66.5t-137 66.5t-46 187.5v137h-128q-2 -24 -6 -67t-9 -89.5t-12 -88.5t-14 -66l-35 -11q-30 75 -48.5 157t-26.5 165v182h1181zM582 727h-250v-137q0 -57 35 -85.5t96 -28.5
q55 0 87 28.5t32 85.5v137z" />
    <glyph glyph-name="uni1826.fina" horiz-adv-x="542" 
d="M324 727h-261q0 -54 2 -100t14 -79.5t38.5 -52.5t75.5 -19t75.5 18.5t39 51.5t14.5 79t2 102zM531 881q0 -36 -8 -55t-14 -19q-14 0 -20.5 15.5t-14.5 61.5q-11 71 -31 123t-46 86t-57 50.5t-65 16.5q-163 0 -208 -251h236q85 0 85 -87v-186q0 -57 -9.5 -111t-32 -96
t-60 -67.5t-93.5 -25.5q-43 0 -73.5 19t-52 51t-35 73t-21 84t-10 86t-2.5 78v182q14 200 82.5 305.5t193.5 105.5q62 0 110 -33t80.5 -91.5t49 -139t16.5 -175.5z" />
    <glyph glyph-name="uni1826.fina_FVS1.calt" horiz-adv-x="722" 
d="M712 697v-94q0 -57 -19.5 -92t-48.5 -35v19q0 108 -39.5 168.5t-118.5 63.5h-129v-137q0 -121 -42 -187.5t-133 -66.5t-137 66.5t-46 187.5v319h556q75 -7 116 -62t41 -150zM303 727h-250v-137q0 -57 35 -85.5t96 -28.5q55 0 87 28.5t32 85.5v137z" />
    <glyph glyph-name="uni1827" unicode="&#x1827;" horiz-adv-x="1321" 
d="M1311 697v-94q0 -57 -19.5 -92t-48.5 -35v19q0 108 -39.5 168.5t-118.5 63.5h-494l54 -239q14 -51 29.5 -89t35 -63t45 -37.5t58.5 -12.5q29 0 47 11t29.5 24.5t19 25t16.5 11.5q17 0 24 -16.5t7 -46.5q0 -31 -11 -58t-30.5 -47.5t-45.5 -32t-56 -11.5q-49 0 -85.5 21.5
t-65 62t-50.5 100t-40 134.5l-61 263h-129q-3 -75 -13.5 -154t-23.5 -158l-36 -10q-20 43 -34 95t-24 103t-14.5 92.5t-4.5 63.5v150q0 40 -9.5 64.5t-32.5 24.5q-16 0 -28.5 -2.5t-24 -7.5t-23.5 -12t-27 -17q-25 -17 -38.5 -29.5t-20.5 -12.5q-11 10 -19.5 22.5t-8.5 21.5
q11 11 25 28t28 33q67 77 114 111t83 34q45 0 70 -44.5t25 -116.5v-97h809q75 -7 116 -62t41 -150z" />
    <glyph glyph-name="uni1827.isol" horiz-adv-x="1321" 
d="M1311 697v-94q0 -57 -19.5 -92t-48.5 -35v19q0 108 -39.5 168.5t-118.5 63.5h-494l54 -239q14 -51 29.5 -89t35 -63t45 -37.5t58.5 -12.5q29 0 47 11t29.5 24.5t19 25t16.5 11.5q17 0 24 -16.5t7 -46.5q0 -31 -11 -58t-30.5 -47.5t-45.5 -32t-56 -11.5q-49 0 -85.5 21.5
t-65 62t-50.5 100t-40 134.5l-61 263h-129q-3 -75 -13.5 -154t-23.5 -158l-36 -10q-20 43 -34 95t-24 103t-14.5 92.5t-4.5 63.5v150q0 40 -9.5 64.5t-32.5 24.5q-16 0 -28.5 -2.5t-24 -7.5t-23.5 -12t-27 -17q-25 -17 -38.5 -29.5t-20.5 -12.5q-11 10 -19.5 22.5t-8.5 21.5
q11 11 25 28t28 33q67 77 114 111t83 34q45 0 70 -44.5t25 -116.5v-97h809q75 -7 116 -62t41 -150z" />
    <glyph glyph-name="uni1827.init" horiz-adv-x="1085" 
d="M1095 909v-182h-504l54 -239q14 -51 29.5 -89t35 -63t45 -37.5t58.5 -12.5q29 0 47 11t29.5 24.5t19 25t16.5 11.5q17 0 24 -16.5t7 -46.5q0 -31 -11 -58t-30.5 -47.5t-45.5 -32t-56 -11.5q-49 0 -85.5 21.5t-65 62t-50.5 100t-40 134.5l-61 263h-129q-3 -75 -13.5 -154
t-23.5 -158l-36 -10q-20 43 -34 95t-24 103t-14.5 92.5t-4.5 63.5v150q0 40 -9.5 64.5t-32.5 24.5q-16 0 -28.5 -2.5t-24 -7.5t-23.5 -12t-27 -17q-25 -17 -38.5 -29.5t-20.5 -12.5q-11 10 -19.5 22.5t-8.5 21.5q11 11 25 28t28 33q67 77 114 111t83 34q45 0 70 -44.5
t25 -116.5v-97h750z" />
    <glyph glyph-name="uni1827.medi" horiz-adv-x="574" 
d="M583 909v-182h-504l54 -239q14 -51 29.5 -89t35 -63t45 -37.5t58.5 -12.5q29 0 47 11t29.5 24.5t19 25t16.5 11.5q17 0 24 -16.5t7 -46.5q0 -31 -11 -58t-30.5 -47.5t-45.5 -32t-56 -11.5q-49 0 -85.5 21.5t-65 62t-50.5 100t-40 134.5l-61 263v182h584z" />
    <glyph glyph-name="uni1827.fina" horiz-adv-x="810" 
d="M800 697v-94q0 -57 -19.5 -92t-48.5 -35v19q0 108 -39.5 168.5t-118.5 63.5h-495l54 -239q14 -51 29.5 -89t35 -63t45 -37.5t58.5 -12.5q29 0 47 11t29.5 24.5t19 25t16.5 11.5q17 0 24 -16.5t7 -46.5q0 -31 -11 -58t-30.5 -47.5t-45.5 -32t-56 -11.5q-49 0 -85.5 21.5
t-65 62t-50.5 100t-40 134.5l-61 263v182h644q75 -7 116 -62t41 -150z" />
    <glyph glyph-name="uni1828" unicode="&#x1828;" horiz-adv-x="511" 
d="M370 176q0 -10 -6 -18t-15.5 -16.5t-21.5 -18t-24 -22.5q-11 -12 -19 -23t-14.5 -19.5t-12.5 -13.5t-13 -5q-17 0 -28.5 8.5t-11.5 26.5q0 23 3.5 41.5t11.5 41.5q5 14 13 30t18.5 29.5t23 22t27.5 8.5q16 0 36 -18q33 -30 33 -54zM521 909v-182h-139q-3 -75 -13.5 -154
t-23.5 -158l-36 -10q-20 43 -34 96t-24 103t-14.5 91.5t-4.5 63.5v150q0 40 -9.5 64.5t-32.5 24.5q-16 0 -28.5 -2.5t-24 -7.5t-23.5 -12t-27 -17q-25 -17 -38.5 -29.5t-20.5 -12.5q-11 10 -19.5 22.5t-8.5 21.5q11 11 25 28t28 33q67 77 114 111t83 34q45 0 70 -44.5
t25 -116.5v-97h176z" />
    <glyph glyph-name="uni1828.init" horiz-adv-x="511" 
d="M370 176q0 -10 -6 -18t-15.5 -16.5t-21.5 -18t-24 -22.5q-11 -12 -19 -23t-14.5 -19.5t-12.5 -13.5t-13 -5q-17 0 -28.5 8.5t-11.5 26.5q0 23 3.5 41.5t11.5 41.5q5 14 13 30t18.5 29.5t23 22t27.5 8.5q16 0 36 -18q33 -30 33 -54zM521 909v-182h-139q-3 -75 -13.5 -154
t-23.5 -158l-36 -10q-20 43 -34 95t-24 103t-14.5 92.5t-4.5 63.5v150q0 40 -9.5 64.5t-32.5 24.5q-16 0 -28.5 -2.5t-24 -7.5t-23.5 -12t-27 -17q-25 -17 -38.5 -29.5t-20.5 -12.5q-11 10 -19.5 22.5t-8.5 21.5q11 11 25 28t28 33q67 77 114 111t83 34q45 0 70 -44.5
t25 -116.5v-97h176z" />
    <glyph glyph-name="uni1828.init_FVS1.calt" horiz-adv-x="511" 
d="M521 909v-182h-139q-3 -75 -13.5 -154t-23.5 -158l-36 -10q-20 43 -34 95t-24 103t-14.5 92.5t-4.5 63.5v150q0 40 -9.5 64.5t-32.5 24.5q-16 0 -28.5 -2.5t-24 -7.5t-23.5 -12t-27 -17q-25 -17 -38.5 -29.5t-20.5 -12.5q-11 10 -19.5 22.5t-8.5 21.5q11 11 25 28t28 33
q67 77 114 111t83 34q45 0 70 -44.5t25 -116.5v-97h176z" />
    <glyph glyph-name="uni1828.medi" horiz-adv-x="279" 
d="M289 909v-182h-139q-2 -24 -6 -67t-19 -89.5t-22 -88.5t-14 -66l-35 -11q-30 75 -38.5 157t-16.5 165v182h290z" />
    <glyph glyph-name="glyph239" horiz-adv-x="279" 
d="M289 909v-182h-139q-2 -24 -16 -67t-19 -89.5t-12 -88.5t-14 -66l-35 -11q-30 75 -38.5 157t-16.5 165v182h290zM170 178q0 -10 -6 -18t-15.5 -16.5t-21.5 -18t-24 -22.5q-11 -12 -19 -23t-14.5 -19.5t-12.5 -13.5t-13 -5q-17 0 -28.5 8.5t-11.5 26.5q0 23 3.5 41.5
t11.5 41.5q5 14 13 30t18.5 29.5t23 22t27.5 8.5q16 0 36 -18q33 -30 33 -54z" />
    <glyph glyph-name="uni1828.medi_FVS2.calt" horiz-adv-x="682" 
d="M672 1358q-69 -106 -133 -211.5t-109 -216.5q-59 -143 -96.5 -296t-50.5 -322q-56 29 -104.5 79.5t-85 109t-59.5 118.5t-27 108h-8v182h76v-110q0 -38 13.5 -85.5t33.5 -92.5t42 -82t39 -53q-6 22 -1.5 76t18 124t34 148t47.5 148q33 85 63 162t53 142t37 117.5t14 89.5
q0 16 -4.5 43t-9.5 54t-9.5 49.5t-4.5 30.5q0 26 6.5 38t26.5 12q6 0 17 -12.5t21 -31.5q24 -46 42.5 -84t36.5 -74t37.5 -74.5t44.5 -85.5zM601 259q0 -10 -6 -18t-15.5 -16.5t-21.5 -18t-24 -22.5q-11 -12 -19 -23t-14.5 -19.5t-12.5 -13.5t-13 -5q-17 0 -28.5 8.5
t-11.5 26.5q0 23 3.5 41.5t11.5 41.5q5 14 13 30t18.5 29.5t23 22t27.5 8.5q16 0 36 -18q33 -30 33 -54z" />
    <glyph glyph-name="uni1828.fina" horiz-adv-x="682" 
d="M672 1358q-69 -106 -133 -211.5t-109 -216.5q-59 -143 -96.5 -296t-50.5 -322q-56 29 -104.5 79.5t-85 109t-59.5 118.5t-27 108h-8v182h76v-110q0 -38 13.5 -85.5t33.5 -92.5t42 -82t39 -53q-6 22 -1.5 76t18 124t34 148t47.5 148q33 85 63 162t53 142t37 117.5t14 89.5
q0 16 -4.5 43t-9.5 54t-9.5 49.5t-4.5 30.5q0 26 6.5 38t26.5 12q6 0 17 -12.5t21 -31.5q24 -46 42.5 -84t36.5 -74t37.5 -74.5t44.5 -85.5z" />
    <glyph glyph-name="glyph242" horiz-adv-x="355" 
d="M365 909v-182h-139q-3 -26 -7.5 -68t-13 -88.5t-20.5 -88.5t-19 -66l-35 -11q-30 75 -38 157t-17 165h-77v182h366zM223 178q0 -10 -6 -18t-15.5 -16.5t-21.5 -18t-24 -22.5q-11 -12 -19 -23t-14.5 -19.5t-12.5 -13.5t-13 -5q-17 0 -28.5 8.5t-11.5 26.5q0 23 3.5 41.5
t11.5 41.5q5 14 13 30t18.5 29.5t23 22t27.5 8.5q16 0 36 -18q33 -30 33 -54z" />
    <glyph glyph-name="uni1829" unicode="&#x1829;" horiz-adv-x="702" 
d="M692 784q0 -30 -3.5 -43.5t-16.5 -13.5q-11 0 -17 12.5t-10 28.5q-9 41 -18.5 85.5t-26.5 82t-47.5 62t-81.5 24.5q-24 0 -50 -8t-48 -30.5t-36 -61.5t-14 -100q0 -36 14.5 -68t35.5 -61t45 -55t43 -48l-27 -166h-13q-6 12 -16.5 27.5t-22.5 33t-24.5 35.5t-21.5 33
q-10 16 -20 36.5t-18.5 43t-13.5 46.5t-5 48h-129q-2 -24 -6 -67t-11 -89.5t-14 -88.5t-14 -66l-35 -11q-30 75 -46.5 157t-24.5 165v182h280q7 88 30 141.5t52 83t59.5 39t51.5 9.5q58 0 99.5 -34t68.5 -90t39.5 -127.5t12.5 -146.5z" />
    <glyph glyph-name="uni1829.medi" horiz-adv-x="702" 
d="M712 909v-182h-27q-11 0 -23.5 12.5t-16.5 28.5q-9 41 -18.5 85.5t-26.5 82t-47.5 62t-81.5 24.5q-24 0 -50 -8t-48 -30.5t-36 -61.5t-14 -100q0 -36 14.5 -68t35.5 -61t45 -55t43 -48l-27 -166h-13q-6 12 -16.5 27.5t-22.5 33t-24.5 35.5t-21.5 33q-10 16 -20 36.5
t-18.5 43t-13.5 46.5t-5 48h-129q-2 -24 -6 -67t-11 -89.5t-14 -88.5t-14 -66l-35 -11q-30 75 -46.5 157t-24.5 165v182h280q7 88 30 141.5t52 83t59.5 39t51.5 9.5q46 0 82 -22t62 -59t43.5 -87t25.5 -105h27z" />
    <glyph glyph-name="uni1829.fina" horiz-adv-x="1089" 
d="M1079 544v-320q0 -69 -12.5 -119.5t-36.5 -88t-60 -64.5t-83 -48q-27 -12 -43 -21.5t-27 -20t-19 -25t-20 -36.5h-18l53 227q11 3 21.5 6t23 7.5t27 11.5t34.5 19q12 7 27 18t28.5 28t23 43t9.5 63v320q0 89 -34 136t-94 47h-519l208 -276v-24l-44 -208h-23l-209 508
h-142q-2 -24 -6 -67t-11.5 -89.5t-14.5 -88.5t-14 -66l-35 -11q-30 75 -46 157t-24 165v182h880q99 0 149.5 -90.5t50.5 -274.5z" />
    <glyph glyph-name="uni182A" unicode="&#x182a;" horiz-adv-x="541" 
d="M324 727h-261q0 -54 2 -100t14 -79.5t38.5 -52.5t75.5 -19t75.5 18.5t39 51.5t14.5 79t2 102zM531 881q0 -36 -8 -55t-14 -19q-14 0 -20.5 15.5t-14.5 61.5q-11 71 -31 123t-46 86t-57 50.5t-65 16.5q-163 0 -208 -251h236q85 0 85 -87v-186q0 -57 -9.5 -111t-32 -96
t-60 -67.5t-93.5 -25.5q-43 0 -73.5 19t-52 51t-35 73t-21 84t-10 86t-2.5 78v182q14 200 82.5 305.5t193.5 105.5q62 0 110 -33t80.5 -91.5t49 -139t16.5 -175.5z" />
    <glyph glyph-name="uni182A.init" horiz-adv-x="541" 
d="M551 909v-182h-16q-6 0 -12.5 8t-14.5 26t-16 48t-17 75q-28 143 -79 209.5t-120 66.5q-163 0 -208 -251h236q85 0 85 -87v-186q0 -57 -9.5 -111t-32 -96t-60 -67.5t-93.5 -25.5q-43 0 -73.5 19t-52 51t-35 73t-21 84t-10 86t-2.5 78v182q14 200 82.5 305.5t193.5 105.5
q60 0 107 -30t79.5 -84.5t50 -130t19.5 -166.5h19zM325 727h-261q0 -54 2 -100t14 -79.5t38.5 -52.5t75.5 -19t75.5 18.5t39 51.5t14.5 79t2 102z" />
    <glyph glyph-name="uni182A.medi" horiz-adv-x="541" 
d="M551 909v-182h-16q-6 0 -12.5 8t-14.5 26t-16 48t-17 75q-28 143 -79 209.5t-120 66.5q-163 0 -208 -251h236q85 0 85 -87v-186q0 -57 -9.5 -111t-32 -96t-60 -67.5t-93.5 -25.5q-43 0 -73.5 19t-52 51t-35 73t-21 84t-10 86t-2.5 78v182q14 200 82.5 305.5t193.5 105.5
q60 0 107 -30t79.5 -84.5t50 -130t19.5 -166.5h19zM325 727h-261q0 -54 2 -100t14 -79.5t38.5 -52.5t75.5 -19t75.5 18.5t39 51.5t14.5 79t2 102z" />
    <glyph glyph-name="uni182A.fina" horiz-adv-x="644" 
d="M634 303q0 -69 -12.5 -119.5t-36.5 -88t-60 -64.5t-83 -48q-27 -12 -43 -21.5t-27 -20t-19 -25t-20 -36.5h-18l53 227q11 3 21.5 6t23 7.5t27 11.5t34.5 19q12 7 27 18t28.5 28t23 43t9.5 63v543q0 25 -4 60.5t-14 73.5t-27.5 75.5t-44.5 67.5t-64.5 48.5t-87.5 18.5
q-55 0 -97 -20.5t-73 -57.5t-51.5 -89t-31.5 -114h236q85 0 85 -87v-186q0 -57 -9.5 -111t-32 -96t-60 -67.5t-93.5 -25.5q-43 0 -73.5 19t-52 51t-35 73t-21 84t-10 86t-2.5 78v182q7 99 32 180.5t66 139.5t97.5 89.5t125.5 31.5q61 0 108 -22t82 -59.5t58.5 -88t38 -106.5
t21 -114.5t6.5 -113.5v-543zM324 727h-261q0 -54 2 -100t14 -79.5t38.5 -52.5t75.5 -19t75.5 18.5t39 51.5t14.5 79t2 102z" />
    <glyph glyph-name="uni182A.fina_FVS1.calt" horiz-adv-x="854" 
d="M844 544v-330q0 -69 -12.5 -119.5t-36.5 -88t-60 -64.5t-83 -48q-27 -12 -43 -21.5t-27 -20t-19 -25t-20 -36.5h-18l53 227q11 3 21.5 6t23 7.5t27 11.5t34.5 19q12 7 27 18t28.5 28t23 43t9.5 63v330q0 89 -34 136t-94 47h-287v-137q0 -121 -42 -187.5t-133 -66.5
t-137 66.5t-46 187.5v319h645q99 0 149.5 -90.5t50.5 -274.5zM303 727h-250v-137q0 -57 35 -85.5t96 -28.5q55 0 87 28.5t32 85.5v137z" />
    <glyph glyph-name="uni182B" unicode="&#x182b;" horiz-adv-x="544" 
d="M534 909q0 -21 -0.5 -39.5t-3.5 -32.5t-8.5 -22t-14.5 -8q-6 0 -11 7t-9.5 18t-7.5 24.5t-5 27.5q-10 72 -29.5 124t-45.5 86t-58 50t-66 16q-163 0 -208 -251h236q85 0 85 -87v-164q0 -67 -12 -115t-35.5 -80.5t-59 -50t-83.5 -23.5q-72 -8 -111.5 -25t-59.5 -27
q-2 13 -3 30t-1 25q0 35 7 61t27.5 45t57.5 31t96 19q25 3 45 9.5t33 20.5t20 38.5t7 63.5v47h-317v182q7 99 30 176t59.5 129t84 79t102.5 27q60 0 108 -34t81.5 -91t51.5 -131.5t18 -154.5z" />
    <glyph glyph-name="uni182B.init" horiz-adv-x="544" 
d="M554 909v-182h-20q-6 0 -12.5 8t-14.5 26t-16 48t-17 75q-28 143 -79 209.5t-120 66.5q-163 0 -208 -251h236q85 0 85 -87v-164q0 -67 -12 -115t-35.5 -80.5t-59 -50t-83.5 -23.5q-72 -8 -111.5 -25t-59.5 -27q-2 13 -3 30t-1 25q0 35 7 61t27.5 45t57.5 31t96 19
q25 3 45 9.5t33 20.5t20 38.5t7 63.5v47h-317v182q7 99 29.5 176t58.5 129t83.5 79t104.5 27q60 0 107 -30t79.5 -84.5t50 -130t19.5 -166.5h23z" />
    <glyph glyph-name="uni182B.medi" horiz-adv-x="544" 
d="M554 909v-182h-20q-6 0 -12.5 8t-14.5 26t-16 48t-17 75q-28 143 -79 209.5t-120 66.5q-163 0 -208 -251h236q85 0 85 -87v-164q0 -67 -12 -115t-35.5 -80.5t-59 -50t-83.5 -23.5q-72 -8 -111.5 -25t-59.5 -27q-2 13 -3 30t-1 25q0 35 7 61t27.5 45t57.5 31t96 19
q25 3 45 9.5t33 20.5t20 38.5t7 63.5v47h-317v182q7 99 29.5 176t58.5 129t83.5 79t104.5 27q60 0 107 -30t79.5 -84.5t50 -130t19.5 -166.5h23z" />
    <glyph glyph-name="uni182B.fina" horiz-adv-x="599" 
d="M589 846v-543q0 -69 -12.5 -119.5t-36.5 -88t-60 -64.5t-83 -48q-27 -12 -43 -21.5t-27 -20t-19 -25t-20 -36.5h-18l53 227q11 3 21.5 6t23 7.5t27 11.5t34.5 19q12 7 27 18t28.5 28t23 43t9.5 63v543q0 25 -4 60t-14 73t-27.5 75.5t-44.5 67t-64.5 47.5t-87.5 18
q-41 0 -74.5 -20t-59.5 -56.5t-44.5 -88t-29.5 -113.5h236q85 0 85 -87v-164q0 -67 -12 -115t-35.5 -80.5t-59 -50t-83.5 -23.5q-72 -8 -111.5 -25t-59.5 -27q-2 13 -3 30t-1 25q0 35 7 61t27.5 45t57.5 31t96 19q25 3 45 9.5t33 20.5t20 38.5t7 63.5v47h-317v182
q7 99 29.5 180.5t58.5 139.5t83.5 89.5t104.5 31.5q61 0 108 -22t82 -59.5t58.5 -88t38 -106.5t21 -114.5t6.5 -113.5z" />
    <glyph glyph-name="uni182C" unicode="&#x182c;" horiz-adv-x="740" 
d="M750 909v-182h-139q-13 -83 -22 -163t-32 -159h-27q-12 39 -24.5 84.5t-22 88.5t-16 81.5t-6.5 67.5q0 18 4 38t8.5 44.5t8.5 55t4 69.5q0 91 -29.5 138.5t-75.5 47.5q-34 0 -61 -21.5t-46 -60t-29 -91t-10 -114.5q0 -64 17 -109.5t38 -84t38 -72.5t17 -74
q0 -88 -113 -88q-27 0 -49.5 4t-38.5 10.5t-24.5 14t-7.5 14.5q3 22 21 33t38 25t36.5 38.5t16.5 72.5q0 21 -7 45t-19.5 43.5t-31.5 32t-43 12.5q-10 0 -20 -3.5t-20.5 -8t-21 -8t-19.5 -3.5q-14 17 -18 41t-4 54q0 29 8.5 47t22.5 29t30.5 18.5t33 15.5t30 19.5t20.5 31.5
q52 144 110.5 220.5t127.5 76.5q34 0 66 -18t57 -55t40 -94.5t15 -136.5v-67h169z" />
    <glyph glyph-name="uni182C.init" horiz-adv-x="740" 
d="M750 909v-182h-139q-13 -83 -22 -163t-32 -159h-27q-12 39 -24.5 84.5t-22 88.5t-16 81.5t-6.5 67.5q0 18 4 38t8.5 44.5t8.5 55t4 69.5q0 91 -29.5 138.5t-75.5 47.5q-34 0 -61 -21.5t-46 -60t-29 -91t-10 -114.5q0 -64 17 -109.5t38 -84t38 -72.5t17 -74
q0 -88 -113 -88q-27 0 -49.5 4t-38.5 10.5t-24.5 14t-7.5 14.5q3 22 21 33t38 25t36.5 38.5t16.5 72.5q0 21 -7 45t-19.5 43.5t-31.5 32t-43 12.5q-10 0 -20 -3.5t-20.5 -8t-21 -8t-19.5 -3.5q-14 17 -18 41t-4 54q0 29 8.5 47t22.5 29t30.5 18.5t33 15.5t30 19.5t20.5 31.5
q52 144 110.5 220.5t127.5 76.5q34 0 66 -18t57 -55t40 -94.5t15 -136.5v-67h169z" />
    <glyph glyph-name="uni182C_FVS1.init" horiz-adv-x="740" 
d="M750 909v-182h-139q-13 -83 -22 -163t-32 -159h-27q-12 39 -24.5 83.5t-22 87.5t-16 82.5t-6.5 68.5q0 18 4 38t8.5 44.5t8.5 55t4 69.5q0 91 -29.5 138.5t-75.5 47.5q-34 0 -61 -21.5t-46 -60t-29 -91t-10 -114.5q0 -64 17 -109.5t38 -84t38 -72.5t17 -74
q0 -88 -113 -88q-27 0 -49.5 4t-38.5 10.5t-24.5 14t-7.5 14.5q3 22 21 33t38 25t36.5 38.5t16.5 72.5q0 23 -7 46t-19.5 42.5t-31.5 32t-43 12.5q-10 0 -20 -3.5t-20.5 -8t-21 -8t-19.5 -3.5q-14 17 -18 41t-4 54q0 29 8.5 47t22.5 29t30.5 18.5t33 15.5t30 19.5t20.5 31.5
q52 144 110.5 220.5t127.5 76.5q34 0 66 -18t57 -55t40 -94.5t15 -136.5v-67h169zM503 -52q0 -10 -6 -18t-15.5 -16.5t-21.5 -18t-24 -22.5q-11 -12 -19 -23t-14.5 -19.5t-12.5 -13.5t-13 -5q-17 0 -28.5 8.5t-11.5 26.5q0 23 3.5 41.5t11.5 41.5q5 14 13 30t18.5 29.5
t23 22t27.5 8.5q16 0 36 -18q33 -30 33 -54zM403 198q0 -10 -6 -18t-15.5 -16.5t-21.5 -18t-24 -22.5q-11 -12 -19 -23t-14.5 -19.5t-12.5 -13.5t-13 -5q-17 0 -28.5 8.5t-11.5 26.5q0 23 3.5 41.5t11.5 41.5q5 14 13 29t18.5 28.5t23 22t27.5 8.5q16 0 36 -18
q33 -30 33 -52z" />
    <glyph glyph-name="uni182C.medi" horiz-adv-x="567" 
d="M577 909v-182h-139q-2 -24 -6 -67t-8.5 -89.5t-11.5 -88.5t-14 -66l-35 -11q-30 75 -48.5 157t-26.5 165h-129q-2 -24 -6 -67t-9 -89.5t-11.5 -88.5t-13.5 -66l-35 -11q-30 75 -48.5 157t-26.5 165h-10v182h578z" />
    <glyph glyph-name="uni182C_FVS1.medi" horiz-adv-x="567" 
d="M503 158q0 -10 -6 -18t-15.5 -16.5t-21.5 -18t-24 -22.5q-11 -12 -19 -23t-14.5 -19.5t-12.5 -13.5t-13 -5q-17 0 -28.5 8.5t-11.5 26.5q0 23 3.5 41.5t11.5 41.5q5 14 13 30t18.5 29.5t23 22t27.5 8.5q16 0 36 -18q33 -30 33 -54zM214 187q0 -10 -6 -18t-15.5 -16.5
t-21.5 -18t-24 -22.5q-11 -12 -19 -23t-14.5 -19.5t-12.5 -13.5t-13 -5q-17 0 -28.5 8.5t-11.5 26.5q0 23 3.5 41.5t11.5 41.5q5 14 13 30t18.5 29.5t23 22t27.5 8.5q16 0 36 -18q33 -30 33 -54zM577 909v-182h-139q-2 -24 -6 -67t-8.5 -89.5t-11.5 -88.5t-14 -66l-35 -11
q-30 75 -48.5 157t-26.5 165h-129q-2 -24 -6 -67t-9 -89.5t-11.5 -88.5t-13.5 -66l-35 -11q-30 75 -48.5 157t-26.5 165h-10v182h578z" />
    <glyph glyph-name="uni182C.medi_FVS2.calt" horiz-adv-x="836" 
d="M705 178q0 -10 -6 -18t-15.5 -16.5t-21.5 -18t-24 -22.5q-11 -12 -19 -23t-14.5 -19.5t-12.5 -13.5t-13 -5q-17 0 -28.5 8.5t-11.5 26.5q0 23 3.5 41.5t11.5 41.5q5 14 13 30t18.5 29.5t23 22t27.5 8.5q16 0 36 -18q33 -30 33 -54zM445 248q0 -10 -6 -18t-15.5 -16.5
t-21.5 -18t-24 -22.5q-11 -12 -19 -23t-14.5 -19.5t-12.5 -13.5t-13 -5q-17 0 -28.5 8.5t-11.5 26.5q0 23 3.5 41.5t11.5 41.5q5 14 13 30t18.5 29.5t23 22t27.5 8.5q16 0 36 -18q33 -30 33 -54zM826 1142q-24 -27 -52.5 -64t-56 -79t-51.5 -86t-38 -85q-17 -47 -30.5 -89.5
t-24 -92.5t-16 -114.5t-5.5 -155.5q-56 29 -104 69.5t-84 87t-58.5 96.5t-26.5 98h-129q-2 -24 -6 -67t-9 -89.5t-12 -88.5t-14 -66l-35 -11q-30 75 -48.5 157t-26.5 165v182h348v-137q0 -38 12.5 -74.5t31.5 -68t40 -57t38 -41.5q0 33 1 72.5t6 86t15.5 98t30.5 108.5
q28 79 48.5 136t34 100.5t20 79t6.5 72.5q0 16 -4.5 38t-9.5 43.5t-9.5 39t-4.5 25.5q0 26 7.5 38t27.5 12q17 0 36.5 -38.5t50.5 -99.5q33 -66 60.5 -114.5t40.5 -85.5z" />
    <glyph glyph-name="uni182C.fina" horiz-adv-x="836" 
d="M826 1142q-24 -27 -52.5 -64t-56 -79t-51.5 -86t-38 -85q-17 -47 -30.5 -89.5t-24 -92.5t-16 -114.5t-5.5 -155.5q-56 29 -104 69.5t-84 87t-58.5 96.5t-26.5 98h-129q-2 -24 -6 -67t-9 -89.5t-12 -88.5t-14 -66l-35 -11q-30 75 -48.5 157t-26.5 165v182h348v-137
q0 -38 12.5 -74.5t31.5 -68t40 -57t38 -41.5q0 33 1 72.5t6 86t15.5 98t30.5 108.5q28 79 48.5 136t34 100.5t20 79t6.5 72.5q0 16 -4.5 38t-9.5 43.5t-9.5 39t-4.5 25.5q0 26 7.5 38t27.5 12q17 0 36.5 -38.5t50.5 -99.5q33 -66 60.5 -114.5t40.5 -85.5z" />
    <glyph glyph-name="uni182C_FVS1.isol" horiz-adv-x="540" 
d="M560 909v-182h-93q-17 0 -26 17.5t-13 40.5t-4.5 47t-0.5 38q0 16 -1 40.5t-6.5 52.5t-15.5 56t-28 50.5t-45 36.5t-66 14q-50 0 -88.5 -31t-64.5 -76.5t-39 -98t-13 -94.5q0 -79 42 -165.5t118 -169.5l-47 -158h-18q-70 91 -111 192.5t-41 207.5v182q7 81 29.5 149.5
t57 117.5t80 76.5t98.5 27.5q55 0 95.5 -28t67.5 -77.5t41 -117.5t17 -148h75z" />
    <glyph glyph-name="uni182C.init_FVS2.isol" horiz-adv-x="540" 
d="M560 909v-182h-93q-17 0 -26 17.5t-13 40.5t-4.5 47t-0.5 38q0 16 -1 40.5t-6.5 52.5t-15.5 56t-28 50.5t-45 36.5t-66 14q-50 0 -88.5 -31t-64.5 -76.5t-39 -98t-13 -94.5q0 -79 42 -165.5t118 -169.5l-47 -158h-18q-70 91 -111 192.5t-41 207.5v182q7 81 29.5 149.5
t57 117.5t80 76.5t98.5 27.5q55 0 95.5 -28t67.5 -77.5t41 -117.5t17 -148h75zM232 188q0 -10 -6 -18t-15.5 -16.5t-21.5 -18t-24 -22.5q-11 -12 -19 -23t-14.5 -19.5t-12.5 -13.5t-13 -5q-17 0 -28.5 8.5t-11.5 26.5q0 23 3.5 41.5t11.5 41.5q5 14 13 30t18.5 29.5t23 22
t27.5 8.5q16 0 36 -18q33 -30 33 -54zM472 188q0 -10 -6 -18t-15.5 -16.5t-21.5 -18t-24 -22.5q-11 -12 -19 -23t-14.5 -19.5t-12.5 -13.5t-13 -5q-17 0 -28.5 8.5t-11.5 26.5q0 23 3.5 41.5t11.5 41.5q5 14 13 30t18.5 29.5t23 22t27.5 8.5q16 0 36 -18q33 -30 33 -54z" />
    <glyph glyph-name="uni182D" unicode="&#x182d;" horiz-adv-x="740" 
d="M750 909v-182h-139q-13 -83 -22 -163t-32 -159h-27q-12 39 -24.5 83.5t-22 87.5t-16 82.5t-6.5 68.5q0 18 4 38t8.5 44.5t8.5 55t4 69.5q0 91 -29.5 138.5t-75.5 47.5q-34 0 -61 -21.5t-46 -60t-29 -91t-10 -114.5q0 -64 17 -109.5t38 -84t38 -72.5t17 -74
q0 -88 -113 -88q-27 0 -49.5 4t-38.5 10.5t-24.5 14t-7.5 14.5q3 22 21 33t38 25t36.5 38.5t16.5 72.5q0 23 -7 46t-19.5 42.5t-31.5 32t-43 12.5q-10 0 -20 -3.5t-20.5 -8t-21 -8t-19.5 -3.5q-14 17 -18 41t-4 54q0 29 8.5 47t22.5 29t30.5 18.5t33 15.5t30 19.5t20.5 31.5
q52 144 110.5 220.5t127.5 76.5q34 0 66 -18t57 -55t40 -94.5t15 -136.5v-67h169zM503 -52q0 -10 -6 -18t-15.5 -16.5t-21.5 -18t-24 -22.5q-11 -12 -19 -23t-14.5 -19.5t-12.5 -13.5t-13 -5q-17 0 -28.5 8.5t-11.5 26.5q0 23 3.5 41.5t11.5 41.5q5 14 13 30t18.5 29.5
t23 22t27.5 8.5q16 0 36 -18q33 -30 33 -54zM403 198q0 -10 -6 -18t-15.5 -16.5t-21.5 -18t-24 -22.5q-11 -12 -19 -23t-14.5 -19.5t-12.5 -13.5t-13 -5q-17 0 -28.5 8.5t-11.5 26.5q0 23 3.5 41.5t11.5 41.5q5 14 13 29t18.5 28.5t23 22t27.5 8.5q16 0 36 -18
q33 -30 33 -52z" />
    <glyph glyph-name="uni182D.init" horiz-adv-x="740" 
d="M750 909v-182h-139q-13 -83 -22 -163t-32 -159h-27q-12 39 -24.5 83.5t-22 87.5t-16 82.5t-6.5 68.5q0 18 4 38t8.5 44.5t8.5 55t4 69.5q0 91 -29.5 138.5t-75.5 47.5q-34 0 -61 -21.5t-46 -60t-29 -91t-10 -114.5q0 -64 17 -109.5t38 -84t38 -72.5t17 -74
q0 -88 -113 -88q-27 0 -49.5 4t-38.5 10.5t-24.5 14t-7.5 14.5q3 22 21 33t38 25t36.5 38.5t16.5 72.5q0 23 -7 46t-19.5 42.5t-31.5 32t-43 12.5q-10 0 -20 -3.5t-20.5 -8t-21 -8t-19.5 -3.5q-14 17 -18 41t-4 54q0 29 8.5 47t22.5 29t30.5 18.5t33 15.5t30 19.5t20.5 31.5
q52 144 110.5 220.5t127.5 76.5q34 0 66 -18t57 -55t40 -94.5t15 -136.5v-67h169zM503 -52q0 -10 -6 -18t-15.5 -16.5t-21.5 -18t-24 -22.5q-11 -12 -19 -23t-14.5 -19.5t-12.5 -13.5t-13 -5q-17 0 -28.5 8.5t-11.5 26.5q0 23 3.5 41.5t11.5 41.5q5 14 13 30t18.5 29.5
t23 22t27.5 8.5q16 0 36 -18q33 -30 33 -54zM403 198q0 -10 -6 -18t-15.5 -16.5t-21.5 -18t-24 -22.5q-11 -12 -19 -23t-14.5 -19.5t-12.5 -13.5t-13 -5q-17 0 -28.5 8.5t-11.5 26.5q0 23 3.5 41.5t11.5 41.5q5 14 13 29t18.5 28.5t23 22t27.5 8.5q16 0 36 -18
q33 -30 33 -52z" />
    <glyph glyph-name="uni182D.init_FVS1.calt" horiz-adv-x="740" 
d="M750 909v-182h-139q-13 -83 -22 -163t-32 -159h-27q-12 39 -24.5 84.5t-22 88.5t-16 81.5t-6.5 67.5q0 18 4 38t8.5 44.5t8.5 55t4 69.5q0 91 -29.5 138.5t-75.5 47.5q-34 0 -61 -21.5t-46 -60t-29 -91t-10 -114.5q0 -64 17 -109.5t38 -84t38 -72.5t17 -74
q0 -88 -113 -88q-27 0 -49.5 4t-38.5 10.5t-24.5 14t-7.5 14.5q3 22 21 33t38 25t36.5 38.5t16.5 72.5q0 21 -7 45t-19.5 43.5t-31.5 32t-43 12.5q-10 0 -20 -3.5t-20.5 -8t-21 -8t-19.5 -3.5q-14 17 -18 41t-4 54q0 29 8.5 47t22.5 29t30.5 18.5t33 15.5t30 19.5t20.5 31.5
q52 144 110.5 220.5t127.5 76.5q34 0 66 -18t57 -55t40 -94.5t15 -136.5v-67h169z" />
    <glyph glyph-name="uni182D.medi" horiz-adv-x="567" 
d="M577 909v-182h-139q-2 -24 -6 -67t-8.5 -89.5t-11.5 -88.5t-14 -66l-35 -11q-30 75 -48.5 157t-26.5 165h-129q-2 -24 -6 -67t-9 -89.5t-11.5 -88.5t-13.5 -66l-35 -11q-30 75 -48.5 157t-26.5 165h-10v182h578z" />
    <glyph glyph-name="glyph268" horiz-adv-x="567" 
d="M503 158q0 -10 -6 -18t-15.5 -16.5t-21.5 -18t-24 -22.5q-11 -12 -19 -23t-14.5 -19.5t-12.5 -13.5t-13 -5q-17 0 -28.5 8.5t-11.5 26.5q0 23 3.5 41.5t11.5 41.5q5 14 13 30t18.5 29.5t23 22t27.5 8.5q16 0 36 -18q33 -30 33 -54zM214 187q0 -10 -6 -18t-15.5 -16.5
t-21.5 -18t-24 -22.5q-11 -12 -19 -23t-14.5 -19.5t-12.5 -13.5t-13 -5q-17 0 -28.5 8.5t-11.5 26.5q0 23 3.5 41.5t11.5 41.5q5 14 13 30t18.5 29.5t23 22t27.5 8.5q16 0 36 -18q33 -30 33 -54zM577 909v-182h-139q-2 -24 -6 -67t-8.5 -89.5t-11.5 -88.5t-14 -66l-35 -11
q-30 75 -48.5 157t-26.5 165h-129q-2 -24 -6 -67t-9 -89.5t-11.5 -88.5t-13.5 -66l-35 -11q-30 75 -48.5 157t-26.5 165h-10v182h578z" />
    <glyph glyph-name="glyph269" horiz-adv-x="836" 
d="M705 178q0 -10 -6 -18t-15.5 -16.5t-21.5 -18t-24 -22.5q-11 -12 -19 -23t-14.5 -19.5t-12.5 -13.5t-13 -5q-17 0 -28.5 8.5t-11.5 26.5q0 23 3.5 41.5t11.5 41.5q5 14 13 30t18.5 29.5t23 22t27.5 8.5q16 0 36 -18q33 -30 33 -54zM445 248q0 -10 -6 -18t-15.5 -16.5
t-21.5 -18t-24 -22.5q-11 -12 -19 -23t-14.5 -19.5t-12.5 -13.5t-13 -5q-17 0 -28.5 8.5t-11.5 26.5q0 23 3.5 41.5t11.5 41.5q5 14 13 30t18.5 29.5t23 22t27.5 8.5q16 0 36 -18q33 -30 33 -54zM826 1142q-24 -27 -52.5 -64t-56 -79t-51.5 -86t-38 -85q-17 -47 -30.5 -89.5
t-24 -92.5t-16 -114.5t-5.5 -155.5q-56 29 -104 69.5t-84 87t-58.5 96.5t-26.5 98h-129q-2 -24 -6 -67t-9 -89.5t-12 -88.5t-14 -66l-35 -11q-30 75 -48.5 157t-26.5 165v182h348v-137q0 -38 12.5 -74.5t31.5 -68t40 -57t38 -41.5q0 33 1 72.5t6 86t15.5 98t30.5 108.5
q28 79 48.5 136t34 100.5t20 79t6.5 72.5q0 16 -4.5 38t-9.5 43.5t-9.5 39t-4.5 25.5q0 26 7.5 38t27.5 12q17 0 36.5 -38.5t50.5 -99.5q33 -66 60.5 -114.5t40.5 -85.5z" />
    <glyph glyph-name="uni182D.fina" horiz-adv-x="836" 
d="M826 1142q-24 -27 -52.5 -64t-56 -79t-51.5 -86t-38 -85q-17 -47 -30.5 -89.5t-24 -92.5t-16 -114.5t-5.5 -155.5q-56 29 -104 69.5t-84 87t-58.5 96.5t-26.5 98h-129q-2 -24 -6 -67t-9 -89.5t-12 -88.5t-14 -66l-35 -11q-30 75 -48.5 157t-26.5 165v182h348v-137
q0 -38 12.5 -74.5t31.5 -68t40 -57t38 -41.5q0 33 1 72.5t6 86t15.5 98t30.5 108.5q28 79 48.5 136t34 100.5t20 79t6.5 72.5q0 16 -4.5 38t-9.5 43.5t-9.5 39t-4.5 25.5q0 26 7.5 38t27.5 12q17 0 36.5 -38.5t50.5 -99.5q33 -66 60.5 -114.5t40.5 -85.5z" />
    <glyph glyph-name="uni182D.init_uni200D.isol" horiz-adv-x="540" 
d="M560 909v-182h-93q-17 0 -26 17.5t-13 40.5t-4.5 47t-0.5 38q0 16 -1 40.5t-6.5 52.5t-15.5 56t-28 50.5t-45 36.5t-66 14q-50 0 -88.5 -31t-64.5 -76.5t-39 -98t-13 -94.5q0 -79 42 -165.5t118 -169.5l-47 -158h-18q-70 91 -111 192.5t-41 207.5v182q7 81 29.5 149.5
t57 117.5t80 76.5t98.5 27.5q55 0 95.5 -28t67.5 -77.5t41 -117.5t17 -148h75z" />
    <glyph glyph-name="uni182D_FVS1.isol" horiz-adv-x="540" 
d="M560 909v-182h-93q-17 0 -26 17.5t-13 40.5t-4.5 47t-0.5 38q0 16 -1 40.5t-6.5 52.5t-15.5 56t-28 50.5t-45 36.5t-66 14q-50 0 -88.5 -31t-64.5 -76.5t-39 -98t-13 -94.5q0 -79 42 -165.5t118 -169.5l-47 -158h-18q-70 91 -111 192.5t-41 207.5v182q7 81 29.5 149.5
t57 117.5t80 76.5t98.5 27.5q55 0 95.5 -28t67.5 -77.5t41 -117.5t17 -148h75zM232 188q0 -10 -6 -18t-15.5 -16.5t-21.5 -18t-24 -22.5q-11 -12 -19 -23t-14.5 -19.5t-12.5 -13.5t-13 -5q-17 0 -28.5 8.5t-11.5 26.5q0 23 3.5 41.5t11.5 41.5q5 14 13 30t18.5 29.5t23 22
t27.5 8.5q16 0 36 -18q33 -30 33 -54zM472 188q0 -10 -6 -18t-15.5 -16.5t-21.5 -18t-24 -22.5q-11 -12 -19 -23t-14.5 -19.5t-12.5 -13.5t-13 -5q-17 0 -28.5 8.5t-11.5 26.5q0 23 3.5 41.5t11.5 41.5q5 14 13 30t18.5 29.5t23 22t27.5 8.5q16 0 36 -18q33 -30 33 -54z" />
    <glyph glyph-name="glyph273" horiz-adv-x="490" 
d="M500 909v-182h-52q-6 -2 -15 11.5t-18 31.5t-16.5 36t-10.5 25q-29 87 -74.5 130t-99.5 43q-41 0 -73 -14t-54 -38t-33 -57.5t-11 -72.5q0 -26 9 -59.5t27.5 -70t46 -73.5t63.5 -69v-166h-20q-37 40 -68 87t-53.5 93.5t-35.5 89t-13 73.5v182q0 53 19 98t49.5 78
t70.5 51.5t82 18.5q46 0 81.5 -28t62.5 -67.5t45 -81.5t28 -69h63z" />
    <glyph glyph-name="glyph274" horiz-adv-x="789" 
d="M779 544v-330q0 -59 -12.5 -109.5t-36.5 -88t-60 -64.5t-83 -48q-27 -12 -43 -21.5t-27 -20t-19 -25t-20 -36.5h-18l53 227q11 3 21.5 6t23 7.5t27 11.5t34.5 19q12 7 27 18t28.5 28t23 38t9.5 58v330q0 89 -34 136t-94 47h-512l208 -276v-24l-44 -208h-23l-209 508v182
h580q99 0 149.5 -90.5t50.5 -274.5z" />
    <glyph glyph-name="uni182E" unicode="&#x182e;" horiz-adv-x="511" 
d="M521 909v-182h-139q-3 -75 -13.5 -153t-23.5 -157l-36 -10q-20 43 -34 95t-24 102t-14.5 91.5t-4.5 63.5v150q0 40 -9.5 64.5t-32.5 24.5q-16 0 -28.5 -2.5t-24 -7.5t-23.5 -12t-27 -17q-25 -17 -38.5 -29.5t-20.5 -12.5q-11 10 -19.5 22.5t-8.5 21.5q11 11 25 28t28 33
q55 63 96.5 97t73.5 44l-41 261q10 10 36 17t58 7q35 0 59.5 6t40.5 21t25.5 39.5t14.5 60.5q20 -26 26 -53t6 -54q0 -73 -38.5 -118t-120.5 -45h-39l20 -141q36 -10 55.5 -52.5t19.5 -105.5v-97h176z" />
    <glyph glyph-name="uni182E.init" horiz-adv-x="511" 
d="M521 909v-182h-139q-3 -75 -13.5 -153t-23.5 -157l-36 -10q-20 43 -34 95t-24 102t-14.5 91.5t-4.5 63.5v150q0 40 -9.5 64.5t-32.5 24.5q-16 0 -28.5 -2.5t-24 -7.5t-23.5 -12t-27 -17q-25 -17 -38.5 -29.5t-20.5 -12.5q-11 10 -19.5 22.5t-8.5 21.5q11 11 25 28t28 33
q55 63 96.5 97t73.5 44l-41 261q10 10 36 17t58 7q35 0 59.5 6t40.5 21t25.5 39.5t14.5 60.5q20 -26 26 -53t6 -54q0 -73 -38.5 -118t-120.5 -45h-39l20 -141q36 -10 55.5 -52.5t19.5 -105.5v-97h176z" />
    <glyph glyph-name="uni182E.medi" horiz-adv-x="279" 
d="M289 909v-182h-139q-2 -24 -6 -67t-9 -89.5t-12 -88.5t-14 -66l-35 -11q-30 75 -48.5 157t-26.5 165v182h44l-45 310q10 10 36 17t58 7q35 0 59.5 6t40.5 21t25.5 39.5t14.5 60.5q20 -26 26 -53t6 -54q0 -73 -38.5 -118t-120.5 -45l-39 1l24 -192h199z" />
    <glyph glyph-name="uni182E.fina" horiz-adv-x="627" 
d="M617 1172q-21 -33 -45.5 -72.5t-49 -96.5t-46 -100t-35.5 -84q-17 -47 -33 -102.5t-29.5 -119t-22.5 -135t-10 -150.5q-56 29 -104.5 79.5t-85 109t-59.5 118.5t-27 108h-71v182h44l-45 310q10 10 36 17t58 7q35 0 59.5 6t40.5 21t25.5 39.5t14.5 60.5q20 -26 26 -53
t6 -54q0 -73 -38.5 -118t-120.5 -45l-39 1l24 -192h48v-110q0 -38 12.5 -84t31.5 -89t40 -78t38 -51q0 33 4 78t13 97t23 109t34 114q28 79 43.5 150t23 113.5t9 77t1.5 71.5q0 16 -4.5 53t-9.5 64t-9.5 49.5t-4.5 30.5q0 26 7.5 38t27.5 12q9 0 19.5 -14t23 -36.5t26.5 -52
t29 -59.5q33 -86 60.5 -134.5t40.5 -85.5z" />
    <glyph glyph-name="uni182F" unicode="&#x182f;" horiz-adv-x="511" 
d="M521 909v-182h-139q-3 -75 -13.5 -153t-23.5 -157l-36 -10q-20 43 -34 95t-24 102t-14.5 91.5t-4.5 63.5v150q0 40 -9.5 64.5t-32.5 24.5q-16 0 -28.5 -2.5t-24 -7.5t-23.5 -12t-27 -17q-25 -17 -38.5 -29.5t-20.5 -12.5q-11 10 -19.5 22.5t-8.5 21.5q11 11 25 28t28 33
q64 74 110 108t81 37l20 139l-39 -1q-82 0 -120.5 45t-38.5 118q0 27 6 54t26 53q5 -36 14.5 -60.5t25.5 -39.5t40.5 -21t59.5 -6q32 0 58 -7t36 -17l-43 -269q27 -17 41.5 -56t14.5 -93v-97h176z" />
    <glyph glyph-name="uni182F.init" horiz-adv-x="511" 
d="M521 909v-182h-139q-3 -75 -13.5 -153t-23.5 -157l-36 -10q-20 43 -34 95t-24 102t-14.5 91.5t-4.5 63.5v150q0 40 -9.5 64.5t-32.5 24.5q-16 0 -28.5 -2.5t-24 -7.5t-23.5 -12t-27 -17q-25 -17 -38.5 -29.5t-20.5 -12.5q-11 10 -19.5 22.5t-8.5 21.5q11 11 25 28t28 33
q64 74 110 108t81 37l20 139l-39 -1q-82 0 -120.5 45t-38.5 118q0 27 6 54t26 53q5 -36 14.5 -60.5t25.5 -39.5t40.5 -21t59.5 -6q32 0 58 -7t36 -17l-43 -269q27 -17 41.5 -56t14.5 -93v-97h176z" />
    <glyph glyph-name="uni182F.medi" horiz-adv-x="294" 
d="M364 909v-182h-213q-2 -24 -6 -67t-9 -89.5t-12 -88.5t-14 -66l-35 -11q-30 75 -48.5 157t-26.5 165v182h173l31 192l-39 -1q-82 0 -120.5 45t-38.5 118q0 27 6 54t26 53q5 -36 14.5 -60.5t25.5 -39.5t40.5 -21t59.5 -6q32 0 58 -7t36 -17l-52 -310h144z" />
    <glyph glyph-name="uni182F.fina" horiz-adv-x="506" 
d="M496 1284q-3 -26 -17.5 -59t-34 -74t-41.5 -89.5t-40.5 -104t-31 -118.5t-12.5 -133q0 -57 5 -116.5t12.5 -114.5t16 -101t16.5 -76q-45 11 -85 38.5t-74.5 64.5t-62.5 80.5t-48.5 87.5t-33 85t-15.5 73h-51v182h119v-110q0 -38 14 -84t34 -89t42.5 -78t39.5 -51
q0 16 -1 40.5t-1.5 53t-1.5 58.5t-1 57q0 66 10.5 132.5t27.5 127t37.5 112t40.5 89.5h-105q-166 0 -190 304h23q29 -113 193 -122h123q47 0 72.5 -13.5t20.5 -51.5z" />
    <glyph glyph-name="uni1830" unicode="&#x1830;" horiz-adv-x="679" 
d="M689 909v-182h-139l-46 -312l-28 -10q-24 65 -39.5 122t-23.5 101.5t-10.5 70t-2.5 28.5v142q0 17 2.5 44t5.5 56.5l6 59t4 52.5q0 5 -2 12t-2 12q-10 -9 -19.5 -28t-17.5 -41t-15 -42.5t-11 -33.5q-35 -99 -79 -156.5t-97 -57.5q-34 0 -61 14t-45.5 39t-28.5 59.5
t-10 75.5q0 17 4.5 30t20.5 13q9 0 19 -11.5t23.5 -25.5t32 -25.5t45.5 -11.5q53 0 86.5 41.5t54.5 119.5q28 104 56.5 160t44.5 56q21 0 34.5 -12.5t21 -30t10.5 -37.5t3 -35q0 -20 -1.5 -53t-3.5 -70t-4.5 -72.5t-4.5 -60.5h217z" />
    <glyph glyph-name="uni1830.init" horiz-adv-x="679" 
d="M689 909v-182h-139l-46 -312l-28 -10q-24 65 -39.5 122t-23.5 101.5t-10.5 70t-2.5 28.5v142q0 17 2.5 44t5.5 56.5l6 59t4 52.5q0 5 -2 12t-2 12q-10 -9 -19.5 -28t-17.5 -41t-15 -42.5t-11 -33.5q-35 -99 -79 -156.5t-97 -57.5q-34 0 -61 14t-45.5 39t-28.5 59.5
t-10 75.5q0 17 4.5 30t20.5 13q9 0 19 -11.5t23.5 -25.5t32 -25.5t45.5 -11.5q53 0 86.5 41.5t54.5 119.5q28 104 56.5 160t44.5 56q21 0 34.5 -12.5t21 -30t10.5 -37.5t3 -35q0 -20 -1.5 -53t-3.5 -70t-4.5 -72.5t-4.5 -60.5h217z" />
    <glyph glyph-name="uni1830.medi" horiz-adv-x="574" 
d="M584 909v-182h-139l-57 -313l-33 -8q-17 30 -27 77.5t-15.5 102.5t-7 99t-1.5 67v103q0 37 -1.5 85t-5 93.5t-9 81t-13.5 46.5q-12 0 -28.5 -22.5t-34.5 -60t-36 -86.5t-32 -101q-12 -42 -19.5 -88.5t-12.5 -87.5t-7 -73.5t-2 -46.5q0 -41 2.5 -82t9.5 -82l-30 -26
q-71 95 -86 322v182h44q15 48 34.5 94.5t41 88t44.5 77t45 60.5q88 91 128 91q13 0 21 -12t11.5 -27.5t9 -49t10 -70.5t9 -63t7.5 -70l11 -119h169z" />
    <glyph glyph-name="uni1830.fina" horiz-adv-x="732" 
d="M722 1222q0 -9 -9 -31.5t-24 -54.5q-27 -59 -60.5 -128.5t-62 -146t-48 -168t-19.5 -170.5q0 -27 1 -51.5t3 -44.5l-47 19q-50 59 -82 129.5t-51.5 154.5t-28.5 153.5t-12.5 127t-4 97.5t-2.5 53q-12 0 -28.5 -22.5t-34.5 -60t-36 -86.5t-32 -101q-12 -42 -19.5 -88.5
t-12.5 -88.5t-7 -74.5t-2 -46.5q0 -41 2.5 -81t9.5 -81l-30 -26q-71 95 -86 322v182h44q15 48 34.5 94.5t41 88t44.5 77t45 60.5q88 91 128 91q13 0 21 -12t8 -37q0 -6 -1.5 -32.5t-2 -67.5t0.5 -92t5 -105t12.5 -108t23.5 -120q17 67 42.5 119t54 103t58 98t56.5 85
q31 43 54 69t31 26q7 0 15 -5t8 -19z" />
    <glyph glyph-name="uni1830.fina_FVS1.calt" horiz-adv-x="420" 
d="M410 1222q0 -9 -9 -31.5t-24 -54.5q-27 -59 -60.5 -128.5t-62 -146t-48 -172t-19.5 -174.5q0 -27 1 -51.5t3 -44.5l-47 19q-20 22 -39.5 51t-38 62.5t-35.5 85.5t-32 90v182q15 0 26 -16t21.5 -38.5t20.5 -47t24 -71.5q17 77 42.5 129t54 103t58 98t56.5 85q31 43 54 69
t31 26q7 0 15 -5t8 -19z" />
    <glyph glyph-name="uni1830.fina_FVS2.calt" horiz-adv-x="829" 
d="M819 697v-94q0 -57 -19.5 -92t-48.5 -35v19q0 108 -39.5 168.5t-118.5 63.5h-148l-57 -312l-33 -8q-17 30 -27 77.5t-15.5 102t-7 98.5t-1.5 67v103q0 37 -1.5 85t-5 93.5t-9 81t-13.5 46.5q-12 0 -28.5 -22.5t-34.5 -60t-36 -86.5t-32 -101q-12 -42 -19.5 -88.5
t-12.5 -87.5t-7 -74.5t-2 -47.5q0 -41 2.5 -81t9.5 -81l-30 -26q-71 95 -86 322v182h44q15 48 34.5 94.5t41 88t44.5 77t45 60.5q88 91 128 91q13 0 36 -12t28 -27.5t5.5 -34t2.5 -43.5t3 -53t2.5 -53t3.5 -46t8 -142h237q75 -7 116 -62t41 -150z" />
    <glyph glyph-name="uni1831" unicode="&#x1831;" horiz-adv-x="649" 
d="M646 1458q0 -10 -6 -18t-15.5 -16.5t-21.5 -18t-24 -22.5q-11 -12 -19 -23t-14.5 -19.5t-12.5 -13.5t-13 -5q-17 0 -28.5 8.5t-11.5 26.5q0 23 3.5 41.5t11.5 41.5q5 14 13 30t18.5 29.5t23 22t27.5 8.5q16 0 36 -18q33 -30 33 -54zM386 1458q0 -10 -6 -18t-15.5 -16.5
t-21.5 -18t-24 -22.5q-11 -12 -19 -23t-14.5 -19.5t-12.5 -13.5t-13 -5q-17 0 -28.5 8.5t-11.5 26.5q0 23 3.5 41.5t11.5 41.5q5 14 13 30t18.5 29.5t23 22t27.5 8.5q16 0 36 -18q33 -30 33 -54zM659 909v-182h-139l-46 -312l-28 -10q-24 65 -39.5 122t-23.5 101.5t-10.5 70
t-2.5 28.5v142q0 17 2.5 44t5.5 56.5l6 59t4 52.5q0 5 -2 12t-2 12q-10 -9 -19.5 -28t-17.5 -41t-15 -42.5t-11 -33.5q-35 -99 -79 -156.5t-97 -57.5q-34 0 -61 14t-45.5 39t-28.5 59.5t-10 75.5q0 17 4.5 30t20.5 13q9 0 19 -11.5t23.5 -25.5t32 -25.5t45.5 -11.5
q53 0 86.5 41.5t54.5 119.5q28 104 56.5 160t44.5 56q21 0 34.5 -12.5t21 -30t10.5 -37.5t3 -35q0 -20 -1.5 -53t-3.5 -70t-4.5 -72.5t-4.5 -60.5h217z" />
    <glyph glyph-name="uni1831.init" horiz-adv-x="649" 
d="M646 1458q0 -10 -6 -18t-15.5 -16.5t-21.5 -18t-24 -22.5q-11 -12 -19 -23t-14.5 -19.5t-12.5 -13.5t-13 -5q-17 0 -28.5 8.5t-11.5 26.5q0 23 3.5 41.5t11.5 41.5q5 14 13 30t18.5 29.5t23 22t27.5 8.5q16 0 36 -18q33 -30 33 -54zM386 1458q0 -10 -6 -18t-15.5 -16.5
t-21.5 -18t-24 -22.5q-11 -12 -19 -23t-14.5 -19.5t-12.5 -13.5t-13 -5q-17 0 -28.5 8.5t-11.5 26.5q0 23 3.5 41.5t11.5 41.5q5 14 13 30t18.5 29.5t23 22t27.5 8.5q16 0 36 -18q33 -30 33 -54zM659 909v-182h-139l-46 -312l-28 -10q-24 65 -39.5 122t-23.5 101.5t-10.5 70
t-2.5 28.5v142q0 17 2.5 44t5.5 56.5l6 59t4 52.5q0 5 -2 12t-2 12q-10 -9 -19.5 -28t-17.5 -41t-15 -42.5t-11 -33.5q-35 -99 -79 -156.5t-97 -57.5q-34 0 -61 14t-45.5 39t-28.5 59.5t-10 75.5q0 17 4.5 30t20.5 13q9 0 19 -11.5t23.5 -25.5t32 -25.5t45.5 -11.5
q53 0 86.5 41.5t54.5 119.5q28 104 56.5 160t44.5 56q21 0 34.5 -12.5t21 -30t10.5 -37.5t3 -35q0 -20 -1.5 -53t-3.5 -70t-4.5 -72.5t-4.5 -60.5h217z" />
    <glyph glyph-name="uni1831.medi" horiz-adv-x="574" 
d="M586 1548q0 -10 -6 -18t-15.5 -16.5t-21.5 -18t-24 -22.5q-11 -12 -19 -23t-14.5 -19.5t-12.5 -13.5t-13 -5q-17 0 -28.5 8.5t-11.5 26.5q0 23 3.5 41.5t11.5 41.5q5 14 13 30t18.5 29.5t23 22t27.5 8.5q16 0 36 -18q33 -30 33 -54zM326 1548q0 -10 -6 -18t-15.5 -16.5
t-21.5 -18t-24 -22.5q-11 -12 -19 -23t-14.5 -19.5t-12.5 -13.5t-13 -5q-17 0 -28.5 8.5t-11.5 26.5q0 23 3.5 41.5t11.5 41.5q5 14 13 30t18.5 29.5t23 22t27.5 8.5q16 0 36 -18q33 -30 33 -54zM584 909v-182h-139l-57 -313l-33 -8q-17 30 -27 77.5t-15.5 102.5t-7 99
t-1.5 67v103q0 37 -1.5 85t-5 93.5t-9 81t-13.5 46.5q-12 0 -28.5 -22.5t-34.5 -60t-36 -86.5t-32 -101q-12 -42 -19.5 -88.5t-12.5 -87.5t-7 -73.5t-2 -46.5q0 -41 2.5 -82t9.5 -82l-30 -26q-71 95 -86 322v182h44q15 48 34.5 94.5t41 88t44.5 77t45 60.5q88 91 128 91
q13 0 21 -12t11.5 -27.5t9 -49t10 -70.5t9 -63t7.5 -70l11 -119h169z" />
    <glyph glyph-name="uni1831.fina" horiz-adv-x="732" 
d="M586 1548q0 -10 -6 -18t-15.5 -16.5t-21.5 -18t-24 -22.5q-11 -12 -19 -23t-14.5 -19.5t-12.5 -13.5t-13 -5q-17 0 -28.5 8.5t-11.5 26.5q0 23 3.5 41.5t11.5 41.5q5 14 13 30t18.5 29.5t23 22t27.5 8.5q16 0 36 -18q33 -30 33 -54zM326 1548q0 -10 -6 -18t-15.5 -16.5
t-21.5 -18t-24 -22.5q-11 -12 -19 -23t-14.5 -19.5t-12.5 -13.5t-13 -5q-17 0 -28.5 8.5t-11.5 26.5q0 23 3.5 41.5t11.5 41.5q5 14 13 30t18.5 29.5t23 22t27.5 8.5q16 0 36 -18q33 -30 33 -54zM722 1222q0 -9 -9 -31.5t-24 -54.5q-27 -59 -60.5 -128.5t-62 -146t-48 -168
t-19.5 -170.5q0 -27 1 -51.5t3 -44.5l-47 19q-50 59 -82 129.5t-51.5 154.5t-28.5 153.5t-12.5 127t-4 97.5t-2.5 53q-12 0 -28.5 -22.5t-34.5 -60t-36 -86.5t-32 -101q-12 -42 -19.5 -88.5t-12.5 -88.5t-7 -74.5t-2 -46.5q0 -41 2.5 -81t9.5 -81l-30 -26q-71 95 -86 322
v182h44q15 48 34.5 94.5t41 88t44.5 77t45 60.5q88 91 128 91q13 0 21 -12t8 -37q0 -6 -1.5 -32.5t-2 -67.5t0.5 -92t5 -105t12.5 -108t23.5 -120q17 67 42.5 119t54 103t58 98t56.5 85q31 43 54 69t31 26q7 0 15 -5t8 -19z" />
    <glyph glyph-name="uni1832" unicode="&#x1832;" horiz-adv-x="737" 
d="M747 909v-182h-139q-13 -83 -22 -163t-32 -159h-27q-24 78 -42 157t-27 160q-18 -24 -39.5 -40.5t-42.5 -27t-40 -15t-33 -4.5q-21 0 -41.5 3.5t-40.5 13.5t-39 28t-37 47q-23 36 -41 62.5t-34.5 45t-33 31.5t-37.5 24v24q15 12 28 24.5t25.5 27.5t25.5 33.5t27 41.5
q27 44 52 72t49 44.5t48 22.5t49 6q40 0 77.5 -17.5t66.5 -52.5t47 -86.5t19 -120.5h234zM437 905q0 73 -35 119.5t-99 46.5q-38 0 -67 -19t-53.5 -45.5t-48 -55.5t-50.5 -49q25 -12 50 -37.5t51 -51t55 -44.5t63 -19q58 0 96 38.5t38 116.5z" />
    <glyph glyph-name="uni1832.init" horiz-adv-x="737" 
d="M747 909v-182h-139q-13 -83 -22 -163t-32 -159h-27q-24 78 -42 157t-27 160q-18 -24 -39.5 -40.5t-42.5 -27t-40 -15t-33 -4.5q-21 0 -41.5 3.5t-40.5 13.5t-39 28t-37 47q-23 36 -41 62.5t-34.5 45t-33 31.5t-37.5 24v24q15 12 28 24.5t25.5 27.5t25.5 33.5t27 41.5
q27 44 52 72t49 44.5t48 22.5t49 6q40 0 77.5 -17.5t66.5 -52.5t47 -86.5t19 -120.5h234zM437 905q0 73 -35 119.5t-99 46.5q-38 0 -67 -19t-53.5 -45.5t-48 -55.5t-50.5 -49q25 -12 50 -37.5t51 -51t55 -44.5t63 -19q58 0 96 38.5t38 116.5z" />
    <glyph glyph-name="glyph295" horiz-adv-x="587" 
d="M169 391q9 -24 23.5 -46t31.5 -38t36.5 -25.5t39.5 -9.5t38 6t31.5 19t21 33.5t7.5 48.5q0 26 -7 51t-19.5 44.5t-30 31.5t-38.5 12q-26 0 -48.5 -13t-40 -32.5t-29.5 -41.5t-16 -40zM597 909v-182h-524q3 -22 10.5 -56t16.5 -71t18.5 -70.5t17.5 -53.5q9 21 25 42t38 38
t48.5 27.5t55.5 10.5q78 0 116.5 -57.5t38.5 -157.5q0 -61 -12 -104.5t-34 -72t-51.5 -42t-63.5 -13.5q-51 0 -88.5 26t-65.5 70t-48.5 102.5t-36.5 123t-30 131t-29 127.5v182h598z" />
    <glyph glyph-name="uni1832.medi_FVS1.calt" horiz-adv-x="734" 
d="M744 727h-139q-13 -83 -22 -163t-32 -159h-27q-24 78 -42 157t-27 160q-18 -24 -39.5 -40.5t-42.5 -27t-40 -15t-33 -4.5q-21 0 -41.5 3.5t-40.5 13.5t-39 28t-37 47h-146v182q15 17 28 29.5t25.5 27.5t25.5 33.5t27 41.5q27 44 52 72t49 44.5t48 22.5t49 6
q40 0 77.5 -17.5t66.5 -52.5t47 -86.5t19 -120.5h234v-182zM434 905q0 73 -35 119.5t-99 46.5q-38 0 -67 -19t-53.5 -45.5t-48 -55.5t-50.5 -49q25 -12 50 -37.5t51 -51t55 -44.5t63 -19q58 0 96 38.5t38 116.5z" />
    <glyph glyph-name="uni1832.fina" horiz-adv-x="982" 
d="M972 697v-94q0 -57 -19.5 -92t-48.5 -35v19q0 108 -39.5 168.5t-118.5 63.5h-137q-13 -83 -22 -162t-32 -158h-27q-24 78 -42 156t-27 159q-18 -24 -39.5 -40.5t-42.5 -27t-40 -15t-33 -4.5q-21 0 -41.5 3.5t-40.5 13.5t-39 28t-37 47h-146v187q15 12 28 24.5t25.5 27.5
t25.5 33.5t27 41.5q27 44 52 72t49 44.5t48 22.5t49 6q40 0 77.5 -17.5t66.5 -52.5t47 -86.5t19 -120.5h301q75 -7 116 -62t41 -150zM438 905q0 73 -35 119.5t-99 46.5q-38 0 -67 -19t-53.5 -45.5t-48 -55.5t-50.5 -49q25 -12 50 -37.5t51 -51t55 -44.5t63 -19q58 0 96 38.5
t38 116.5z" />
    <glyph glyph-name="uni1833" unicode="&#x1833;" horiz-adv-x="587" 
d="M169 391q9 -24 23.5 -46t31.5 -38t36.5 -25.5t39.5 -9.5t38 6t31.5 19t21 33.5t7.5 48.5q0 26 -7 51t-19.5 44.5t-30 31.5t-38.5 12q-26 0 -48.5 -13t-40 -32.5t-29.5 -41.5t-16 -40zM597 909v-182h-524q3 -22 10.5 -56t16.5 -71t18.5 -70.5t17.5 -53.5q9 21 25 42t38 38
t48.5 27.5t55.5 10.5q78 0 116.5 -57.5t38.5 -157.5q0 -61 -12 -104.5t-34 -72t-51.5 -42t-63.5 -13.5q-51 0 -88.5 26t-65.5 70t-48.5 102.5t-36.5 123t-30 131t-29 127.5v182h598z" />
    <glyph glyph-name="uni1833.init" horiz-adv-x="737" 
d="M747 909v-182h-139q-13 -83 -22 -163t-32 -159h-27q-24 78 -42 157t-27 160q-18 -24 -39.5 -40.5t-42.5 -27t-40 -15t-33 -4.5q-21 0 -41.5 3.5t-40.5 13.5t-39 28t-37 47q-23 36 -41 62.5t-34.5 45t-33 31.5t-37.5 24v24q15 12 28 24.5t25.5 27.5t25.5 33.5t27 41.5
q27 44 52 72t49 44.5t48 22.5t49 6q40 0 77.5 -17.5t66.5 -52.5t47 -86.5t19 -120.5h234zM437 905q0 73 -35 119.5t-99 46.5q-38 0 -67 -19t-53.5 -45.5t-48 -55.5t-50.5 -49q25 -12 50 -37.5t51 -51t55 -44.5t63 -19q58 0 96 38.5t38 116.5z" />
    <glyph glyph-name="uni1833.isol" horiz-adv-x="587" 
d="M169 391q9 -24 23.5 -46t31.5 -38t36.5 -25.5t39.5 -9.5t38 6t31.5 19t21 33.5t7.5 48.5q0 26 -7 51t-19.5 44.5t-30 31.5t-38.5 12q-26 0 -48.5 -13t-40 -32.5t-29.5 -41.5t-16 -40zM597 909v-182h-524q3 -22 10.5 -56t16.5 -71t18.5 -70.5t17.5 -53.5q9 21 25 42t38 38
t48.5 27.5t55.5 10.5q78 0 116.5 -57.5t38.5 -157.5q0 -61 -12 -104.5t-34 -72t-51.5 -42t-63.5 -13.5q-51 0 -88.5 26t-65.5 70t-48.5 102.5t-36.5 123t-30 131t-29 127.5v182h598z" />
    <glyph glyph-name="uni1833.medi" horiz-adv-x="765" 
d="M775 909v-182h-139q-2 -24 -6 -67t-8.5 -89.5t-11.5 -88.5t-14 -66l-35 -11q-30 75 -48.5 157t-26.5 165h-129v-137q0 -121 -42 -187.5t-133 -66.5t-137 66.5t-46 187.5v319h776zM303 727h-250v-137q0 -57 35 -85.5t96 -28.5q55 0 87 28.5t32 85.5v137z" />
    <glyph glyph-name="uni1833.medi_FVS1.calt" horiz-adv-x="587" 
d="M169 391q9 -24 23.5 -46t31.5 -38t36.5 -25.5t39.5 -9.5t38 6t31.5 19t21 33.5t7.5 48.5q0 26 -7 51t-19.5 44.5t-30 31.5t-38.5 12q-26 0 -48.5 -13t-40 -32.5t-29.5 -41.5t-16 -40zM597 909v-182h-524q3 -22 10.5 -56t16.5 -71t18.5 -70.5t17.5 -53.5q9 21 25 42t38 38
t48.5 27.5t55.5 10.5q78 0 116.5 -57.5t38.5 -157.5q0 -61 -12 -104.5t-34 -72t-51.5 -42t-63.5 -13.5q-51 0 -88.5 26t-65.5 70t-48.5 102.5t-36.5 123t-30 131t-29 127.5v182h598z" />
    <glyph glyph-name="uni1833.fina" horiz-adv-x="1162" 
d="M1152 1358q-69 -106 -133 -211.5t-109 -216.5q-59 -143 -96.5 -296t-50.5 -322q-56 29 -104.5 79.5t-85 109t-60 118.5t-27.5 108h-129v-137q0 -121 -42 -187.5t-133 -66.5t-137 66.5t-46 187.5v319h556v-118q1 -39 15 -85.5t33.5 -90t41 -78.5t38.5 -51q-6 22 -1.5 76
t18 124t34 148t47.5 148q33 85 63 162t53 142t37 117.5t14 89.5q0 16 -4.5 43t-9.5 54t-9.5 49.5t-4.5 30.5q0 26 6.5 38t26.5 12q6 0 17 -12.5t21 -31.5q24 -46 42.5 -84t36.5 -74t37.5 -74.5t44.5 -85.5zM303 727h-250v-137q0 -57 35 -85.5t96 -28.5q55 0 87 28.5t32 85.5
v137z" />
    <glyph glyph-name="uni1833_FVS1.isol" horiz-adv-x="839" 
d="M829 697v-94q0 -57 -19.5 -92t-48.5 -35v19q0 108 -39.5 168.5t-118.5 63.5h-530q3 -22 10.5 -56t16.5 -71t18.5 -70.5t17.5 -53.5q9 21 25 42t38 38t48.5 27.5t55.5 10.5q78 0 116.5 -57.5t38.5 -157.5q0 -61 -12 -104.5t-34 -72t-51.5 -42t-63.5 -13.5q-51 0 -88.5 26
t-65.5 70t-48.5 102.5t-36.5 123t-30 131t-29 127.5v182h673q75 -7 116 -62t41 -150zM169 391q9 -24 23.5 -46t31.5 -38t36.5 -25.5t39.5 -9.5t38 6t31.5 19t21 33.5t7.5 48.5q0 26 -7 51t-19.5 44.5t-30 31.5t-38.5 12q-26 0 -48.5 -13t-40 -32.5t-29.5 -41.5t-16 -40z" />
    <glyph glyph-name="uni1834" unicode="&#x1834;" horiz-adv-x="605" 
d="M615 909v-182h-140q-6 -26 -10.5 -53t-4.5 -60q0 -50 6.5 -97t15.5 -87.5t17.5 -71t12.5 -46.5h-259q-51 0 -81.5 -25t-42.5 -67q-11 1 -20.5 8.5t-16 18t-10.5 23t-4 24.5q0 41 10.5 77.5t32.5 63.5t55 43t77 16h138l-2 32t-1 32q0 80 20 169h-409v182h616z" />
    <glyph glyph-name="uni1834.init" horiz-adv-x="605" 
d="M615 909v-182h-140q-6 -26 -10.5 -53t-4.5 -60q0 -50 6.5 -97t15.5 -87.5t17.5 -71t12.5 -46.5h-259q-51 0 -81.5 -25t-42.5 -67q-11 1 -20.5 8.5t-16 18t-10.5 23t-4 24.5q0 41 10.5 77.5t32.5 63.5t55 43t77 16h138l-2 32t-1 32q0 80 20 169h-409v182h616z" />
    <glyph glyph-name="uni1834.medi" horiz-adv-x="531" 
d="M541 909v-182h-139q-6 -26 -10.5 -53t-4.5 -60q0 -50 6.5 -97t15.5 -87.5t17.5 -71t12.5 -46.5h-259q-51 0 -81.5 -25t-42.5 -67q-11 1 -20.5 8.5t-16 18t-10.5 23t-4 24.5q0 41 10.5 77.5t32.5 63.5t55 43t77 16h138l-2 32t-1 32q0 80 20 169h-336v182h542z" />
    <glyph glyph-name="uni1834.fina" horiz-adv-x="800" 
d="M770 697v-94q0 -57 -19.5 -92t-48.5 -35v19q0 108 -39.5 168.5t-118.5 63.5h-148q-6 -26 -10.5 -53t-4.5 -60q0 -50 6.5 -97t15.5 -87.5t17.5 -71t12.5 -46.5h-259q-51 0 -81.5 -25t-42.5 -67q-11 1 -20.5 8.5t-16 18t-10.5 23t-4 24.5q0 41 10.5 77.5t32.5 63.5t55 43
t77 16h138l-2 32t-1 32q0 80 20 169h-330v182h614q75 -7 116 -62t41 -150z" />
    <glyph glyph-name="uni1835" unicode="&#x1835;" horiz-adv-x="404" 
d="M414 909v-182h-347l208 -276v-24l-44 -208h-23l-209 508v182h415z" />
    <glyph glyph-name="uni1835.init" horiz-adv-x="404" 
d="M414 909v-182h-347l208 -276v-24l-44 -208h-23l-209 508v182h415z" />
    <glyph glyph-name="uni1835.medi" horiz-adv-x="473" 
d="M483 909v-182h-139v-137q0 -33 -6.5 -63.5t-22 -57t-42 -49t-65.5 -39.5q-35 -15 -65.5 -27t-52.5 -24t-34.5 -26.5t-12.5 -35.5h-16q-28 27 -28 95q0 50 42 88t123 67q38 14 58.5 31.5t30.5 40t12 50t3 60.5v27h-269v182h484z" />
    <glyph glyph-name="uni1835.medi_FVS1.calt" horiz-adv-x="475" 
d="M485 727q-17 0 -29 17.5t-19.5 40.5t-10.5 47t-3 38q0 16 -1 40.5t-6.5 52.5t-15.5 56t-28 50.5t-45 36.5t-66 14q-50 0 -88.5 -31t-64.5 -76.5t-39 -98t-13 -94.5q0 -79 42 -165.5t118 -169.5l-47 -158h-18q-70 91 -111 192.5t-41 207.5v182q7 81 29.5 149.5t57 117.5
t80 76.5t98.5 27.5q55 0 95.5 -28t67.5 -77.5t41 -117.5t17 -148v-182z" />
    <glyph glyph-name="uni1835.fina" horiz-adv-x="812" 
d="M802 697v-94q0 -57 -19.5 -92t-48.5 -35v19q0 108 -39.5 168.5t-118.5 63.5l-150 -1q-2 -34 -1 -61t-2 -43q1 -61 -10.5 -86t-45.5 -60q-42 -32 -118.5 -84.5t-125.5 -80.5q-35 -28 -44 -38.5t-17 -52.5q-11 1 -20.5 8.5t-16 18t-10.5 23t-4 24.5q-5 42 2 72t23 53
q10 15 41.5 46.5t81.5 61.5q44 27 76.5 46.5t59 38t34.5 46.5v68l-330 1v182h646q75 -7 116 -62t41 -150z" />
    <glyph glyph-name="uni1836" unicode="&#x1836;" horiz-adv-x="378" 
d="M388 909v-182h-317q2 -38 21.5 -76.5t50.5 -84.5l37 -55.5t34 -57.5t25 -58.5t10 -57.5q0 -39 -10.5 -62t-28 -35.5t-40 -16t-46.5 -3.5q-29 0 -60 13t-48 33q0 17 17.5 29t38.5 25.5t38.5 32t17.5 50.5q0 15 -4 28.5t-11.5 29t-19 34.5t-26.5 46q-15 25 -26.5 51.5
t-19.5 51t-13.5 46.5t-8.5 37v182h389z" />
    <glyph glyph-name="uni1836.init" horiz-adv-x="378" 
d="M388 909v-182h-317q2 -38 21.5 -76.5t50.5 -84.5l37 -55.5t34 -57.5t25 -58.5t10 -57.5q0 -39 -10.5 -62t-28 -35.5t-40 -16t-46.5 -3.5q-29 0 -60 13t-48 33q0 17 17.5 29t38.5 25.5t38.5 32t17.5 50.5q0 15 -4 28.5t-11.5 29t-19 34.5t-26.5 46q-15 25 -26.5 51.5
t-19.5 51t-13.5 46.5t-8.5 37v182h389z" />
    <glyph glyph-name="uni1836.init_FVS1.calt" horiz-adv-x="404" 
d="M414 909v-182h-347l208 -276v-24l-44 -208h-23l-209 508v182h415z" />
    <glyph glyph-name="uni1836.medi_FVS1.calt" horiz-adv-x="378" 
d="M388 909v-182h-317q2 -38 21.5 -76.5t50.5 -84.5l37 -55.5t34 -57.5t25 -58.5t10 -57.5q0 -39 -10.5 -62t-28 -35.5t-40 -16t-46.5 -3.5q-29 0 -60 13t-48 33q0 17 17.5 29t38.5 25.5t38.5 32t17.5 50.5q0 15 -4 28.5t-11.5 29t-19 34.5t-26.5 46q-15 25 -26.5 51.5
t-19.5 51t-13.5 46.5t-8.5 37v182h389z" />
    <glyph glyph-name="uni1836.medi" horiz-adv-x="404" 
d="M414 909v-182h-347l208 -276v-24l-44 -208h-23l-209 508v182h415z" />
    <glyph glyph-name="uni1836.medi_FVS2.calt" horiz-adv-x="475" 
d="M485 727q-17 0 -29 17.5t-19.5 40.5t-10.5 47t-3 38q0 16 -1 40.5t-6.5 52.5t-15.5 56t-28 50.5t-45 36.5t-66 14q-50 0 -88.5 -31t-64.5 -76.5t-39 -98t-13 -94.5q0 -79 42 -165.5t118 -169.5l-47 -158h-18q-70 91 -111 192.5t-41 207.5v182q7 81 29.5 149.5t57 117.5
t80 76.5t98.5 27.5q55 0 95.5 -28t67.5 -77.5t41 -117.5t17 -148v-182z" />
    <glyph glyph-name="uni1837" unicode="&#x1837;" horiz-adv-x="473" 
d="M483 909v-182h-416l277 -316v-24l-44 -208h-23l-122 254l-135 -117l-21 19l89 237l-89 155v182h484z" />
    <glyph glyph-name="uni1837.init" horiz-adv-x="473" 
d="M483 909v-182h-416l277 -316v-24l-44 -208h-23l-122 254l-135 -117l-21 19l89 237l-89 155v182h484z" />
    <glyph glyph-name="uni1837.medi" horiz-adv-x="473" 
d="M483 909v-182h-416l277 -316v-24l-44 -208h-23l-122 254l-135 -117l-21 19l89 237l-89 155v182h484z" />
    <glyph glyph-name="uni1837.fina" horiz-adv-x="480" 
d="M469 864q0 -30 -3.5 -43.5t-16.5 -13.5q-11 0 -17 12.5t-10 28.5q-9 41 -19.5 88.5t-26.5 88.5t-41 68t-63 27q-44 0 -77 -23.5t-56 -64t-34.5 -95t-11.5 -115.5q0 -42 19 -74.5t45 -57t53 -41.5t43 -27l-54 -242h-16q-13 67 -40 131t-52 115l-92 -150v433h50
q14 177 70.5 274t153.5 97q58 0 96 -37t60 -96.5t31 -133.5t9 -149z" />
    <glyph glyph-name="uni1838" unicode="&#x1838;" horiz-adv-x="573" 
d="M583 909v-182h-504l54 -209q14 -51 29.5 -89t35 -63t45 -37.5t58.5 -12.5q29 0 47 11t29.5 24.5t19 25t16.5 11.5q17 0 24 -16.5t7 -46.5q0 -31 -11 -58t-30.5 -47.5t-45.5 -32t-56 -11.5q-49 0 -85.5 21.5t-65 62t-50.5 100t-40 134.5l-61 233v182h584z" />
    <glyph glyph-name="uni1838.init" horiz-adv-x="573" 
d="M583 909v-182h-504l54 -209q14 -51 29.5 -89t35 -63t45 -37.5t58.5 -12.5q29 0 47 11t29.5 24.5t19 25t16.5 11.5q17 0 24 -16.5t7 -46.5q0 -31 -11 -58t-30.5 -47.5t-45.5 -32t-56 -11.5q-49 0 -85.5 21.5t-65 62t-50.5 100t-40 134.5l-61 233v182h584z" />
    <glyph glyph-name="uni1838.medi" horiz-adv-x="573" 
d="M583 909v-182h-504l54 -209q14 -51 29.5 -89t35 -63t45 -37.5t58.5 -12.5q29 0 47 11t29.5 24.5t19 25t16.5 11.5q17 0 24 -16.5t7 -46.5q0 -31 -11 -58t-30.5 -47.5t-45.5 -32t-56 -11.5q-49 0 -85.5 21.5t-65 62t-50.5 100t-40 134.5l-61 233v182h584z" />
    <glyph glyph-name="uni1838.fina" horiz-adv-x="542" 
d="M324 727h-261q0 -54 2 -100t14 -79.5t38.5 -52.5t75.5 -19t75.5 18.5t39 51.5t14.5 79t2 102zM531 881q0 -36 -8 -55t-14 -19q-14 0 -20.5 15.5t-14.5 61.5q-11 71 -31 123t-46 86t-57 50.5t-65 16.5q-163 0 -208 -251h236q85 0 85 -87v-186q0 -57 -9.5 -111t-32 -96
t-60 -67.5t-93.5 -25.5q-43 0 -73.5 19t-52 51t-35 73t-21 84t-10 86t-2.5 78v182q14 200 82.5 305.5t193.5 105.5q62 0 110 -33t80.5 -91.5t49 -139t16.5 -175.5z" />
    <glyph glyph-name="uni1838.fina_FVS1.calt" horiz-adv-x="840" 
d="M829 697v-94q0 -57 -19.5 -92t-48.5 -35v19q0 108 -39.5 168.5t-118.5 63.5h-524l54 -209q14 -51 29.5 -89t35 -63t45 -37.5t58.5 -12.5q29 0 47 11t29.5 24.5t19 25t16.5 11.5q17 0 24 -16.5t7 -46.5q0 -31 -11 -58t-30.5 -47.5t-45.5 -32t-56 -11.5q-49 0 -85.5 21.5
t-65 62t-50.5 100t-40 134.5l-61 233v182h673q75 -7 116 -62t41 -150z" />
    <glyph glyph-name="uni1839" unicode="&#x1839;" horiz-adv-x="541" 
d="M531 881q0 -36 -8 -55t-14 -19q-14 0 -20.5 15.5t-14.5 61.5q-11 71 -31 123t-46 86t-57 50.5t-65 16.5q-163 0 -208 -251h236q85 0 85 -87v-186q0 -57 -9.5 -111t-32 -96t-60 -67.5t-93.5 -25.5q-21 0 -36 4q-6 -14 -8 -26.5t-2 -23.5q0 -23 7 -37t15 -26.5t15 -27.5
t7 -41q0 -15 -5.5 -25t-13.5 -16.5t-17 -9t-17 -2.5q-45 0 -72 35t-27 88q0 16 4.5 34.5t12 38t17.5 38.5t20 36q-30 28 -48.5 72t-28.5 92.5t-13.5 98t-3.5 89.5v182q7 99 29.5 176t58.5 129t83.5 79t104.5 27q62 0 110 -33t80.5 -91.5t49 -139t16.5 -175.5zM324 727h-261
q0 -54 2 -100t14 -79.5t38.5 -52.5t75.5 -19t75.5 18.5t39 51.5t14.5 79t2 102z" />
    <glyph glyph-name="uni1839.init" horiz-adv-x="542" 
d="M551 909v-182h-17q-6 0 -12.5 8t-14.5 26t-16 48t-17 75q-28 143 -79 209.5t-120 66.5q-163 0 -208 -251h236q85 0 85 -87v-186q0 -57 -9.5 -111t-32 -96t-60 -67.5t-93.5 -25.5q-21 0 -36 4q-6 -14 -8 -26.5t-2 -23.5q0 -23 7 -37t15 -26.5t15 -27.5t7 -41
q0 -15 -5.5 -25t-13.5 -16.5t-17 -9t-17 -2.5q-45 0 -72 35t-27 88q0 16 4.5 34.5t12 38t17.5 38.5t20 36q-30 28 -48.5 72t-28.5 92.5t-13.5 98t-3.5 89.5v182q7 99 29.5 176t58.5 129t83.5 79t104.5 27q60 0 107 -30t79.5 -84.5t50 -130t19.5 -166.5h20zM324 727h-261
q0 -54 2 -100t14 -79.5t38.5 -52.5t75.5 -19t75.5 18.5t39 51.5t14.5 79t2 102z" />
    <glyph glyph-name="uni1839.medi" horiz-adv-x="542" 
d="M551 909v-182h-17q-6 0 -12.5 8t-14.5 26t-16 48t-17 75q-28 143 -79 209.5t-120 66.5q-163 0 -208 -251h236q85 0 85 -87v-186q0 -57 -9.5 -111t-32 -96t-60 -67.5t-93.5 -25.5q-21 0 -36 4q-6 -14 -8 -26.5t-2 -23.5q0 -23 7 -37t15 -26.5t15 -27.5t7 -41
q0 -15 -5.5 -25t-13.5 -16.5t-17 -9t-17 -2.5q-45 0 -72 35t-27 88q0 16 4.5 34.5t12 38t17.5 38.5t20 36q-30 28 -48.5 72t-28.5 92.5t-13.5 98t-3.5 89.5v182q7 99 29.5 176t58.5 129t83.5 79t104.5 27q60 0 107 -30t79.5 -84.5t50 -130t19.5 -166.5h20zM324 727h-261
q0 -54 2 -100t14 -79.5t38.5 -52.5t75.5 -19t75.5 18.5t39 51.5t14.5 79t2 102z" />
    <glyph glyph-name="uni1839.fina" horiz-adv-x="635" 
d="M625 303q0 -69 -12.5 -119.5t-36.5 -88t-60 -64.5t-83 -48q-27 -12 -43 -21.5t-27 -20t-19 -25t-20 -36.5h-18l53 227q11 3 21.5 6t23 7.5t27 11.5t34.5 19q12 7 27 18t28.5 28t23 43t9.5 63v543q0 25 -4 60.5t-14 73.5t-27.5 75.5t-44.5 67.5t-64.5 48.5t-87.5 18.5
q-41 0 -81.5 -20.5t-75 -57.5t-60 -89t-36.5 -114h236q85 0 85 -87v-186q0 -57 -9.5 -111t-32 -96t-60 -67.5t-93.5 -25.5q-20 0 -36 3q-6 -14 -8 -26t-2 -23q0 -23 7 -37t15 -26.5t15 -27.5t7 -41q0 -15 -5.5 -25t-13.5 -16.5t-17 -9t-17 -2.5q-45 0 -72 35t-27 88
q0 32 16.5 71t36.5 74q-30 26 -48.5 70t-28 93.5t-13 100t-3.5 90.5v182q7 99 34.5 180.5t70.5 139.5t98.5 89.5t117.5 31.5q61 0 108 -22t82 -59.5t58.5 -88t38 -106.5t21 -114.5t6.5 -113.5v-543zM315 727h-261q0 -54 2 -100t14 -80t38.5 -53t75.5 -19t75.5 18.5t39 52
t14.5 79.5t2 102z" />
    <glyph glyph-name="uni183A" unicode="&#x183a;" horiz-adv-x="479" 
d="M469 864q0 -30 -3.5 -43.5t-16.5 -13.5q-11 0 -17 12.5t-10 28.5q-9 41 -19.5 88.5t-26.5 88.5t-41 68t-63 27q-44 0 -77 -20t-56 -56.5t-34.5 -87.5t-11.5 -112q0 -42 18.5 -76.5t44 -61.5t52.5 -46.5t43 -29.5l-59 -250h-29q-6 33 -15 68t-20 67.5t-23 61t-25 49.5
q-4 -24 -10.5 -51t-16.5 -49.5t-23.5 -37t-30.5 -12.5v433h27q7 88 28.5 157t54 116.5t74.5 72.5t90 25q58 0 96 -37t60 -96.5t31 -133.5t9 -149z" />
    <glyph glyph-name="uni183A.init" horiz-adv-x="480" 
d="M490 909v-182h-19q-11 6 -18.5 20.5t-13.5 32.5t-10 36.5t-7 31.5q-9 41 -19.5 88.5t-26.5 88.5t-41 68t-63 27q-44 0 -77 -20t-56 -56.5t-34.5 -87.5t-11.5 -112q0 -42 18.5 -76.5t44 -61.5t52.5 -46.5t43 -29.5l-59 -250h-29q-6 33 -15 68t-20 67.5t-23 61t-25 49.5
q-4 -24 -10.5 -51t-16.5 -49.5t-23.5 -37t-30.5 -12.5v433h27q7 88 28.5 157t54 116.5t74.5 72.5t90 25q54 0 90.5 -32t59.5 -84.5t34 -119t14 -135.5h19z" />
    <glyph glyph-name="uni183A.medi" horiz-adv-x="480" 
d="M490 909v-182h-19q-11 6 -18.5 20.5t-13.5 32.5t-10 36.5t-7 31.5q-9 41 -19.5 88.5t-26.5 88.5t-41 68t-63 27q-44 0 -77 -20t-56 -56.5t-34.5 -87.5t-11.5 -112q0 -42 18.5 -76.5t44 -61.5t52.5 -46.5t43 -29.5l-59 -250h-29q-6 33 -15 68t-20 67.5t-23 61t-25 49.5
q-4 -24 -10.5 -51t-16.5 -49.5t-23.5 -37t-30.5 -12.5v433h27q7 88 28.5 157t54 116.5t74.5 72.5t90 25q54 0 90.5 -32t59.5 -84.5t34 -119t14 -135.5h19z" />
    <glyph glyph-name="uni183A.fina" horiz-adv-x="590" 
d="M579 303q0 -69 -12.5 -119.5t-36.5 -88t-60 -64.5t-83 -48q-27 -12 -43 -21.5t-27 -20t-19 -25t-20 -36.5h-18l53 227q11 3 21.5 6t23 7.5t27 11.5t34.5 19q12 7 27 18t28.5 28t23 43t9.5 63v543q0 25 -2.5 60t-10 73t-22 76t-38 68t-58.5 48.5t-84 18.5t-86 -33
t-61.5 -84.5t-37.5 -114.5t-14 -123q2 -40 21 -73t44.5 -59t51 -44.5t41.5 -28.5l-59 -250h-29q-6 33 -15 68t-20 67.5t-23 61t-25 49.5q-4 -24 -10.5 -51t-16.5 -49.5t-23.5 -37t-30.5 -12.5v433h30q0 78 18 156.5t52.5 142t85 103t116.5 39.5q62 0 107 -22.5t76 -60.5
t49.5 -88t28.5 -106t13.5 -114.5t3.5 -112.5v-543z" />
    <glyph glyph-name="uni183B" unicode="&#x183b;" horiz-adv-x="452" 
d="M442 864q0 -30 -3.5 -43.5t-16.5 -13.5q-11 0 -17 12.5t-10 28.5q-9 41 -19.5 88.5t-26.5 88.5t-41 68t-63 27q-44 0 -77 -20t-56 -56.5t-34.5 -87.5t-11.5 -47h120v-182h-107q62 -61 95.5 -74t49.5 -23l-59 -250h-29q-6 33 -13.5 68t-13 54.5t-63.5 118t-47 288.5
q7 88 28.5 157t54 116.5t74.5 72.5t90 25q58 0 96 -37t60 -96.5t31 -133.5t9 -149z" />
    <glyph glyph-name="uni183B.init" horiz-adv-x="452" 
d="M442 909h20v-182h-23h-10q-18 10 -24 23q-6 12 -8 20l-2 8l-4 21q-5 20 -15 103q-11 82 -27 123t-41 68t-63 27q-44 0 -77 -20t-56 -56.5t-34.5 -87.5t-11.5 -47h120v-182h-107q4 3 34.5 -27.5t62.5 -45t48 -24.5l-59 -250h-29q-6 33 -13.5 68t-13 54.5t-63.5 118
t-47 288.5q7 88 28.5 157t54 116.5t74.5 72.5t90 25q58 0 96 -37t60 -96.5t31 -133.5t9 -104z" />
    <glyph glyph-name="uni183B.medi" horiz-adv-x="452" 
d="M442 909h20v-182h-23h-10q-18 10 -24 23q-6 12 -8 20l-2 8l-4 21q-5 20 -15 103q-11 82 -27 123t-41 68t-63 27q-44 0 -77 -20t-56 -56.5t-34.5 -87.5t-11.5 -47h120v-182h-107q4 3 34.5 -27.5t62.5 -45t48 -24.5l-59 -250h-29q-6 33 -13.5 68t-13 54.5t-63.5 118
t-47 288.5q7 88 28.5 157t54 116.5t74.5 72.5t90 25q58 0 96 -37t60 -96.5t31 -133.5t9 -104z" />
    <glyph glyph-name="uni183B.fina" horiz-adv-x="590" 
d="M579 303q0 -69 -12.5 -119.5t-36.5 -88t-60 -64.5t-83 -48q-27 -12 -43 -21.5t-27 -20t-19 -25t-20 -36.5h-18l53 227q11 3 21.5 6t23 7.5t27 11.5t34.5 19q12 7 27 18t28.5 28t23 43t9.5 63v543q0 25 -2.5 60t-10 73t-22 76t-38 68t-58.5 48.5t-84 18.5t-86 -33
t-61.5 -84.5t-37.5 -99.5t-14 -64h120v-182h-99q20 -26 45 -39t50.5 -31.5t41.5 -28.5l-59 -248h-29q-6 33 -15 68t-20 67.5t-23 61t-45.5 90t-30.5 242.5q0 78 18 156.5t52.5 142t85 103t116.5 39.5q62 0 107 -22.5t76 -60.5t49.5 -88t28.5 -106t13.5 -114.5t3.5 -112.5
v-543z" />
    <glyph glyph-name="uni183C" unicode="&#x183c;" horiz-adv-x="889" 
d="M899 909v-182h-424q-6 -26 -10.5 -53t-4.5 -60q0 -72 12.5 -138t24.5 -112q17 38 51.5 56.5t83.5 18.5q68 0 107.5 -35t39.5 -110t-39.5 -120t-107.5 -45t-107.5 45t-39.5 120v18h-232q-51 0 -81.5 -25t-42.5 -67q-11 1 -20.5 8.5t-16 18t-10.5 23t-4 24.5
q0 41 10.5 77.5t32.5 63.5t55 43t77 16h138l-2 32t-1 32q0 80 20 169h-409v182h900zM707 294q0 11 -3.5 27.5t-11.5 31.5t-23 25.5t-37 10.5q-23 0 -37.5 -10.5t-22.5 -25.5t-11.5 -31.5t-3.5 -27.5t3.5 -27t11.5 -30.5t22.5 -25t37.5 -10.5q22 0 37 10.5t23 25t11.5 30.5
t3.5 27z" />
    <glyph glyph-name="uni183C.init" horiz-adv-x="889" 
d="M899 909v-182h-424q-6 -26 -10.5 -53t-4.5 -60q0 -72 12.5 -138t24.5 -112q17 38 51.5 56.5t83.5 18.5q68 0 107.5 -35t39.5 -110t-39.5 -120t-107.5 -45t-107.5 45t-39.5 120v18h-232q-51 0 -81.5 -25t-42.5 -67q-11 1 -20.5 8.5t-16 18t-10.5 23t-4 24.5
q0 41 10.5 77.5t32.5 63.5t55 43t77 16h138l-2 32t-1 32q0 80 20 169h-409v182h900zM707 294q0 11 -3.5 27.5t-11.5 31.5t-23 25.5t-37 10.5q-23 0 -37.5 -10.5t-22.5 -25.5t-11.5 -31.5t-3.5 -27.5t3.5 -27t11.5 -30.5t22.5 -25t37.5 -10.5q22 0 37 10.5t23 25t11.5 30.5
t3.5 27z" />
    <glyph glyph-name="uni183C.medi" horiz-adv-x="879" 
d="M889 909v-182h-494q-6 -26 -10.5 -53t-4.5 -60q0 -72 12.5 -138t24.5 -112q17 38 51.5 56.5t83.5 18.5q68 0 107.5 -35t39.5 -110t-39.5 -120t-107.5 -45t-107.5 45t-39.5 120v18h-232q-51 0 -81.5 -25t-42.5 -67q-11 1 -20.5 8.5t-16 18t-10.5 23t-4 24.5
q0 41 10.5 77.5t32.5 63.5t55 43t77 16h138l-2 32t-1 32q0 80 20 169h-329v182h890zM627 294q0 11 -3.5 27.5t-11.5 31.5t-23 25.5t-37 10.5q-23 0 -37.5 -10.5t-22.5 -25.5t-11.5 -31.5t-3.5 -27.5t3.5 -27t11.5 -30.5t22.5 -25t37.5 -10.5q22 0 37 10.5t23 25t11.5 30.5
t3.5 27z" />
    <glyph glyph-name="uni183C.fina" horiz-adv-x="990" 
d="M980 697v-94q0 -57 -19.5 -92t-48.5 -35v19q0 108 -39.5 168.5t-118.5 63.5h-358q-6 -26 -10.5 -53t-4.5 -60q0 -72 12.5 -138t24.5 -112q17 38 51.5 56.5t83.5 18.5q68 0 107.5 -35t39.5 -110t-39.5 -120t-107.5 -45t-107.5 45t-39.5 120v18h-232q-51 0 -81.5 -25
t-42.5 -67q-11 1 -20.5 8.5t-16 18t-10.5 23t-4 24.5q0 41 10.5 77.5t32.5 63.5t55 43t77 16h138l-2 32t-1 32q0 80 20 169h-330v182h824q75 -7 116 -62t41 -150zM628 294q0 11 -3.5 27.5t-11.5 31.5t-23 25.5t-37 10.5q-23 0 -37.5 -10.5t-22.5 -25.5t-11.5 -31.5
t-3.5 -27.5t3.5 -27t11.5 -30.5t22.5 -25t37.5 -10.5q22 0 37 10.5t23 25t11.5 30.5t3.5 27z" />
    <glyph glyph-name="uni183D" unicode="&#x183d;" horiz-adv-x="890" 
d="M900 909v-182h-424q-6 -26 -10.5 -53t-4.5 -60q0 -117 17 -198.5t44.5 -132.5t61.5 -74.5t67 -23.5q29 0 47 11t29.5 24.5t19 25t16.5 11.5q17 0 24 -16.5t7 -46.5q0 -31 -11 -58t-30.5 -47.5t-45.5 -32t-56 -11.5q-45 0 -78 18t-58.5 52t-45 83.5t-36.5 113.5h-179
q-51 0 -81.5 -25t-42.5 -67q-11 1 -20.5 8.5t-16 18t-10.5 23t-4 24.5q0 41 10.5 77.5t32.5 63.5t55 43t77 16h138l-2 32t-1 32q0 80 20 169h-410v182h901z" />
    <glyph glyph-name="uni183D.init" horiz-adv-x="890" 
d="M900 909v-182h-424q-6 -26 -10.5 -53t-4.5 -60q0 -117 17 -198.5t44.5 -132.5t61.5 -74.5t67 -23.5q29 0 47 11t29.5 24.5t19 25t16.5 11.5q17 0 24 -16.5t7 -46.5q0 -31 -11 -58t-30.5 -47.5t-45.5 -32t-56 -11.5q-45 0 -78 18t-58.5 52t-45 83.5t-36.5 113.5h-179
q-51 0 -81.5 -25t-42.5 -67q-11 1 -20.5 8.5t-16 18t-10.5 23t-4 24.5q0 41 10.5 77.5t32.5 63.5t55 43t77 16h138l-2 32t-1 32q0 80 20 169h-410v182h901z" />
    <glyph glyph-name="uni183D.medi" horiz-adv-x="883" 
d="M893 909v-182h-494q-6 -26 -10.5 -53t-4.5 -60q0 -117 17 -198.5t44.5 -132.5t61.5 -74.5t67 -23.5q29 0 47 11t29.5 24.5t19 25t16.5 11.5q17 0 24 -16.5t7 -46.5q0 -31 -11 -58t-30.5 -47.5t-45.5 -32t-56 -11.5q-45 0 -78 18t-58.5 52t-45 83.5t-36.5 113.5h-179
q-51 0 -81.5 -25t-42.5 -67q-11 1 -20.5 8.5t-16 18t-10.5 23t-4 24.5q0 41 10.5 77.5t32.5 63.5t55 43t77 16h138l-2 32t-1 32q0 80 20 169h-333v182h894z" />
    <glyph glyph-name="uni183D.fina" horiz-adv-x="995" 
d="M985 697v-94q0 -57 -19.5 -92t-48.5 -35v19q0 108 -39.5 168.5t-118.5 63.5h-363q-6 -26 -10.5 -53t-4.5 -60q0 -117 17 -198.5t44.5 -132.5t61.5 -74.5t67 -23.5q29 0 47 11t29.5 24.5t19 25t16.5 11.5q17 0 24 -16.5t7 -46.5q0 -31 -11 -58t-30.5 -47.5t-45.5 -32
t-56 -11.5q-45 0 -78 18t-58.5 52t-45 83.5t-36.5 113.5h-179q-51 0 -81.5 -25t-42.5 -67q-11 1 -20.5 8.5t-16 18t-10.5 23t-4 24.5q0 41 10.5 77.5t32.5 63.5t55 43t77 16h138l-2 32t-1 32q0 80 20 169h-330v182h829q75 -7 116 -62t41 -150z" />
    <glyph glyph-name="uni183E" unicode="&#x183e;" horiz-adv-x="1077" 
d="M1117 909v-182h-261q0 -57 40 -126t108 -137q-20 -21 -47.5 -62.5t-53.5 -88t-46.5 -90t-25.5 -68.5q-51 30 -107 83t-104 126.5t-82 165t-40 197.5h-116q-3 -75 -13.5 -153t-23.5 -157l-36 -10q-20 43 -34 95t-24 102t-14.5 91.5t-4.5 63.5v150q0 40 -9.5 64.5
t-32.5 24.5q-16 0 -28.5 -2.5t-24 -7.5t-23.5 -12t-27 -17q-25 -17 -38.5 -29.5t-20.5 -12.5q-11 10 -19.5 22.5t-8.5 21.5q11 11 25 28t28 33q67 77 114 111t83 34q45 0 70 -44.5t25 -116.5v-97h236v-142q0 -71 13.5 -132.5t41 -119t69.5 -113t98 -113.5q10 21 22 43
t24.5 44t24.5 41.5t23 34.5q-30 33 -53 73.5t-39 82.5t-24.5 83t-8.5 76v142h345z" />
    <glyph glyph-name="uni183E.init" horiz-adv-x="1077" 
d="M1117 909v-182h-261q0 -57 40 -126t108 -137q-20 -21 -47.5 -62.5t-53.5 -88t-46.5 -90t-25.5 -68.5q-51 30 -107 83t-104 126.5t-82 165t-40 197.5h-116q-3 -75 -13.5 -153t-23.5 -157l-36 -10q-20 43 -34 95t-24 102t-14.5 91.5t-4.5 63.5v150q0 40 -9.5 64.5
t-32.5 24.5q-16 0 -28.5 -2.5t-24 -7.5t-23.5 -12t-27 -17q-25 -17 -38.5 -29.5t-20.5 -12.5q-11 10 -19.5 22.5t-8.5 21.5q11 11 25 28t28 33q67 77 114 111t83 34q45 0 70 -44.5t25 -116.5v-97h236v-142q0 -71 13.5 -132.5t41 -119t69.5 -113t98 -113.5q10 21 22 43
t24.5 44t24.5 41.5t23 34.5q-30 33 -53 73.5t-39 82.5t-24.5 83t-8.5 76v142h345z" />
    <glyph glyph-name="uni183E.medi" horiz-adv-x="620" 
d="M640 909v-182h-282q0 -57 40 -126t108 -137q-20 -21 -47.5 -62.5t-53.5 -88t-46.5 -90t-25.5 -68.5q-53 31 -111.5 88t-108 135.5t-82 176.5t-32.5 212v142h84v-142q0 -71 13.5 -132.5t41 -119t69.5 -113t98 -113.5q10 21 22 43t24.5 44t24.5 41.5t23 34.5
q-30 33 -53 73.5t-39 82.5t-24.5 83t-8.5 76v142h366z" />
    <glyph glyph-name="uni183E.fina" horiz-adv-x="899" 
d="M887 697v-94q0 -57 -19.5 -92t-48.5 -35v19q0 108 -39.5 168.5t-118.5 63.5h-303q0 -57 40 -126t108 -137q-20 -21 -47.5 -62.5t-53.5 -88t-46.5 -90t-25.5 -68.5q-53 31 -111.5 88t-108 135.5t-82 176.5t-32.5 212v142h84v-142q0 -71 13.5 -132.5t41 -119t69.5 -113
t98 -113.5q10 21 22 43t24.5 44t24.5 41.5t23 34.5q-30 33 -53 73.5t-39 82.5t-24.5 83t-8.5 76v142h456q75 -7 116 -62t41 -150z" />
    <glyph glyph-name="uni183F" unicode="&#x183f;" horiz-adv-x="826" 
d="M836 909v-182h-139q-3 -75 -13.5 -153t-23.5 -157l-36 -10q-20 43 -34 95t-24 102t-14.5 91.5t-4.5 63.5v150q0 40 -9.5 64.5t-32.5 24.5q-16 0 -28.5 -2.5t-24 -7.5t-23.5 -12t-27 -17q-25 -17 -38.5 -29.5t-20.5 -12.5q-11 10 -19.5 22.5t-8.5 21.5q11 11 25 28t28 33
q67 77 114 111t83 34q19 0 37 -10q0 35 -10.5 69t-30 60.5t-47.5 43t-62 16.5q-80 0 -149 -43.5t-120.5 -119.5t-81 -178.5t-29.5 -220.5q0 -108 29 -194t75.5 -146.5t104 -92.5t114.5 -32q17 0 30 11t13 32q0 16 -3 28t-8 21.5t-10.5 18.5t-10.5 20l26 26q20 -9 40.5 -25.5
t37 -37.5t27 -45t10.5 -47q0 -48 -24.5 -77t-74.5 -29q-110 0 -193.5 46.5t-140 128.5t-85.5 193t-29 239q0 65 14.5 136t41.5 139t66.5 129.5t89 107.5t108.5 73.5t126 27.5q34 0 72 -17.5t69.5 -53t52 -88.5t20.5 -124v-243h176z" />
    <glyph glyph-name="uni183F.init" horiz-adv-x="826" 
d="M836 909v-182h-139q-3 -75 -13.5 -153t-23.5 -157l-36 -10q-20 43 -34 95t-24 102t-14.5 91.5t-4.5 63.5v150q0 40 -9.5 64.5t-32.5 24.5q-16 0 -28.5 -2.5t-24 -7.5t-23.5 -12t-27 -17q-25 -17 -38.5 -29.5t-20.5 -12.5q-11 10 -19.5 22.5t-8.5 21.5q11 11 25 28t28 33
q67 77 114 111t83 34q19 0 37 -10q0 35 -10.5 69t-30 60.5t-47.5 43t-62 16.5q-80 0 -149 -43.5t-120.5 -119.5t-81 -178.5t-29.5 -220.5q0 -108 29 -194t75.5 -146.5t104 -92.5t114.5 -32q17 0 30 11t13 32q0 16 -3 28t-8 21.5t-10.5 18.5t-10.5 20l26 26q20 -9 40.5 -25.5
t37 -37.5t27 -45t10.5 -47q0 -48 -24.5 -77t-74.5 -29q-110 0 -193.5 46.5t-140 128.5t-85.5 193t-29 239q0 65 14.5 136t41.5 139t66.5 129.5t89 107.5t108.5 73.5t126 27.5q34 0 72 -17.5t69.5 -53t52 -88.5t20.5 -124v-243h176z" />
    <glyph glyph-name="uni183F.medi" horiz-adv-x="826" 
d="M836 909v-182h-139q-3 -75 -13.5 -153t-23.5 -157l-36 -10q-20 43 -34 95t-24 102t-14.5 91.5t-4.5 63.5v150q0 40 -9.5 64.5t-32.5 24.5q-16 0 -28.5 -2.5t-24 -7.5t-23.5 -12t-27 -17q-25 -17 -38.5 -29.5t-20.5 -12.5q-11 10 -19.5 22.5t-8.5 21.5q11 11 25 28t28 33
q67 77 114 111t83 34q19 0 37 -10q0 35 -10.5 69t-30 60.5t-47.5 43t-62 16.5q-80 0 -149 -43.5t-120.5 -119.5t-81 -178.5t-29.5 -220.5q0 -108 29 -194t75.5 -146.5t104 -92.5t114.5 -32q17 0 30 11t13 32q0 16 -3 28t-8 21.5t-10.5 18.5t-10.5 20l26 26q20 -9 40.5 -25.5
t37 -37.5t27 -45t10.5 -47q0 -48 -24.5 -77t-74.5 -29q-110 0 -193.5 46.5t-140 128.5t-85.5 193t-29 239q0 65 14.5 136t41.5 139t66.5 129.5t89 107.5t108.5 73.5t126 27.5q34 0 72 -17.5t69.5 -53t52 -88.5t20.5 -124v-243h176z" />
    <glyph glyph-name="uni183F.fina" horiz-adv-x="1114" 
d="M1104 697v-94q0 -57 -19.5 -92t-48.5 -35v19q0 108 -39.5 168.5t-118.5 63.5h-181q-3 -75 -13.5 -153t-23.5 -157l-36 -10q-20 43 -34 95t-24 102t-14.5 91.5t-4.5 63.5v150q0 40 -9.5 64.5t-32.5 24.5q-16 0 -28.5 -2.5t-24 -7.5t-23.5 -12t-27 -17q-25 -17 -38.5 -29.5
t-20.5 -12.5q-11 10 -19.5 22.5t-8.5 21.5q11 11 25 28t28 33q67 77 114 111t83 34q19 0 37 -10q0 35 -10.5 69t-30 60.5t-47.5 43t-62 16.5q-80 0 -149 -43.5t-120.5 -119.5t-81 -178.5t-29.5 -220.5q0 -108 29 -194t75.5 -146.5t104 -92.5t114.5 -32q17 0 30 11t13 32
q0 16 -3 28t-8 21.5t-10.5 18.5t-10.5 20l26 26q20 -9 40.5 -25.5t37 -37.5t27 -45t10.5 -47q0 -48 -24.5 -77t-74.5 -29q-110 0 -193.5 46.5t-140 128.5t-85.5 193t-29 239q0 65 14.5 136t41.5 139t66.5 129.5t89 107.5t108.5 73.5t126 27.5q34 0 72 -17.5t69.5 -53
t52 -88.5t20.5 -124v-243h287q75 -7 116 -62t41 -150z" />
    <glyph glyph-name="uni1840" unicode="&#x1840;" horiz-adv-x="1083" 
d="M1103 909v-182h-287q0 -57 40 -126t108 -137q-20 -21 -47.5 -62.5t-53.5 -88t-46.5 -90t-25.5 -68.5q-51 30 -107 83t-104 126.5t-82 165t-40 197.5h-76q-3 -75 -13.5 -153t-23.5 -157l-36 -10q-20 43 -34 95t-24 102t-14.5 91.5t-4.5 63.5v150q0 40 -9.5 64.5
t-32.5 24.5q-16 0 -28.5 -2.5t-24 -7.5t-23.5 -12t-27 -17q-25 -17 -38.5 -29.5t-20.5 -12.5q-11 10 -19.5 22.5t-8.5 21.5q11 11 25 28t28 33q64 74 110 108t81 37l20 139l-39 -1q-82 0 -120.5 45t-38.5 118q0 27 6 54t26 53q5 -36 14.5 -60.5t25.5 -39.5t40.5 -21t59.5 -6
q32 0 58 -7t36 -17l-43 -269q27 -17 41.5 -56t14.5 -93v-97h196v-142q0 -71 13.5 -132.5t41 -119t69.5 -113t98 -113.5q10 21 22 43t24.5 44t24.5 41.5t23 34.5q-30 33 -53 73.5t-39 82.5t-24.5 83t-8.5 76v142h371z" />
    <glyph glyph-name="uni1840.init" horiz-adv-x="1083" 
d="M1103 909v-182h-287q0 -57 40 -126t108 -137q-20 -21 -47.5 -62.5t-53.5 -88t-46.5 -90t-25.5 -68.5q-51 30 -107 83t-104 126.5t-82 165t-40 197.5h-76q-3 -75 -13.5 -153t-23.5 -157l-36 -10q-20 43 -34 95t-24 102t-14.5 91.5t-4.5 63.5v150q0 40 -9.5 64.5
t-32.5 24.5q-16 0 -28.5 -2.5t-24 -7.5t-23.5 -12t-27 -17q-25 -17 -38.5 -29.5t-20.5 -12.5q-11 10 -19.5 22.5t-8.5 21.5q11 11 25 28t28 33q64 74 110 108t81 37l20 139l-39 -1q-82 0 -120.5 45t-38.5 118q0 27 6 54t26 53q5 -36 14.5 -60.5t25.5 -39.5t40.5 -21t59.5 -6
q32 0 58 -7t36 -17l-43 -269q27 -17 41.5 -56t14.5 -93v-97h196v-142q0 -71 13.5 -132.5t41 -119t69.5 -113t98 -113.5q10 21 22 43t24.5 44t24.5 41.5t23 34.5q-30 33 -53 73.5t-39 82.5t-24.5 83t-8.5 76v142h371z" />
    <glyph glyph-name="uni1840.fina" horiz-adv-x="982" 
d="M992 909v-182h-287q0 -57 40 -126t108 -137q-20 -21 -47.5 -62.5t-53.5 -88t-46.5 -90t-25.5 -68.5q-51 30 -107 83t-104 126.5t-82 165t-40 197.5h-167q-2 -24 -6 -67t-9 -89.5t-12 -88.5t-14 -66l-35 -11q-30 75 -48.5 157t-26.5 165h-30v182h173l31 192l-39 -1
q-82 0 -120.5 45t-38.5 118q0 27 6 54t26 53q5 -36 14.5 -60.5t25.5 -39.5t40.5 -21t59.5 -6q32 0 58 -7t36 -17l-52 -310h211v-142q0 -71 13.5 -132.5t41 -119t69.5 -113t98 -113.5q10 21 22 43t24.5 44t24.5 41.5t23 34.5q-30 33 -53 73.5t-39 82.5t-24.5 83t-8.5 76v142
h371z" />
    <glyph glyph-name="uni1841" unicode="&#x1841;" horiz-adv-x="635" 
d="M645 909v-182h-287q0 -57 40 -126t108 -137q-20 -21 -47.5 -62.5t-53.5 -88t-46.5 -90t-25.5 -68.5q-53 31 -111.5 88t-108 135.5t-82 176.5t-32.5 212v142h84v-142q0 -71 13.5 -132.5t41 -119t69.5 -113t98 -113.5q10 21 22 43t24.5 44t24.5 41.5t23 34.5
q-30 33 -53 73.5t-39 82.5t-24.5 83t-8.5 76v142h371z" />
    <glyph glyph-name="uni1841.fina" horiz-adv-x="635" 
d="M645 909v-182h-287q0 -57 40 -126t108 -137q-20 -21 -47.5 -62.5t-53.5 -88t-46.5 -90t-25.5 -68.5q-53 31 -111.5 88t-108 135.5t-82 176.5t-32.5 212v142h84v-142q0 -71 13.5 -132.5t41 -119t69.5 -113t98 -113.5q10 21 22 43t24.5 44t24.5 41.5t23 34.5
q-30 33 -53 73.5t-39 82.5t-24.5 83t-8.5 76v142h371z" />
    <glyph glyph-name="uni1842" unicode="&#x1842;" horiz-adv-x="910" 
d="M920 909v-182h-139v-137q0 -121 -42 -187.5t-133 -66.5t-137 66.5t-46 187.5v137h-66v-137q0 -121 -42 -187.5t-133 -66.5t-137 66.5t-46 187.5v319h921zM303 727h-250v-137q0 -57 35 -85.5t96 -28.5q55 0 87 28.5t32 85.5v137zM727 727h-250v-137q0 -57 35 -85.5
t96 -28.5q55 0 87 28.5t32 85.5v137z" />
    <glyph glyph-name="uni1842.fina" horiz-adv-x="910" 
d="M920 909v-182h-139v-137q0 -121 -42 -187.5t-133 -66.5t-137 66.5t-46 187.5v137h-66v-137q0 -121 -42 -187.5t-133 -66.5t-137 66.5t-46 187.5v319h921zM303 727h-250v-137q0 -57 35 -85.5t96 -28.5q55 0 87 28.5t32 85.5v137zM727 727h-250v-137q0 -57 35 -85.5
t96 -28.5q55 0 87 28.5t32 85.5v137z" />
    <glyph glyph-name="glyph364" unicode="&#x1843;" horiz-adv-x="165" 
d="M182 909v-182h-192v182h44q0 34 -4 67.5t-8.5 64t-8 56.5t-3.5 46q0 26 14 40t43 14q27 0 41 -14t14 -40q0 -20 -3.5 -46t-8 -56.5t-8 -64t-3.5 -67.5h83z" />
    <glyph glyph-name="uni1843" horiz-adv-x="192" 
d="M222 909v-182h-222v182h44q0 34 -4 67.5t-8.5 64t-8 56.5t-3.5 46q0 26 14 40t43 14q27 0 41 -14t14 -40q0 -20 -3.5 -46t-8 -56.5t-8 -64t-3.5 -67.5h113z" />
    <glyph glyph-name="glyph366" horiz-adv-x="621" 
d="M610 544v-330q0 -69 -12.5 -119.5t-36.5 -88t-60 -64.5t-83 -48q-27 -12 -43 -21.5t-27 -20t-19 -25t-20 -36.5h-18l53 227q11 3 21.5 6t23 7.5t27 11.5t34.5 19q12 7 27 18t28.5 28t23 43t9.5 63v330q0 89 -34 136t-94 47h-410v182h44q0 34 -4 67.5t-8.5 64t-8 56.5
t-3.5 46q0 26 14 40t43 14q27 0 41 -14t14 -40q0 -20 -3.5 -46t-8 -56.5t-8 -64t-3.5 -67.5h301q99 0 149.5 -90.5t50.5 -274.5z" />
    <glyph glyph-name="uni1844" unicode="&#x1844;" horiz-adv-x="967" 
d="M977 909v-182h-382q3 -51 13 -99t30 -85.5t51 -62t76 -30.5q94 -12 104 -44q3 -9 8.5 -27.5t11.5 -38.5t10.5 -38t6.5 -28q-18 8 -50.5 18.5t-77.5 14.5q-86 7 -136 40t-77.5 87t-38 128.5t-15.5 164.5h-129q-3 -75 -13.5 -154t-23.5 -158l-36 -10q-20 43 -34 96t-24 103
t-14.5 91.5t-4.5 63.5v150q0 40 -9.5 64.5t-32.5 24.5q-16 0 -28.5 -2.5t-24 -7.5t-23.5 -12t-27 -17q-25 -17 -38.5 -29.5t-20.5 -12.5q-11 10 -19.5 22.5t-8.5 21.5q11 11 25 28t28 33q67 77 114 111t83 34q45 0 70 -44.5t25 -116.5v-97h632z" />
    <glyph glyph-name="uni1844.init" horiz-adv-x="1000" 
d="M1010 909v-182h-415q3 -51 13 -99t30 -85.5t51 -62t76 -30.5q94 -12 104 -44q3 -9 8.5 -27.5t11.5 -38.5t10.5 -38t6.5 -28q-18 8 -50.5 18.5t-77.5 14.5q-86 7 -136 40t-77.5 87t-38 128.5t-15.5 164.5h-129q-3 -75 -13.5 -154t-23.5 -158l-36 -10q-20 43 -34 96
t-24 103t-14.5 91.5t-4.5 63.5v150q0 40 -9.5 64.5t-32.5 24.5q-16 0 -28.5 -2.5t-24 -7.5t-23.5 -12t-27 -17q-25 -17 -38.5 -29.5t-20.5 -12.5q-11 10 -19.5 22.5t-8.5 21.5q11 11 25 28t28 33q67 77 114 111t83 34q45 0 70 -44.5t25 -116.5v-97h665z" />
    <glyph glyph-name="uni1844.medi" horiz-adv-x="510" 
d="M520 909v-182h-421q3 -51 13 -99t30 -85.5t51 -62t76 -30.5q94 -12 104 -44q3 -9 8.5 -27.5t11.5 -38.5t10.5 -38t6.5 -28q-18 8 -50.5 18.5t-77.5 14.5q-86 7 -136 40t-77.5 87t-38 128.5t-15.5 164.5h-15v182h520z" />
    <glyph glyph-name="uni1844.medi_FVS1.calt" horiz-adv-x="800" 
d="M810 909v-182h-419q3 -51 13 -99t30 -85.5t51 -62t76 -30.5q94 -12 104 -44q3 -9 8.5 -27.5t11.5 -38.5t10.5 -38t6.5 -28q-18 8 -50.5 18.5t-77.5 14.5q-86 7 -136 40t-77.5 87t-38 128.5t-15.5 164.5h-126q-2 -24 -6 -67t-9 -89.5t-12 -88.5t-14 -66l-35 -11
q-30 75 -48.5 157t-26.5 165h-30v182h810z" />
    <glyph glyph-name="uni1844.fina" horiz-adv-x="510" 
d="M520 909v-182h-421q3 -51 13 -99t30 -85.5t51 -62t76 -30.5q94 -12 104 -44q3 -9 8.5 -27.5t11.5 -38.5t10.5 -38t6.5 -28q-18 8 -50.5 18.5t-77.5 14.5q-86 7 -136 40t-77.5 87t-38 128.5t-15.5 164.5h-15v182h520z" />
    <glyph glyph-name="uni1845" unicode="&#x1845;" horiz-adv-x="1100" 
d="M1060 770q0 -89 -8.5 -158.5t-24 -131t-38 -119t-50.5 -120.5l-87 166q45 97 66.5 189.5t21.5 173.5q0 60 -17.5 123t-50.5 115.5t-81.5 89t-111.5 44.5q-19 0 -31.5 -11t-12.5 -31v-638q0 -19 -5.5 -37.5t-26.5 -18.5q-11 0 -17 6t-10 14.5t-5.5 16.5t-2.5 12l-64 272
h-122q-3 -75 -13.5 -154t-23.5 -158l-36 -10q-20 43 -34 96t-24 103t-14.5 91.5t-4.5 63.5v150q0 40 -9.5 64.5t-32.5 24.5q-16 0 -28.5 -2.5t-24 -7.5t-23.5 -12t-27 -17q-25 -17 -38.5 -29.5t-20.5 -12.5q-11 10 -19.5 22.5t-8.5 21.5q11 11 25 28t28 33q67 77 114 111
t83 34q45 0 70 -44.5t25 -116.5v-97h176l-1 323q0 13 2 26t8 23.5t16 17.5t26 7q26 0 41.5 -6t28 -14t27.5 -16t39 -13q78 -16 143 -62t111.5 -112t72 -147t25.5 -166z" />
    <glyph glyph-name="uni1845.isol" horiz-adv-x="1100" 
d="M1060 770q0 -89 -8.5 -158.5t-24 -131t-38 -119t-50.5 -120.5l-87 166q45 97 66.5 189.5t21.5 173.5q0 60 -17.5 123t-50.5 115.5t-81.5 89t-111.5 44.5q-19 0 -31.5 -11t-12.5 -31v-638q0 -19 -5.5 -37.5t-26.5 -18.5q-11 0 -17 6t-10 14.5t-5.5 16.5t-2.5 12l-64 272
h-122q-3 -75 -13.5 -154t-23.5 -158l-36 -10q-20 43 -34 95t-24 103t-14.5 92.5t-4.5 63.5v150q0 40 -9.5 64.5t-32.5 24.5q-16 0 -28.5 -2.5t-24 -7.5t-23.5 -12t-27 -17q-25 -17 -38.5 -29.5t-20.5 -12.5q-11 10 -19.5 22.5t-8.5 21.5q11 11 25 28t28 33q67 77 114 111
t83 34q45 0 70 -44.5t25 -116.5v-97h176l-1 323q0 13 2 26t8 23.5t16 17.5t26 7q26 0 41.5 -6t28 -14t27.5 -16t39 -13q78 -16 143 -62t111.5 -112t72 -147t25.5 -166z" />
    <glyph glyph-name="uni1845.init" horiz-adv-x="1066" 
d="M1076 909v-182h-277v-269q31 0 59.5 -13.5t51 -33t36 -42t13.5 -40.5q0 -6 -1.5 -10.5t-6.5 -4.5t-11.5 2.5t-16.5 5t-25 5t-37 2.5h-233q-20 0 -41 8.5t-38 24.5t-27.5 40t-10.5 54v271h-129q-3 -75 -13.5 -154t-23.5 -158l-36 -10q-20 43 -34 96t-24 103t-14.5 91.5
t-4.5 63.5v150q0 40 -9.5 64.5t-32.5 24.5q-16 0 -28.5 -2.5t-24 -7.5t-23.5 -12t-27 -17q-25 -17 -38.5 -29.5t-20.5 -12.5q-11 10 -19.5 22.5t-8.5 21.5q11 11 25 28t28 33q67 77 114 111t83 34q45 0 70 -44.5t25 -116.5v-97h238v-329q0 -36 3.5 -60.5t13.5 -39t27 -20.5
t44 -6q8 0 28 2t28 2v451h349z" />
    <glyph glyph-name="uni1845.medi" horiz-adv-x="575" 
d="M585 909v-182h-297v-269q31 0 59.5 -13.5t51 -33t36 -42t13.5 -40.5q0 -6 -1.5 -10.5t-6.5 -4.5t-11.5 2.5t-16.5 5t-25 5t-37 2.5h-233q-20 0 -41 8.5t-38 24.5t-27.5 40t-10.5 54v453h72v-329q0 -36 3.5 -60.5t13.5 -39t27 -20.5t44 -6q8 0 28 2t28 2v451h369z" />
    <glyph glyph-name="uni1845.medi_FVS1.calt" horiz-adv-x="869" 
d="M882 909v-182h-277v-269q31 0 59.5 -13.5t51 -33t36 -42t13.5 -40.5q0 -6 -1.5 -10.5t-6.5 -4.5t-11.5 2.5t-16.5 5t-25 5t-37 2.5h-233q-20 0 -41 8.5t-38 24.5t-27.5 40t-10.5 54v271h-136q-2 -24 -6 -67t-9 -89.5t-12 -88.5t-14 -66l-35 -11q-30 75 -48.5 157
t-26.5 165h-30v182h389v-329q0 -36 3.5 -60.5t13.5 -39t27 -20.5t44 -6q8 0 28 2t28 2v451h349z" />
    <glyph glyph-name="uni1845.fina" horiz-adv-x="580" 
d="M540 770q0 -89 -8.5 -158.5t-24 -131t-38 -119t-50.5 -120.5l-87 166q45 97 66.5 189.5t21.5 173.5q0 60 -17.5 123t-50.5 115.5t-81.5 89t-111.5 44.5q-19 0 -31.5 -11t-12.5 -31v-639q0 -19 -5.5 -37.5t-26.5 -18.5q-11 0 -17 6t-10 14.5t-5.5 16.5t-2.5 12l-64 273
l17 182l-1 323q0 13 2 26t8 23.5t16 17.5t26 7q26 0 41.5 -6t28 -14t27.5 -16t39 -13q78 -16 143 -62t111.5 -112t72 -147t25.5 -166z" />
    <glyph glyph-name="uni1846" unicode="&#x1846;" horiz-adv-x="944" 
d="M945 909v-641h-51q-33 0 -74.5 2.5t-86.5 10t-85.5 23t-71.5 40.5t-45 63l-24 320h-125q-3 -75 -13.5 -154t-23.5 -158l-36 -10q-20 43 -34 96t-24 103t-14.5 91.5t-4.5 63.5v150q0 40 -9.5 64.5t-32.5 24.5q-16 0 -28.5 -2.5t-24 -7.5t-23.5 -12t-27 -17
q-25 -17 -38.5 -29.5t-20.5 -12.5q-11 10 -19.5 22.5t-8.5 21.5q11 11 25 28t28 33q67 77 114 111t83 34q45 0 70 -44.5t25 -116.5v-97h600zM873 727h-294l19 -209q14 -38 44 -60.5t68 -35t80.5 -17t82.5 -7.5v329z" />
    <glyph glyph-name="uni1846.isol" horiz-adv-x="931" 
d="M945 909v-641h-51q-33 0 -74.5 2.5t-86.5 10t-85.5 23t-71.5 40.5t-45 63l-24 320h-125q-3 -75 -13.5 -154t-23.5 -158l-36 -10q-20 43 -34 96t-24 103t-14.5 91.5t-4.5 63.5v150q0 40 -9.5 64.5t-32.5 24.5q-16 0 -28.5 -2.5t-24 -7.5t-23.5 -12t-27 -17
q-25 -17 -38.5 -29.5t-20.5 -12.5q-11 10 -19.5 22.5t-8.5 21.5q11 11 25 28t28 33q67 77 114 111t83 34q45 0 70 -44.5t25 -116.5v-97h600zM873 727h-294l19 -209q14 -38 44 -60.5t68 -35t80.5 -17t82.5 -7.5v329z" />
    <glyph glyph-name="uni1846.init" horiz-adv-x="1070" 
d="M1080 909v-182h-138v-459h-51q-33 0 -74.5 2.5t-86.5 10t-85.5 23t-72 40.5t-44.5 63l-24 320h-122q-3 -75 -13.5 -153t-23.5 -159l-36 -10q-20 43 -34 96t-24 103t-14.5 91.5t-4.5 63.5v150q0 40 -9.5 64.5t-32.5 24.5q-16 0 -28.5 -2.5t-24 -7.5t-23.5 -12t-27 -17
q-25 -17 -38.5 -29.5t-20.5 -12.5q-11 10 -19.5 22.5t-8.5 21.5q11 11 25 28t28 33q67 77 114 111t83 34q45 0 70 -44.5t25 -116.5v-97h735zM870 727h-294l19 -209q14 -38 44 -60.5t68 -35t80.5 -17t82.5 -7.5v329z" />
    <glyph glyph-name="uni1846.medi" horiz-adv-x="570" 
d="M580 909v-182h-138v-459h-51q-33 0 -74.5 2.5t-86.5 10t-85.5 23t-72 40.5t-44.5 63l-24 320h-4v182h580zM370 727h-294l19 -209q14 -38 44 -60.5t68 -35t80.5 -17t82.5 -7.5v329z" />
    <glyph glyph-name="uni1846.medi_FVS1.calt" horiz-adv-x="860" 
d="M870 909v-182h-138v-459h-51q-33 0 -74.5 2.5t-86.5 10t-85.5 23t-72 40.5t-44.5 63l-24 320h-143q-2 -24 -6 -67t-9 -89.5t-12 -88.5t-14 -66l-35 -11q-30 75 -48.5 157t-26.5 165v182h870zM660 727h-294l19 -209q14 -38 44 -60.5t68 -35t80.5 -17t82.5 -7.5v329z" />
    <glyph glyph-name="uni1846.fina" horiz-adv-x="452" 
d="M370 727h-294l19 -209q14 -38 44 -60.5t68 -35t80.5 -17t82.5 -7.5v329zM442 909v-641h-51q-33 0 -74.5 2.5t-86.5 10t-85.5 23t-72 40.5t-44.5 63l-24 320h-4v182h442z" />
    <glyph glyph-name="uni1847" unicode="&#x1847;" horiz-adv-x="1054" 
d="M1043 881q0 -36 -8 -55t-14 -19q-14 0 -20.5 15.5t-14.5 61.5q-11 71 -31 123t-46 86t-57 50.5t-65 16.5q-163 0 -208 -251h236q85 0 85 -87v-186q0 -52 -8 -101.5t-26.5 -90.5t-49 -69t-75.5 -36q25 -129 135 -162q11 -20 16.5 -45t5.5 -40t-5.5 -29.5t-16.5 -25.5
q-28 9 -56.5 37t-54.5 69t-46.5 91t-31.5 103q-39 4 -67 25t-47.5 53t-31.5 72t-18.5 82t-9 83t-2.5 75h-129q-3 -75 -13.5 -154t-23.5 -158l-36 -10q-20 43 -34 96t-24 103t-14.5 91.5t-4.5 63.5v150q0 40 -9.5 64.5t-32.5 24.5q-16 0 -28.5 -2.5t-24 -7.5t-23.5 -12
t-27 -17q-25 -17 -38.5 -29.5t-20.5 -12.5q-11 10 -19.5 22.5t-8.5 21.5q11 11 25 28t28 33q67 77 114 111t83 34q45 0 70 -44.5t25 -116.5v-97h166q14 200 82.5 305.5t193.5 105.5q62 0 110 -33t80.5 -91.5t49 -139t16.5 -175.5zM836 727h-261q0 -54 2 -100t14 -79.5
t38.5 -52.5t75.5 -19t75.5 18.5t39 51.5t14.5 79t2 102z" />
    <glyph glyph-name="uni1847.isol" horiz-adv-x="1054" 
d="M1043 881q0 -36 -8 -55t-14 -19q-14 0 -20.5 15.5t-14.5 61.5q-11 71 -31 123t-46 86t-57 50.5t-65 16.5q-163 0 -208 -251h236q85 0 85 -87v-186q0 -52 -8 -101.5t-26.5 -90.5t-49 -69t-75.5 -36q25 -129 135 -162q11 -20 16.5 -45t5.5 -40t-5.5 -29.5t-16.5 -25.5
q-28 9 -56.5 37t-54.5 69t-46.5 91t-31.5 103q-39 4 -67 25t-47.5 53t-31.5 72t-18.5 82t-9 83t-2.5 75h-129q-3 -75 -13.5 -154t-23.5 -158l-36 -10q-20 43 -34 95t-24 103t-14.5 92.5t-4.5 63.5v150q0 40 -9.5 64.5t-32.5 24.5q-16 0 -28.5 -2.5t-24 -7.5t-23.5 -12
t-27 -17q-25 -17 -38.5 -29.5t-20.5 -12.5q-11 10 -19.5 22.5t-8.5 21.5q11 11 25 28t28 33q67 77 114 111t83 34q45 0 70 -44.5t25 -116.5v-97h166q14 200 82.5 305.5t193.5 105.5q62 0 110 -33t80.5 -91.5t49 -139t16.5 -175.5zM836 727h-261q0 -54 2 -100t14 -79.5
t38.5 -52.5t75.5 -19t75.5 18.5t39 51.5t14.5 79t2 102z" />
    <glyph glyph-name="uni1847_FVS1.isol" horiz-adv-x="844" 
d="M857 909v-319q0 -116 -38.5 -182t-120.5 -72q25 -126 134 -159q11 -20 16.5 -45t5.5 -40t-5.5 -29.5t-16.5 -25.5q-28 9 -57 37.5t-54.5 69.5t-46.5 92t-32 104q-71 14 -107 78t-36 172v137h-117q-3 -75 -13.5 -154t-23.5 -158l-36 -10q-20 43 -34 96t-24 103t-14.5 91.5
t-4.5 63.5v150q0 40 -9.5 64.5t-32.5 24.5q-16 0 -28.5 -2.5t-24 -7.5t-23.5 -12t-27 -17q-25 -17 -38.5 -29.5t-20.5 -12.5q-11 10 -19.5 22.5t-8.5 21.5q11 11 25 28t28 33q67 77 114 111t83 34q45 0 70 -44.5t25 -116.5v-97h512zM803 727h-250v-137q0 -57 35 -85.5
t96 -28.5q55 0 87 28.5t32 85.5v137z" />
    <glyph glyph-name="uni1847.init" horiz-adv-x="997" 
d="M1007 909v-182h-138v-137q0 -116 -38.5 -182t-120.5 -72q25 -126 134 -159q11 -20 16.5 -45t5.5 -40t-5.5 -29.5t-16.5 -25.5q-28 9 -57 37.5t-54.5 69.5t-46.5 92t-32 104q-71 14 -107 78t-36 172v137h-129q-3 -75 -13.5 -154t-23.5 -158l-36 -10q-20 43 -34 96t-24 103
t-14.5 91.5t-4.5 63.5v150q0 40 -9.5 64.5t-32.5 24.5q-16 0 -28.5 -2.5t-24 -7.5t-23.5 -12t-27 -17q-25 -17 -38.5 -29.5t-20.5 -12.5q-11 10 -19.5 22.5t-8.5 21.5q11 11 25 28t28 33q67 77 114 111t83 34q45 0 70 -44.5t25 -116.5v-97h662zM815 727h-250v-137
q0 -57 35 -85.5t96 -28.5q55 0 87 28.5t32 85.5v137z" />
    <glyph glyph-name="uni1847.medi" horiz-adv-x="489" 
d="M501 909v-182h-143v-137q0 -116 -38.5 -182t-120.5 -72q25 -126 134 -159q11 -20 16.5 -45t5.5 -40t-5.5 -29.5t-16.5 -25.5q-28 9 -57 37.5t-54.5 69.5t-46.5 92t-32 104q-71 14 -107 78t-36 172v319h501zM304 727h-250v-137q0 -57 35 -85.5t96 -28.5q55 0 87 28.5
t32 85.5v137z" />
    <glyph glyph-name="uni1847.medi_FVS1.calt" horiz-adv-x="760" 
d="M770 909v-182h-133v-137q0 -116 -38.5 -182t-120.5 -72q25 -126 134 -159q11 -20 16.5 -45t5.5 -40t-5.5 -29.5t-16.5 -25.5q-28 9 -57 37.5t-54.5 69.5t-46.5 92t-32 104q-71 14 -107 78t-36 172v137h-129q-2 -24 -6 -67t-8.5 -89.5t-11.5 -88.5t-14 -66l-35 -11
q-30 75 -48.5 157t-26.5 165v182h770zM583 727h-250v-137q0 -57 35 -85.5t96 -28.5q55 0 87 28.5t32 85.5v137z" />
    <glyph glyph-name="uni1847.medi_FVS2.calt" horiz-adv-x="487" 
d="M496 909v-182h-138v-137q0 -121 -42 -187.5t-133 -66.5t-137 66.5t-46 187.5v137v182h496zM304 727h-250v-137q0 -57 35 -85.5t96 -28.5q55 0 87 28.5t32 85.5v137z" />
    <glyph glyph-name="uni1847.fina" horiz-adv-x="545" 
d="M532 881q0 -36 -8 -55t-14 -19q-14 0 -20.5 15.5t-14.5 61.5q-11 71 -31 123t-46 86t-57 50.5t-65 16.5q-163 0 -208 -251h236q85 0 85 -87v-186q0 -52 -8 -101.5t-26.5 -90.5t-49 -69t-75.5 -36q25 -129 135 -162q11 -20 16.5 -45t5.5 -40t-5.5 -29.5t-16.5 -25.5
q-28 9 -56.5 37t-54.5 69t-46.5 91t-31.5 103q-39 4 -67 25t-47.5 53t-31.5 72t-18.5 82t-9 83t-2.5 75v182q14 200 82.5 305.5t193.5 105.5q62 0 110 -33t80.5 -91.5t49 -139t16.5 -175.5zM325 727h-261q0 -54 2 -100t14 -79.5t38.5 -52.5t75.5 -19t75.5 18.5t39 51.5
t14.5 79t2 102z" />
    <glyph glyph-name="glyph392" horiz-adv-x="545" 
d="M325 727h-261q0 -54 2 -100t14 -79.5t38.5 -52.5t75.5 -19t75.5 18.5t39 51.5t14.5 79t2 102zM532 881q0 -36 -8 -55t-14 -19q-14 0 -20.5 15.5t-14.5 61.5q-11 71 -31 123t-46 86t-57 50.5t-65 16.5q-163 0 -208 -251h236q85 0 85 -87v-186q0 -57 -9.5 -111t-32 -96
t-60 -67.5t-93.5 -25.5q-43 0 -73.5 19t-52 51t-35 73t-21 84t-10 86t-2.5 78v182q14 200 82.5 305.5t193.5 105.5q62 0 110 -33t80.5 -91.5t49 -139t16.5 -175.5z" />
    <glyph glyph-name="uni1848" unicode="&#x1848;" horiz-adv-x="945" 
d="M948 909v-641h-51q-33 0 -74.5 2.5t-86.5 10t-85.5 23t-71.5 40.5t-45 63l-24 320h-128q-3 -75 -13.5 -153t-23.5 -159l-36 -10q-20 43 -34 96t-24 103t-14.5 91.5t-4.5 63.5v150q0 40 -9.5 64.5t-32.5 24.5q-16 0 -28.5 -2.5t-24 -7.5t-23.5 -12t-27 -17
q-25 -17 -38.5 -29.5t-20.5 -12.5q-11 10 -19.5 22.5t-8.5 21.5q11 11 25 28t28 33q67 77 114 111t83 34q45 0 70 -44.5t25 -116.5v-97h240v121q4 19 -6 38t-23.5 38.5t-25.5 39t-12 40.5q0 28 23 28q15 0 40.5 -12.5t51.5 -27.5q31 -18 54.5 -33.5t23.5 -38.5
q0 -14 -4.5 -25t-9.5 -28l-46 -140h297zM876 727h-294l19 -209q14 -38 44 -60.5t68 -35t80.5 -17t82.5 -7.5v329z" />
    <glyph glyph-name="uni1848.isol" horiz-adv-x="945" 
d="M948 909v-641h-51q-33 0 -74.5 2.5t-86.5 10t-85.5 23t-71.5 40.5t-45 63l-24 320h-128q-3 -75 -13.5 -154t-23.5 -158l-36 -10q-20 43 -34 96t-24 103t-14.5 91.5t-4.5 63.5v150q0 40 -9.5 64.5t-32.5 24.5q-16 0 -28.5 -2.5t-24 -7.5t-23.5 -12t-27 -17
q-25 -17 -38.5 -29.5t-20.5 -12.5q-11 10 -19.5 22.5t-8.5 21.5q11 11 25 28t28 33q67 77 114 111t83 34q45 0 70 -44.5t25 -116.5v-97h240v121q4 19 -6 38t-23.5 38.5t-25.5 39t-12 40.5q0 28 23 28q15 0 40.5 -12.5t51.5 -27.5q31 -18 54.5 -33.5t23.5 -38.5
q0 -14 -4.5 -25t-9.5 -28l-46 -140h297zM876 727h-294l19 -209q14 -38 44 -60.5t68 -35t80.5 -17t82.5 -7.5v329z" />
    <glyph glyph-name="uni1848.init" horiz-adv-x="1076" 
d="M1087 909v-182h-138v-459h-51q-33 0 -74.5 2.5t-86.5 10t-85.5 23t-71.5 40.5t-45 63l-24 320h-129q-3 -75 -13.5 -154t-23.5 -158l-36 -10q-20 43 -34 96t-24 103t-14.5 91.5t-4.5 63.5v150q0 40 -9.5 64.5t-32.5 24.5q-16 0 -28.5 -2.5t-24 -7.5t-23.5 -12t-27 -17
q-25 -17 -38.5 -29.5t-20.5 -12.5q-11 10 -19.5 22.5t-8.5 21.5q11 11 25 28t28 33q67 77 114 111t83 34q45 0 70 -44.5t25 -116.5v-97h241v121q4 19 -6 38t-23.5 38.5t-25.5 39t-12 40.5q0 28 23 28q15 0 40.5 -12.5t51.5 -27.5q31 -18 54.5 -33.5t23.5 -38.5
q0 -14 -4.5 -25t-9.5 -28l-46 -140h435zM877 727h-294l19 -209q14 -38 44 -60.5t68 -35t80.5 -17t82.5 -7.5v329z" />
    <glyph glyph-name="uni1848.medi" horiz-adv-x="571" 
d="M580 909v-182h-138v-459h-51q-33 0 -74.5 2.5t-86.5 10t-85.5 23t-72 40.5t-44.5 63l-24 320h-4v182h79v121q4 19 -6 38t-23.5 38.5t-25.5 39t-12 40.5q0 28 23 28q15 0 40.5 -12.5t51.5 -27.5q31 -18 54.5 -33.5t23.5 -38.5q0 -14 -4.5 -25t-9.5 -28l-46 -140h435z
M370 727h-294l19 -209q14 -38 44 -60.5t68 -35t80.5 -17t82.5 -7.5v329z" />
    <glyph glyph-name="uni1848.medi_FVS1.calt" horiz-adv-x="846" 
d="M859 909v-182h-142v-459h-51q-33 0 -74.5 2.5t-86.5 10t-85.5 23t-72 40.5t-44.5 63l-24 320h-129q-2 -24 -6 -67t-8.5 -89.5t-11.5 -88.5t-14 -66l-35 -11q-30 75 -48.5 157t-26.5 165v182h354v121q4 19 -6 38t-23.5 38.5t-25.5 39t-12 40.5q0 28 23 28q15 0 40.5 -12.5
t51.5 -27.5q31 -18 54.5 -33.5t23.5 -38.5q0 -14 -4.5 -25t-9.5 -28l-46 -140h439zM645 727h-294l19 -209q14 -38 44 -60.5t68 -35t80.5 -17t82.5 -7.5v329z" />
    <glyph glyph-name="uni1848.fina" horiz-adv-x="452" 
d="M442 909v-641h-51q-33 0 -74.5 2.5t-86.5 10t-85.5 23t-72 40.5t-44.5 63l-24 320h-4v182h79v121q4 19 -6 38t-23.5 38.5t-25.5 39t-12 40.5q0 28 23 28q15 0 40.5 -12.5t51.5 -27.5q31 -18 54.5 -33.5t23.5 -38.5q0 -14 -4.5 -25t-9.5 -28l-46 -140h297zM370 727h-294
l19 -209q14 -38 44 -60.5t68 -35t80.5 -17t82.5 -7.5v329z" />
    <glyph glyph-name="uni1849" unicode="&#x1849;" horiz-adv-x="1055" 
d="M1043 881q0 -36 -8 -55t-14 -19q-14 0 -20.5 15.5t-14.5 61.5q-11 71 -31 123t-46 86t-57 50.5t-65 16.5q-163 0 -208 -251h236q85 0 85 -87v-186q0 -57 -9.5 -111t-32 -96t-60 -67.5t-93.5 -25.5q-43 0 -73.5 19t-52 51t-35 73t-21 84t-10 86t-2.5 78h-129
q-3 -75 -13.5 -153t-23.5 -157l-36 -10q-20 43 -34 95t-24 102t-14.5 91.5t-4.5 63.5v150q0 40 -9.5 64.5t-32.5 24.5q-16 0 -28.5 -2.5t-24 -7.5t-23.5 -12t-27 -17q-25 -17 -38.5 -29.5t-20.5 -12.5q-11 10 -19.5 22.5t-8.5 21.5q11 11 25 28t28 33q67 77 114 111t83 34
q45 0 70 -44.5t25 -116.5v-97h166q14 200 82.5 305.5t193.5 105.5q62 0 110 -33t80.5 -91.5t49 -139t16.5 -175.5zM836 727h-261q0 -54 2 -100t14 -79.5t38.5 -52.5t75.5 -19t75.5 18.5t39 51.5t14.5 79t2 102z" />
    <glyph glyph-name="uni1849.isol" horiz-adv-x="1055" 
d="M1043 881q0 -36 -8 -55t-14 -19q-14 0 -20.5 15.5t-14.5 61.5q-11 71 -31 123t-46 86t-57 50.5t-65 16.5q-163 0 -208 -251h236q85 0 85 -87v-186q0 -57 -9.5 -111t-32 -96t-60 -67.5t-93.5 -25.5q-43 0 -73.5 19t-52 51t-35 73t-21 84t-10 86t-2.5 78h-129
q-3 -75 -13.5 -153t-23.5 -157l-36 -10q-20 43 -34 95t-24 102t-14.5 91.5t-4.5 63.5v150q0 40 -9.5 64.5t-32.5 24.5q-16 0 -28.5 -2.5t-24 -7.5t-23.5 -12t-27 -17q-25 -17 -38.5 -29.5t-20.5 -12.5q-11 10 -19.5 22.5t-8.5 21.5q11 11 25 28t28 33q67 77 114 111t83 34
q45 0 70 -44.5t25 -116.5v-97h166q14 200 82.5 305.5t193.5 105.5q62 0 110 -33t80.5 -91.5t49 -139t16.5 -175.5zM836 727h-261q0 -54 2 -100t14 -79.5t38.5 -52.5t75.5 -19t75.5 18.5t39 51.5t14.5 79t2 102z" />
    <glyph glyph-name="uni1849_FVS1.isol" horiz-adv-x="859" 
d="M869 909v-319q0 -121 -42 -187.5t-133 -66.5t-137 66.5t-46 187.5v137h-129q-3 -75 -13.5 -153t-23.5 -157l-36 -10q-20 43 -34 95t-24 102t-14.5 91.5t-4.5 63.5v150q0 40 -9.5 64.5t-32.5 24.5q-16 0 -28.5 -2.5t-24 -7.5t-23.5 -12t-27 -17q-25 -17 -38.5 -29.5
t-20.5 -12.5q-11 10 -19.5 22.5t-8.5 21.5q11 11 25 28t28 33q67 77 114 111t83 34q45 0 70 -44.5t25 -116.5v-97h524zM815 727h-250v-137q0 -57 35 -85.5t96 -28.5q55 0 87 28.5t32 85.5v137z" />
    <glyph glyph-name="uni1849.init" horiz-adv-x="997" 
d="M1007 909v-182h-138v-137q0 -121 -42 -187.5t-133 -66.5t-137 66.5t-46 187.5v137h-129q-3 -75 -13.5 -153t-23.5 -157l-36 -10q-20 43 -34 95t-24 102t-14.5 91.5t-4.5 63.5v150q0 40 -9.5 64.5t-32.5 24.5q-16 0 -28.5 -2.5t-24 -7.5t-23.5 -12t-27 -17
q-25 -17 -38.5 -29.5t-20.5 -12.5q-11 10 -19.5 22.5t-8.5 21.5q11 11 25 28t28 33q67 77 114 111t83 34q45 0 70 -44.5t25 -116.5v-97h662zM815 727h-250v-137q0 -57 35 -85.5t96 -28.5q55 0 87 28.5t32 85.5v137z" />
    <glyph glyph-name="uni1849.medi" horiz-adv-x="487" 
d="M496 909v-182h-138v-137q0 -121 -42 -187.5t-133 -66.5t-137 66.5t-46 187.5v137v182h496zM304 727h-250v-137q0 -57 35 -85.5t96 -28.5q55 0 87 28.5t32 85.5v137z" />
    <glyph glyph-name="uni1849.medi_FVS1.calt" horiz-adv-x="767" 
d="M785 909v-182h-148v-137q0 -121 -42 -187.5t-133 -66.5t-137 66.5t-46 187.5v137h-129q-2 -24 -6 -67t-8.5 -89.5t-11.5 -88.5t-14 -66l-35 -11q-30 75 -48.5 157t-26.5 165v182h785zM583 727h-250v-137q0 -57 35 -85.5t96 -28.5q55 0 87 28.5t32 85.5v137z" />
    <glyph glyph-name="uni1849.fina" horiz-adv-x="545" 
d="M325 727h-261q0 -54 2 -100t14 -79.5t38.5 -52.5t75.5 -19t75.5 18.5t39 51.5t14.5 79t2 102zM532 881q0 -36 -8 -55t-14 -19q-14 0 -20.5 15.5t-14.5 61.5q-11 71 -31 123t-46 86t-57 50.5t-65 16.5q-163 0 -208 -251h236q85 0 85 -87v-186q0 -57 -9.5 -111t-32 -96
t-60 -67.5t-93.5 -25.5q-43 0 -73.5 19t-52 51t-35 73t-21 84t-10 86t-2.5 78v182q14 200 82.5 305.5t193.5 105.5q62 0 110 -33t80.5 -91.5t49 -139t16.5 -175.5z" />
    <glyph glyph-name="uni184A" unicode="&#x184a;" horiz-adv-x="1150" 
d="M1139 544v-330q0 -69 -12.5 -119.5t-36.5 -88t-60 -64.5t-83 -48q-27 -12 -43 -21.5t-27 -20t-19 -25t-20 -36.5h-18l53 227q11 3 21.5 6t23 7.5t27 11.5t34.5 19q12 7 27 18t28.5 28t23 43t9.5 63v330q0 89 -34 136t-94 47h-575q3 -51 13 -99t30 -85.5t51 -62t76 -30.5
q94 -12 104 -44q3 -9 8.5 -27.5t11.5 -38.5t10.5 -38t6.5 -28q-18 8 -50.5 18.5t-77.5 14.5q-86 7 -136 40t-77.5 87t-38 128.5t-15.5 164.5h-130q-2 -24 -6 -67t-8.5 -89.5t-11.5 -88.5t-14 -66l-35 -11q-30 75 -48.5 157t-26.5 165v182h939q99 0 149.5 -90.5t50.5 -274.5z
" />
    <glyph glyph-name="uni184A.medi" horiz-adv-x="694" 
d="M704 909v-182h-19q-11 0 -23.5 12.5t-16.5 28.5q-9 41 -18.5 85.5t-26.5 82t-47.5 62t-81.5 24.5q-24 0 -50 -8t-48 -30.5t-36 -61.5t-14 -100q0 -36 14.5 -68t35.5 -61t45 -55t43 -48l-27 -166h-13q-6 12 -16.5 27.5t-22.5 33t-24.5 35.5t-21.5 33q-10 16 -20 36.5
t-18.5 43t-13.5 46.5t-5 48h-129q-2 -24 -6 -67t-9 -89.5t-12 -88.5t-14 -66l-35 -11q-30 75 -48.5 157t-26.5 165v182h280q7 88 30 141.5t52 83t59.5 39t51.5 9.5q46 0 82 -22t62 -59t43.5 -87t25.5 -105h19z" />
    <glyph glyph-name="uni184A.fina" horiz-adv-x="1140" 
d="M1128 544v-330q0 -69 -12.5 -119.5t-36.5 -88t-60 -64.5t-83 -48q-27 -12 -43 -21.5t-27 -20t-19 -25t-20 -36.5h-18l53 227q11 3 21.5 6t23 7.5t27 11.5t34.5 19q12 7 27 18t28.5 28t23 43t9.5 63v330q0 89 -34 136t-94 47h-565q3 -51 13 -99t30 -85.5t51 -62t76 -30.5
q94 -12 104 -44q3 -9 8.5 -27.5t11.5 -38.5t10.5 -38t6.5 -28q-18 8 -50.5 18.5t-77.5 14.5q-86 7 -136 40t-77.5 87t-38 128.5t-15.5 164.5h-129q-2 -24 -6 -67t-8.5 -89.5t-11.5 -88.5t-14 -66l-35 -11q-30 75 -48.5 157t-26.5 165v182h928q99 0 149.5 -90.5t50.5 -274.5z
" />
    <glyph glyph-name="uni184B" unicode="&#x184b;" horiz-adv-x="843" 
d="M833 544v-330q0 -69 -12.5 -119.5t-36.5 -88t-60 -64.5t-83 -48q-27 -12 -43 -21.5t-27 -20t-19 -25t-20 -36.5h-18l53 227q11 3 21.5 6t23 7.5t27 11.5t34.5 19q12 7 27 18t28.5 28t23 43t9.5 63v330q0 89 -34 136t-94 47h-277v-137q0 -121 -42 -187.5t-133 -66.5
t-137 66.5t-46 187.5v319h635q99 0 149.5 -90.5t50.5 -274.5zM302 727h-250v-137q0 -57 35 -85.5t96 -28.5q55 0 87 28.5t32 85.5v137z" />
    <glyph glyph-name="uni184B.init" horiz-adv-x="534" 
d="M544 909v-182h-10q-6 0 -12.5 8t-14.5 26t-16 48t-17 75q-28 143 -79 209.5t-120 66.5q-163 0 -208 -251h236q85 0 85 -87v-186q0 -57 -9.5 -111t-32 -96t-60 -67.5t-93.5 -25.5q-43 0 -73.5 19t-52 51t-35 73t-21 84t-10 86t-2.5 78v182q14 200 82.5 305.5t193.5 105.5
q60 0 107 -30t79.5 -84.5t50 -130t19.5 -166.5h13zM324 727h-261q0 -54 2 -100t14 -79.5t38.5 -52.5t75.5 -19t75.5 18.5t39 51.5t14.5 79t2 102z" />
    <glyph glyph-name="uni184B.medi" horiz-adv-x="534" 
d="M544 909v-182h-10q-6 0 -12.5 8t-14.5 26t-16 48t-17 75q-28 143 -79 209.5t-120 66.5q-163 0 -208 -251h236q85 0 85 -87v-186q0 -57 -9.5 -111t-32 -96t-60 -67.5t-93.5 -25.5q-43 0 -73.5 19t-52 51t-35 73t-21 84t-10 86t-2.5 78v182q14 200 82.5 305.5t193.5 105.5
q60 0 107 -30t79.5 -84.5t50 -130t19.5 -166.5h13zM324 727h-261q0 -54 2 -100t14 -79.5t38.5 -52.5t75.5 -19t75.5 18.5t39 51.5t14.5 79t2 102z" />
    <glyph glyph-name="uni184B.fina" horiz-adv-x="845" 
d="M835 544v-330q0 -69 -12.5 -119.5t-36.5 -88t-60 -64.5t-83 -48q-27 -12 -43 -21.5t-27 -20t-19 -25t-20 -36.5h-18l53 227q11 3 21.5 6t23 7.5t27 11.5t34.5 19q12 7 27 18t28.5 28t23 43t9.5 63v330q0 89 -34 136t-94 47h-277v-137q0 -121 -42 -187.5t-133 -66.5
t-137 66.5t-46 187.5v319h635q99 0 149.5 -90.5t50.5 -274.5zM304 727h-250v-137q0 -57 35 -85.5t96 -28.5q55 0 87 28.5t32 85.5v137z" />
    <glyph glyph-name="uni184C" unicode="&#x184c;" horiz-adv-x="722" 
d="M710 874q0 -36 -8 -55t-14 -19q-14 0 -20.5 15.5t-14.5 61.5q-11 71 -31 123.5t-46 87.5t-57 52t-65 17q-41 0 -78.5 -24t-66.5 -65t-46 -97t-17 -119q0 -101 24.5 -186t56 -151t62 -111t43.5 -67q-75 20 -143.5 29.5t-122.5 9.5q-86 0 -142 -22v96l51 24l-10 253h-65
v182h65v257q0 21 9 34t35 13q25 0 34 -16.5t8 -30.5l-16 -257h41q5 86 27.5 160.5t59 129.5t85 86.5t106.5 31.5q62 0 110 -33.5t80.5 -93t49 -140.5t16.5 -176zM284 450q-35 64 -63.5 133.5t-39.5 143.5h-46l-16 -248h22q48 -2 83 -9.5t60 -19.5z" />
    <glyph glyph-name="uni184C.init" horiz-adv-x="713" 
d="M717 909v-182h-6q-6 0 -12.5 8t-14.5 26t-16 48t-17 75q-28 142 -79.5 207.5t-118.5 65.5q-49 0 -87.5 -27t-65.5 -71t-41 -100t-14 -115q0 -49 10 -102t26.5 -104.5t36.5 -100t40.5 -88t39 -68.5t31.5 -42q-72 18 -142 27.5t-122 9.5q-86 0 -142 -22v96l51 24l-10 253
h-65v182h65v257q0 21 9 34t35 13q25 0 34 -16.5t8 -30.5l-16 -257h41q5 86 27.5 160.5t58.5 129t84.5 86.5t106.5 32q60 0 107 -29.5t79.5 -83.5t50 -129t19.5 -166h9zM283 450q-35 64 -63.5 133.5t-39.5 143.5h-46l-16 -248h22q48 -2 83 -9.5t60 -19.5z" />
    <glyph glyph-name="uni184C.medi" horiz-adv-x="713" 
d="M717 909v-182h-6q-6 0 -12.5 8t-14.5 26t-16 48t-17 75q-28 142 -79.5 207.5t-118.5 65.5q-49 0 -87.5 -27t-65.5 -71t-41 -100t-14 -115q0 -49 10 -102t26.5 -104.5t36.5 -100t40.5 -88t39 -68.5t31.5 -42q-72 18 -142 27.5t-122 9.5q-86 0 -142 -22v96l51 24l-10 253
h-65v182h65v257q0 21 9 34t35 13q25 0 34 -16.5t8 -30.5l-16 -257h41q5 86 27.5 160.5t58.5 129t84.5 86.5t106.5 32q60 0 107 -29.5t79.5 -83.5t50 -129t19.5 -166h9zM283 450q-35 64 -63.5 133.5t-39.5 143.5h-46l-16 -248h22q48 -2 83 -9.5t60 -19.5z" />
    <glyph glyph-name="uni184C.fina" horiz-adv-x="792" 
d="M780 270q0 -69 -12.5 -119.5t-36.5 -88t-60 -64.5t-83 -48q-27 -12 -43 -21.5t-27 -20t-19 -25t-20 -36.5h-18l53 227q11 3 21.5 6t23 7.5t27 11.5t34.5 19q12 7 27 18t28.5 28t23 43t9.5 63v543q0 26 -2 61.5t-9 73.5t-21.5 75.5t-39.5 67t-63.5 48t-92.5 18.5
q-68 0 -113 -27.5t-72 -72t-38 -100.5t-11 -113q0 -49 10 -102t26.5 -104.5t36.5 -100t40.5 -88t39 -68.5t31.5 -42q-72 18 -142 27.5t-122 9.5q-86 0 -142 -22v96l51 24l-10 253h-65v182h65v257q0 21 9 34t35 13q25 0 34 -16.5t8 -30.5l-16 -257h41q6 90 28 165t60 129
t91.5 84t121.5 30q72 0 122 -22.5t84 -60.5t53 -88t29 -106t12.5 -114.5t2.5 -112.5v-543zM284 450q-35 64 -63.5 133.5t-39.5 143.5h-46l-16 -248h22q48 -2 83 -9.5t60 -19.5z" />
    <glyph glyph-name="uni184D" unicode="&#x184d;" horiz-adv-x="790" 
d="M799 909v-182h-138q-2 -24 -6 -67t-9 -89.5t-11.5 -88.5t-13.5 -66l-35 -11q-30 75 -48.5 157t-26.5 165h-129q-3 -75 -13.5 -154t-23.5 -158l-36 -10q-20 43 -34 95t-24 103t-14.5 92.5t-4.5 63.5v150q0 40 -9.5 64.5t-32.5 24.5q-16 0 -28.5 -2.5t-24 -7.5t-23.5 -12
t-27 -17q-25 -17 -38.5 -29.5t-20.5 -12.5q-11 10 -19.5 22.5t-8.5 21.5q11 11 25 28t28 33q67 77 114 111t83 34q45 0 70 -44.5t25 -116.5v-97h454zM366 178q0 -10 -6 -18t-15.5 -16.5t-21.5 -18t-24 -22.5q-11 -12 -19 -23t-14.5 -19.5t-12.5 -13.5t-13 -5
q-17 0 -28.5 8.5t-11.5 26.5q0 23 3.5 41.5t11.5 41.5q5 14 13 30t18.5 29.5t23 22t27.5 8.5q16 0 36 -18q33 -30 33 -54zM636 178q0 -10 -6 -18t-15.5 -16.5t-21.5 -18t-24 -22.5q-11 -12 -19 -23t-14.5 -19.5t-12.5 -13.5t-13 -5q-17 0 -28.5 8.5t-11.5 26.5
q0 23 3.5 41.5t11.5 41.5q5 14 13 30t18.5 29.5t23 22t27.5 8.5q16 0 36 -18q33 -30 33 -54z" />
    <glyph glyph-name="uni184D.init" horiz-adv-x="790" 
d="M799 909v-182h-138q-2 -24 -6 -67t-9 -89.5t-11.5 -88.5t-13.5 -66l-35 -11q-30 75 -48.5 157t-26.5 165h-129q-3 -75 -13.5 -154t-23.5 -158l-36 -10q-20 43 -34 95t-24 103t-14.5 92.5t-4.5 63.5v150q0 40 -9.5 64.5t-32.5 24.5q-16 0 -28.5 -2.5t-24 -7.5t-23.5 -12
t-27 -17q-25 -17 -38.5 -29.5t-20.5 -12.5q-11 10 -19.5 22.5t-8.5 21.5q11 11 25 28t28 33q67 77 114 111t83 34q45 0 70 -44.5t25 -116.5v-97h454zM366 178q0 -10 -6 -18t-15.5 -16.5t-21.5 -18t-24 -22.5q-11 -12 -19 -23t-14.5 -19.5t-12.5 -13.5t-13 -5
q-17 0 -28.5 8.5t-11.5 26.5q0 23 3.5 41.5t11.5 41.5q5 14 13 30t18.5 29.5t23 22t27.5 8.5q16 0 36 -18q33 -30 33 -54zM636 178q0 -10 -6 -18t-15.5 -16.5t-21.5 -18t-24 -22.5q-11 -12 -19 -23t-14.5 -19.5t-12.5 -13.5t-13 -5q-17 0 -28.5 8.5t-11.5 26.5
q0 23 3.5 41.5t11.5 41.5q5 14 13 30t18.5 29.5t23 22t27.5 8.5q16 0 36 -18q33 -30 33 -54z" />
    <glyph glyph-name="uni184D.medi_FVS1.calt" horiz-adv-x="558" 
d="M568 909v-182h-139q-2 -24 -6 -67t-8.5 -89.5t-11.5 -88.5t-14 -66l-35 -11q-30 75 -48.5 157t-26.5 165h-129q-2 -24 -6 -67t-9 -89.5t-12 -88.5t-14 -66l-25 -11q-30 75 -48.5 157t-26.5 165h-10v182h569zM210 188q0 -10 -6 -18t-15.5 -16.5t-21.5 -18t-24 -22.5
q-11 -12 -19 -23t-14.5 -19.5t-12.5 -13.5t-13 -5q-17 0 -28.5 8.5t-11.5 26.5q0 23 3.5 41.5t11.5 41.5q5 14 13 30t18.5 29.5t23 22t27.5 8.5q16 0 36 -18q33 -30 33 -54zM439 188q0 -10 -6 -18t-15.5 -16.5t-21.5 -18t-24 -22.5q-11 -12 -19 -23t-14.5 -19.5t-12.5 -13.5
t-13 -5q-17 0 -28.5 8.5t-11.5 26.5q0 23 3.5 41.5t11.5 41.5q5 14 13 30t18.5 29.5t23 22t27.5 8.5q16 0 36 -18q33 -30 33 -54z" />
    <glyph glyph-name="uni184D.init_FVS1.calt" horiz-adv-x="446" 
d="M442 909h14v-182h-17h-10q-18 10 -24 23q-6 12 -8 20l-2 8l-4 21q-5 20 -15 103q-11 82 -27 123t-41 68t-63 27q-44 0 -77 -20t-56 -56.5t-34.5 -87.5t-11.5 -47h120v-182h-107q4 3 34.5 -27.5t62.5 -45t48 -24.5l-59 -250h-29q-6 33 -13.5 68t-13 54.5t-63.5 118
t-47 288.5q7 88 28.5 157t54 116.5t74.5 72.5t90 25q58 0 96 -37t60 -96.5t31 -133.5t9 -104z" />
    <glyph glyph-name="uni184D.medi" horiz-adv-x="446" 
d="M442 909h14v-182h-17h-10q-18 10 -24 23q-6 12 -8 20l-2 8l-4 21q-5 20 -15 103q-11 82 -27 123t-41 68t-63 27q-44 0 -77 -20t-56 -56.5t-34.5 -87.5t-11.5 -47h120v-182h-107q4 3 34.5 -27.5t62.5 -45t48 -24.5l-59 -250h-29q-6 33 -13.5 68t-13 54.5t-63.5 118
t-47 288.5q7 88 28.5 157t54 116.5t74.5 72.5t90 25q58 0 96 -37t60 -96.5t31 -133.5t9 -104z" />
    <glyph glyph-name="uni184D.fina" horiz-adv-x="560" 
d="M549 303q0 -69 -12.5 -119.5t-36.5 -88t-60 -64.5t-83 -48q-27 -12 -43 -21.5t-27 -20t-19 -25t-20 -36.5h-18l53 227q11 3 21.5 6t23 7.5t27 11.5t34.5 19q12 7 27 18t28.5 28t23 43t9.5 63v543q0 25 -2.5 60t-10 73t-22 76t-38 68t-58.5 48.5t-84 18.5t-86 -33
t-61.5 -84.5t-37.5 -99.5t-14 -64h120v-182h-99q20 -26 45 -39t50.5 -31.5t41.5 -28.5l-59 -248h-29q-6 33 -15 68t-20 67.5t-23 61t-46.5 90t-29.5 242.5q0 78 18 156.5t52.5 142t85 103t116.5 39.5q62 0 107 -22.5t76 -60.5t49.5 -88t28.5 -106t13.5 -114.5t3.5 -112.5
v-543z" />
    <glyph glyph-name="uni184E" unicode="&#x184e;" horiz-adv-x="790" 
d="M800 909v-182h-139q-2 -24 -6 -67t-8.5 -89.5t-11.5 -88.5t-14 -66l-35 -11q-30 75 -48.5 157t-26.5 165h-129q-3 -75 -13.5 -154t-23.5 -158l-36 -10q-20 43 -34 95t-24 103t-14.5 92.5t-4.5 63.5v150q0 40 -9.5 64.5t-32.5 24.5q-16 0 -28.5 -2.5t-24 -7.5t-23.5 -12
t-27 -17q-25 -17 -38.5 -29.5t-20.5 -12.5q-11 10 -19.5 22.5t-8.5 21.5q11 11 25 28t28 33q67 77 114 111t83 34q45 0 70 -44.5t25 -116.5v-97h455zM621 146q0 -69 -38.5 -107.5t-107.5 -38.5q-67 0 -106 38.5t-39 107.5q0 59 38 96t107 37q71 0 108.5 -37t37.5 -96z
M570 144q0 37 -25 62t-70 25q-44 0 -69 -25t-25 -62q0 -44 25.5 -69.5t68.5 -25.5q45 0 70 25.5t25 69.5z" />
    <glyph glyph-name="uni184E.init" horiz-adv-x="790" 
d="M800 909v-182h-139q-2 -24 -6 -67t-8.5 -89.5t-11.5 -88.5t-14 -66l-35 -11q-30 75 -48.5 157t-26.5 165h-129q-3 -75 -13.5 -154t-23.5 -158l-36 -10q-20 43 -34 95t-24 103t-14.5 92.5t-4.5 63.5v150q0 40 -9.5 64.5t-32.5 24.5q-16 0 -28.5 -2.5t-24 -7.5t-23.5 -12
t-27 -17q-25 -17 -38.5 -29.5t-20.5 -12.5q-11 10 -19.5 22.5t-8.5 21.5q11 11 25 28t28 33q67 77 114 111t83 34q45 0 70 -44.5t25 -116.5v-97h455zM621 146q0 -69 -38.5 -107.5t-107.5 -38.5q-67 0 -106 38.5t-39 107.5q0 59 38 96t107 37q71 0 108.5 -37t37.5 -96z
M570 144q0 37 -25 62t-70 25q-44 0 -69 -25t-25 -62q0 -44 25.5 -69.5t68.5 -25.5q45 0 70 25.5t25 69.5z" />
    <glyph glyph-name="uni184E.medi_FVS1.calt" horiz-adv-x="560" 
d="M396 146q0 -69 -38.5 -107.5t-107.5 -38.5q-67 0 -106 38.5t-39 107.5q0 59 38 96t107 37q71 0 108.5 -37t37.5 -96zM345 144q0 37 -25 62t-70 25q-44 0 -69 -25t-25 -62q0 -44 25.5 -69.5t68.5 -25.5q45 0 70 25.5t25 69.5zM570 909v-182h-140q-2 -24 -6 -67t-8.5 -89.5
t-8.5 -88.5t-11 -66l-35 -11q-36 75 -54.5 157t-26.5 165h-129q-2 -24 -6 -67t-9 -89.5t-7 -88.5t-9 -66l-35 -11q-30 75 -48.5 157t-26.5 165h-10v182h570z" />
    <glyph glyph-name="uni184E.medi" horiz-adv-x="560" 
d="M425 64q0 -7 -1.5 -16.5t-5 -18.5t-9 -15t-13.5 -6q-11 0 -18 11.5t-14 25.5q-12 24 -24.5 42t-28.5 30t-37 17.5t-49 5.5h-155v131h174q21 0 52 -10.5t59.5 -35t49 -64t20.5 -97.5zM571 909v-182h-141q-2 -24 -6 -67t-8.5 -89.5t-11.5 -88.5t-14 -66l-35 -11
q-30 75 -48.5 157t-26.5 165h-129q-2 -24 -6 -67t-5.5 -89.5t-7 -88.5t-12.5 -66l-35 -11q-30 75 -48.5 157t-26.5 165h-10v182h571z" />
    <glyph glyph-name="uni184E.fina" horiz-adv-x="840" 
d="M826 1142q-24 -27 -52.5 -64t-56 -79t-51.5 -86t-38 -85q-17 -47 -30.5 -89.5t-24 -92.5t-16 -114.5t-5.5 -155.5q-56 29 -104 69.5t-84 87t-58.5 96.5t-26.5 98h-129q-2 -24 -6 -67t-8.5 -89.5t-11.5 -88.5t-14 -66l-35 -11q-30 75 -48.5 157t-26.5 165v182h347v-137
q0 -38 12.5 -74.5t31.5 -68t40 -57t38 -41.5q0 33 1 72.5t6 86t15.5 98t30.5 108.5q28 79 48.5 136t34 100.5t20 79t6.5 72.5q0 16 -4.5 38t-9.5 43.5t-9.5 39t-4.5 25.5q0 26 7.5 38t27.5 12q17 0 36.5 -38.5t50.5 -99.5q33 -66 60.5 -114.5t40.5 -85.5zM433 74
q0 -7 -1.5 -16.5t-5 -18.5t-9 -15t-13.5 -6q-11 0 -18 11.5t-14 25.5q-12 24 -24.5 42t-28.5 30t-37 17.5t-49 5.5h-155v131h174q21 0 52 -10.5t59.5 -35t49 -64t20.5 -97.5z" />
    <glyph glyph-name="glyph428" horiz-adv-x="521" 
d="M560 909v-182h-92q-17 0 -26 17.5t-13 40.5t-4.5 47t-0.5 38q0 16 -1 40.5t-6.5 52.5t-15.5 56t-28 50.5t-45 36.5t-66 14q-50 0 -88.5 -31t-64.5 -76.5t-39 -98t-13 -94.5q0 -79 42 -165.5t118 -169.5l-47 -158h-18q-70 91 -111 192.5t-41 207.5v182q7 81 29.5 149.5
t57 117.5t80 76.5t98.5 27.5q55 0 95.5 -28t67.5 -77.5t41 -117.5t17 -148h74z" />
    <glyph glyph-name="uni184F" unicode="&#x184f;" horiz-adv-x="609" 
d="M569 1142q-26 -34 -52.5 -71.5t-50.5 -77.5t-45 -81t-35 -82q-17 -47 -31.5 -97.5t-25.5 -108t-18.5 -124t-8.5 -145.5q-80 65 -135.5 117t-90.5 105t-51 113.5t-16 142.5q0 139 10 223.5t28.5 130t44.5 60t58 14.5q35 0 62 -15.5t49 -41.5t40 -60.5t35 -72.5
q16 59 21.5 109t5.5 97q0 16 -4.5 39t-10.5 45.5t-10.5 41t-4.5 26.5q0 26 7.5 38t27.5 12q17 0 43 -38t57 -99q33 -66 60.5 -114.5t40.5 -85.5zM302 973q-8 28 -20 55t-30 48t-43 34t-59 13q-21 0 -34.5 -27.5t-21 -71t-10 -96t-2.5 -101.5q0 -63 13.5 -106t34 -74
t43.5 -55.5t43 -51.5q0 24 2.5 63t9 87.5t19 103.5t32.5 112q6 18 12 34.5t11 32.5z" />
    <glyph glyph-name="uni184F.init" horiz-adv-x="510" 
d="M525 909v-182h-143q-3 -75 -13.5 -153t-23.5 -157l-36 -10q-20 43 -34 95t-24 102t-14.5 91.5t-4.5 63.5v150q0 40 -9.5 64.5t-32.5 24.5q-16 0 -28.5 -2.5t-24 -7.5t-23.5 -12t-27 -17q-25 -17 -38.5 -29.5t-20.5 -12.5q-11 10 -19.5 22.5t-8.5 21.5q11 11 25 28t28 33
q55 63 96.5 97t73.5 44l-41 261q10 10 36 17t58 7q35 0 59.5 6t40.5 21t25.5 39.5t14.5 60.5q20 -26 26 -53t6 -54q0 -73 -38.5 -118t-120.5 -45l-39 1l20 -142q36 -10 55.5 -52.5t19.5 -105.5v-97h180z" />
    <glyph glyph-name="uni184F.medi" horiz-adv-x="280" 
d="M293 909v-182h-143q-2 -24 -6 -67t-9 -89.5t-12 -88.5t-14 -66l-35 -11q-30 75 -48.5 157t-26.5 165v182h44l-45 310q10 10 36 17t58 7q35 0 59.5 6t40.5 21t25.5 39.5t14.5 60.5q20 -26 26 -53t6 -54q0 -73 -38.5 -118t-120.5 -45l-39 1l24 -192h203z" />
    <glyph glyph-name="uni184F.fina" horiz-adv-x="577" 
d="M559 1142q-26 -34 -52.5 -71.5t-50.5 -77.5t-45 -81t-35 -82q-17 -47 -31.5 -97.5t-25.5 -108t-18.5 -124t-8.5 -145.5q-80 65 -135.5 117t-90.5 105t-51 113.5t-16 142.5q0 139 10 223.5t28.5 130t44.5 60t58 14.5q35 0 62 -15.5t49 -41.5t40 -60.5t35 -72.5
q16 59 21.5 109t5.5 97q0 16 -4.5 39t-10.5 45.5t-10.5 41t-4.5 26.5q0 26 7.5 38t27.5 12q17 0 43 -38t57 -99q33 -66 60.5 -114.5t40.5 -85.5zM292 973q-8 28 -20 55t-30 48t-43 34t-59 13q-21 0 -34.5 -27.5t-21 -71t-10 -96t-2.5 -101.5q0 -63 13.5 -106t34 -74
t43.5 -55.5t43 -51.5q0 24 2.5 63t9 87.5t19 103.5t32.5 112q6 18 12 34.5t11 32.5z" />
    <glyph glyph-name="uni1850" unicode="&#x1850;" horiz-adv-x="436" 
d="M298 1051q0 12 -2 24.5t-9 22.5t-20 16t-35 6q-47 0 -78.5 -30t-50 -72.5t-26.5 -88.5t-8 -78q0 -66 25.5 -116t62.5 -88l120 -124q6 15 10 40t6.5 55t3.5 63t1 64v306zM460 909v-182h-93q0 -20 -1.5 -50t-4.5 -64.5t-7 -72t-8.5 -72t-10.5 -64.5t-12 -50h-30
q-18 16 -39 34.5l-42 37t-41.5 37.5t-37.5 36q-53 53 -80.5 93.5t-39 78.5t-12.5 78t-1 92q0 101 19 182t54 138t84 88t109 31q101 0 101 -130v-241h93z" />
    <glyph glyph-name="uni1850.init" horiz-adv-x="436" 
d="M298 1051q0 12 -2 24.5t-9 22.5t-20 16t-35 6q-47 0 -78.5 -30t-50 -72.5t-26.5 -88.5t-8 -78q0 -66 25.5 -116t62.5 -88l120 -124q6 15 10 40t6.5 55t3.5 63t1 64v306zM460 909v-182h-93q0 -20 -1.5 -50t-4.5 -64.5t-7 -72t-8.5 -72t-10.5 -64.5t-12 -50h-30
q-18 16 -39 34.5l-42 37t-41.5 37.5t-37.5 36q-53 53 -80.5 93.5t-39 78.5t-12.5 78t-1 92q0 101 19 182t54 138t84 88t109 31q101 0 101 -130v-241h93z" />
    <glyph glyph-name="uni1850.medi" horiz-adv-x="490" 
d="M298 1051q0 12 -2 24.5t-9 22.5t-20 16t-35 6q-47 0 -78.5 -30t-50 -72.5t-26.5 -88.5t-8 -78q0 -66 25.5 -116t62.5 -88l120 -124q6 15 10 40t6.5 55t3.5 63t1 64v306zM510 909v-182h-143q0 -20 -1.5 -50t-4.5 -64.5t-7 -72t-8.5 -72t-10.5 -64.5t-12 -50h-30
q-18 16 -39 34.5l-42 37t-41.5 37.5t-37.5 36q-53 53 -80.5 93.5t-39 78.5t-12.5 78t-1 92q0 101 19 182t54 138t84 88t109 31q101 0 101 -130v-241h143z" />
    <glyph glyph-name="uni1850.fina" horiz-adv-x="820" 
d="M780 697v-94q0 -57 -19.5 -92t-48.5 -35v19q0 108 -39.5 168.5t-118.5 63.5h-187q0 -20 -1.5 -50t-4.5 -64.5t-7 -72t-8.5 -72t-10.5 -64.5t-12 -50h-30q-18 16 -39 34.5l-42 37t-41.5 37.5t-37.5 36q-53 53 -80.5 93.5t-39 78.5t-12.5 78t-1 92q0 101 19 182t54 138
t84 88t109 31q101 0 101 -130v-241h256q75 -7 116 -62t41 -150zM298 1051q0 12 -2 24.5t-9 22.5t-20 16t-35 6q-47 0 -78.5 -30t-50 -72.5t-26.5 -88.5t-8 -78q0 -66 25.5 -116t62.5 -88l120 -124q6 15 10 40t6.5 55t3.5 63t1 64v306z" />
    <glyph glyph-name="uni1851" unicode="&#x1851;" horiz-adv-x="468" 
d="M304 450l-114 277h-105l124 -390zM484 909v-182h-242l157 -308l-202 -274h-14l-183 582v182h484z" />
    <glyph glyph-name="uni1851.init" horiz-adv-x="477" 
d="M304 450l-114 277h-105l124 -390zM484 909v-182h-242l157 -308l-202 -274h-14l-183 582v182h484z" />
    </font>
</defs>
</svg>
